<?xml version="1.0" encoding="UTF-8"?>
<svg id="Layer_2" data-name="Layer 2" xmlns="http://www.w3.org/2000/svg" xmlns:xlink="http://www.w3.org/1999/xlink" viewBox="0 0 431 437.25">
  <defs>
    <style>
      .cls-1 {
        fill: #522b17;
      }

      .cls-2 {
        fill: #e9e0b5;
      }

      .cls-3 {
        fill: #56899c;
      }

      .cls-4 {
        fill: #95bf70;
      }

      .cls-5 {
        fill: #f4aa3b;
      }

      .cls-6 {
        fill: url(#linear-gradient-5);
      }

      .cls-7 {
        fill: url(#linear-gradient-6);
      }

      .cls-8 {
        fill: url(#linear-gradient-4);
      }

      .cls-9 {
        fill: url(#linear-gradient-3);
      }

      .cls-10 {
        fill: url(#linear-gradient-2);
      }

      .cls-11 {
        fill: #101414;
      }

      .cls-12 {
        fill: #271106;
      }

      .cls-13 {
        fill: #a0734f;
      }

      .cls-14 {
        fill: #327446;
      }

      .cls-15 {
        fill: #33b39b;
      }

      .cls-16 {
        fill: url(#linear-gradient);
      }

      .cls-17 {
        fill: #88b37b;
      }

      .cls-18 {
        fill: #70b2b8;
      }

      .cls-19 {
        fill: #e98b35;
      }

      .cls-20 {
        fill: #564468;
      }

      .cls-21 {
        fill: #48475c;
      }

      .cls-22 {
        fill: #b25752;
      }

      .cls-23 {
        fill: #353347;
      }

      .cls-24 {
        fill: #78b47e;
      }

      .cls-25 {
        fill: #083113;
      }

      .cls-26 {
        fill: #b88a61;
      }

      .cls-27 {
        fill: #80456e;
      }

      .cls-28 {
        fill: #cd5244;
      }

      .cls-29 {
        fill: #2c9a94;
      }

      .cls-30 {
        fill: #fefefe;
      }

      .cls-31 {
        fill: #298594;
      }

      .cls-32 {
        fill: #566281;
      }

      .cls-33 {
        fill: #a14654;
      }

      .cls-34 {
        stroke-width: 8px;
      }

      .cls-34, .cls-35 {
        fill: none;
        stroke: #000;
        stroke-miterlimit: 10;
      }

      .cls-36 {
        fill: #31768b;
      }

      .cls-37 {
        fill: #c7dfa7;
      }

      .cls-35 {
        stroke-width: 6px;
      }

      .cls-38 {
        fill: #288e7a;
      }

      .cls-39 {
        fill: #438754;
      }

      .cls-40 {
        fill: #eec770;
      }

      .cls-41 {
        fill: #f9f5e1;
      }

      .cls-42 {
        fill: #ea7531;
      }

      .cls-43 {
        fill: #694431;
      }

      .cls-44 {
        font-family: Futura-Bold, Futura;
        font-size: 40px;
        font-weight: 700;
      }

      .cls-45 {
        fill: #7ca45e;
      }

      .cls-46 {
        fill: #65597a;
      }

      .cls-47 {
        fill: #f3b82c;
      }
    </style>
    <linearGradient id="linear-gradient" x1="157.55" y1="479.69" x2="189.72" y2="429.66" gradientTransform="translate(0 728.89) scale(1 -1)" gradientUnits="userSpaceOnUse">
      <stop offset="0" stop-color="#3e495f"/>
      <stop offset="1" stop-color="#4e4868"/>
    </linearGradient>
    <linearGradient id="linear-gradient-2" x1="123.26" y1="361.36" x2="116.42" y2="367.98" gradientTransform="translate(0 728.89) scale(1 -1)" gradientUnits="userSpaceOnUse">
      <stop offset="0" stop-color="#0f0402"/>
      <stop offset="1" stop-color="#2b1a12"/>
    </linearGradient>
    <linearGradient id="linear-gradient-3" x1="142.02" y1="377.8" x2="143.49" y2="375.62" gradientTransform="translate(0 728.89) scale(1 -1)" gradientUnits="userSpaceOnUse">
      <stop offset="0" stop-color="#976441"/>
      <stop offset="1" stop-color="#af7a58"/>
    </linearGradient>
    <linearGradient id="linear-gradient-4" x1="147.56" y1="423.54" x2="136.95" y2="427.89" gradientTransform="translate(0 728.89) scale(1 -1)" gradientUnits="userSpaceOnUse">
      <stop offset="0" stop-color="#413561"/>
      <stop offset="1" stop-color="#614f6b"/>
    </linearGradient>
    <linearGradient id="linear-gradient-5" x1="137.61" y1="439.05" x2="134.71" y2="440.21" gradientTransform="translate(0 728.89) scale(1 -1)" gradientUnits="userSpaceOnUse">
      <stop offset="0" stop-color="#8b6274"/>
      <stop offset="1" stop-color="#a6717e"/>
    </linearGradient>
    <linearGradient id="linear-gradient-6" x1="292.17" y1="434.04" x2="297.95" y2="430.17" gradientTransform="translate(0 728.89) scale(1 -1)" gradientUnits="userSpaceOnUse">
      <stop offset="0" stop-color="#a4c46d"/>
      <stop offset="1" stop-color="#6b8d59"/>
    </linearGradient>
  </defs>
  <g id="Layer_4" data-name="Layer 4">
    <g>
      <g>
        <path class="cls-11" d="M101.32,388.95c7.66-4.98,14.57-9.13,22.49-13.7.28,2.59-7.22,18.59-8.75,22.03l-1.47,7.23c-.78,20.13,9.42,12.14,14.95,16.26-.14,4.23-1.49,9.98,1.95,13.07,9.6,8.63,23.52-.71,28.07-10.81l14.19-5.3c13.99-16.87,6.54-53.67,12.6-63.41,7.23,3.56,9.3,1.79,16.72-.39,3.61-1.06,4.43-2.35,6.78-5.15,5.9-.79,12.15-1.33,18.1-1.94,2.9,3.41,4.19,4.89,8.87,4.75,6.84-.2,11.59-.55,16.19-5.8,11.19-.62,24.74-.68,35.77.93,1.35,1.04,3.94,2.57,3.51,4.4-4.38,18.54-1.91,27.61,16.87,37.21,3.66-6.52,6.06-15.55,3.96-22.88-2.92-10.16-9.72-13.64-18.05-18.4,6.31,1.36,10.62,2.45,16.76,4.4,4.98,18.11,15.51,21.92,32.95,21.39-1.56-17.89-6.98-24.38-24.11-27.95-1.91-.4-4.12-.73-5.4-1.96,2.32-1.3,8-1.85,10.88-2.28.27.23.54.45.82.67,13.6,10.65,28.51,4.82,38.04-7.92-14.68-11.54-26.95-11.37-39.33,2.91-14.81,2.28-16.21,1.91-30.52-2.13,7.48-3.24,12.32-5.84,18.91-10.61,22.82,4.82,38.02-3.84,44.5-26.53-19.39-7.35-34.67-3.88-46.16,13.78-6.45,3.34-11.71,6.26-18.74,8.22,18.82-11.79,24.55-22.84,13.12-43.76-5.98,3.43-8.92,5.78-13.63,10.61-18.72,26.04,24.47,39.62-41.64,40.91-6.05-5.63-7.85-5.91-15.9-6.01,2.51-2.61,6.08-5.92,9.16-8.07,23.35-16.36,45.79-51.83,25.78-78.88-5.87-7.93-5.89-12.2-6.82-21.76,27.05-1.51,56.35-4.02,80.58,9.24,1.4.77,3.75,2.05,5.28,2.25,3.05-1.7,3.49-6.01,3.66-9.2.81-15.6-4.69-30.88-15.27-42.37-18.33-20.06-46.63-28-72.99-29.14-2.97-11.92-6.81-20.73-19.88-22.79-14.06-12.4-24.06-15.47-42.52-15.34-1.3-14.27-17.58-23.81-29.44-13.94-7.86,6.54-7.79,2.55-8.2,13.44-.13,3.56-3.7,5.76,1.55,12.34,2.53,3.72,1.22,4.13,5.53,6.02.49,2.39-5.71,11.41-6.62,17.81-1.48,10.45-1.12,15.41.51,25.89-5.74,10.57,1.15,23.04,10.53,28.82-1.12,31.75-2.92,23.91-21.02,43.09-21.48,22.76-30.42,63.7-29.96,94.15,6.58-.69,11.19-1.39,17.68-2.68l-4.33,10.75c-23.69,6.88-41.51,11.64-62.14,25.33-1.32.88-3.86,3.46-3.83,5.05.05,3.53,8.86,10.98,8.86,10.98,4.74,4.01,9.21,7.48,13.76,10.71l6.86-3.57"/>
        <path class="cls-41" d="M198.53,182.75c7.22-17.8,16.07-26.48,36.11-26.57,3.86,10.83,4.53,18.64-.28,29.41-.58,4.11-.96,5.84-.31,10.03,4.12,11.41,9.49,14.37,20.72,17.16l1.89,12.39c1.82,6.48,3.08,12.49,3.15,19.26-1.31,5.41-2.56,8.14-5.66,12.81-8.07,8.27-18.6,11.03-28.09,3.42-9.96-7.98-11.03-19.66-16.44-30.39-2.88-5.71-6.86-10.91-9.88-16.54-5.44-10.01-4.47-20.54-1.2-30.97Z"/>
        <path class="cls-5" d="M198.53,182.75c7.22-17.8,16.07-26.48,36.11-26.57,3.86,10.83,4.53,18.64-.28,29.41l-.51-.27c-25.06,15.75-20.4-11.35-35.32-2.57Z"/>
        <path class="cls-11" d="M219.62,166.3c4.45-1.88,9.57.23,11.42,4.69,1.84,4.46-.3,9.57-4.78,11.38-4.43,1.79-9.47-.33-11.29-4.74-1.82-4.41.25-9.47,4.65-11.33Z"/>
        <path class="cls-30" d="M223.41,168.93c1.26-.97,3.07-.75,4.05.49.99,1.25.79,3.05-.44,4.06-.81.66-1.92.84-2.9.46-.98-.38-1.67-1.26-1.82-2.3-.15-1.04.27-2.08,1.1-2.72Z"/>
        <path class="cls-2" d="M234.05,195.62c4.12,11.41,9.49,14.37,20.72,17.16l1.89,12.39c-16.4-2.55-22.91-13.91-22.61-29.55Z"/>
        <path class="cls-16" d="M144.12,269.2c-3.6-12.49,36.55-60.57,56.72-29.85,3.45,3.11,5.1,11.91,5.23,16.36.5,16.31-8.16,32.3-18.84,44.02-9.34,10.26-20.4,16.91-33.31,21.48,13.85-12.95,17.84-18.18,27.88-34.57,5.45-8.9,12.73-13.44,13.23-26.65.03-.76.05-1.53.06-2.29-.81,1.87-4.87,11.53-5.88,12.54-3.41,5.63-11.44,12.66-18.45,10.47l-.75-1.15c.75-1.9,1.73-2.51,3.28-3.79,4.49-6.52,5.26-8.98,7.25-16.45-2.23,3.02-4.39,6.87-6.88,9.55-4.32,5.72-11.62,12.62-19.27,8.1-1.23-1.84-1.13-1.1-.88-2.95.32-.31,1.7-1.64,1.96-1.81,6.22-5.25,7.67-7.78,10.31-15.11l-5.54,5.45c-4.48,4.96-9.1,9.67-16.12,6.62Z"/>
        <path class="cls-3" d="M144.12,269.2c-3.6-12.49,36.55-60.57,56.72-29.85-2.66.41-6.18-2.47-9.37-3.68-15.62-5.96-36.61,16.05-42.08,29.42-1.69,1.68-3.04,3.31-5.27,4.11Z"/>
        <path class="cls-32" d="M155.48,272.24c9.08,1.29,10.57-1.51,18.19-3.34-4.32,5.72-11.62,12.62-19.27,8.1-1.23-1.84-1.13-1.1-.88-2.95.32-.31,1.7-1.64,1.96-1.81Z"/>
        <path class="cls-46" d="M173.3,275.8c7.72-1.59,10.26-4.14,15.92-5.54-3.41,5.63-11.44,12.66-18.45,10.47l-.75-1.15c.75-1.9,1.73-2.51,3.28-3.79Z"/>
        <path class="cls-46" d="M149.39,265.09c3.6-.72,7.07-2.52,10.86-2.5-4.48,4.96-9.1,9.67-16.12,6.62,2.23-.81,3.58-2.44,5.27-4.11Z"/>
        <path class="cls-47" d="M242.71,154.19c1.74-1.95,3.14-3.2,5.83-3.6,24.19-3.55,58.92,4.98,77.31,21.2-2.19,1.02-3.5,1.77-5.9,2.07l-.45.47c-6.75,2.95-7.68,4.36-9.42,11.49,1.51,4.22,2.22,5.65,4.37,9.49-28.44-9.17-42.96-9.96-72.57-9.41,2.6-7.83,3-10.9,3.02-19.13-.92-3.9-2.28-8.65-2.18-12.58Z"/>
        <path class="cls-42" d="M244.9,166.77c25.24-.68,45.45,1.47,65.18,19.05,1.51,4.22,2.22,5.65,4.37,9.49-28.44-9.17-42.96-9.96-72.57-9.41,2.6-7.83,3-10.9,3.02-19.13Z"/>
        <path class="cls-2" d="M242.71,154.19c1.74-1.95,3.14-3.2,5.83-3.6,24.19-3.55,58.92,4.98,77.31,21.2-2.19,1.02-3.5,1.77-5.9,2.07-9.02-10.44-38.98-17.75-52.35-18.78-7.98-.62-16.81-.39-24.9-.89Z"/>
        <path class="cls-43" d="M83.34,375.15c-1.8-1.49-2.29-1.86-3.7-3.85,1.28-2.4,9.07-5.58,11.9-6.89,25.85-12.12,53.22-20.71,81.36-25.54,3.89-.63,7.63-1.68,10.69.52,1.5,1.76,2.63,7.72.51,8.32-23.79,6.78-46.48,13.4-68.29,25.6-2.64,1.48-18.04,11.1-19.72,11.23-1.67-.82-2.24-.98-3.52-2.28,1.53-1.86,10.52-7,13.25-8.72.16-2.11.24-2.5.96-4.5-3.74.12-14.78,7.77-18.56,10.24l-4.86-4.15Z"/>
        <path class="cls-26" d="M83.34,375.15c-1.8-1.49-2.29-1.86-3.7-3.85,1.28-2.4,9.07-5.58,11.9-6.89,25.85-12.12,53.22-20.71,81.36-25.54,3.89-.63,7.63-1.68,10.69.52-2.62,2.81-13.48,3.99-17.64,4.52-4.67,1.2-9.33,2.43-13.99,3.68-2.92.63-6.53,1.25-9.18,2.5l-8.07,1.99.86,1.29c-1.1,1.31-1.29,1.36-2.79,2.24-4.63,3.1-13.16,5.88-18.36,8.95-3.25,1.92-4.72,4.58-6.91,4.81l-.76-.32c-3.74.12-14.78,7.77-18.56,10.24l-4.86-4.15Z"/>
        <path class="cls-43" d="M83.34,375.15c4.79-2.19,11.03-6.49,16.06-8.88,11.64-5.53,23.01-10.43,35.32-14.18l.86,1.29c-1.1,1.31-1.29,1.36-2.79,2.24-4.63,3.1-13.16,5.88-18.36,8.95-3.25,1.92-4.72,4.58-6.91,4.81l-.76-.32c-3.74.12-14.78,7.77-18.56,10.24l-4.86-4.15Z"/>
        <path class="cls-10" d="M132.78,355.62l2.41.54-.54,1.03c-3.27,3.89-23.39,12.79-28.86,16.37.16-2.11.24-2.5.96-4.5l.76.32c2.19-.24,3.66-2.89,6.91-4.81,5.2-3.08,13.73-5.85,18.36-8.95Z"/>
        <path class="cls-9" d="M142.78,350.1c2.64-1.26,6.26-1.87,9.18-2.5-3.98,4.01-7.55,4.94-9.33,6.82-3.39,1.75-4.22,2.02-7.97,2.77l.54-1.03-2.41-.54c1.5-.88,1.69-.93,2.79-2.24l-.86-1.29,8.07-1.99Z"/>
        <path class="cls-1" d="M142.78,350.1l.16.77c-2.29,1.81-5.08,4.03-7.74,5.28l-2.41-.54c1.5-.88,1.69-.93,2.79-2.24l-.86-1.29,8.07-1.99Z"/>
        <path class="cls-13" d="M151.95,347.6c4.66-1.25,9.32-2.48,13.99-3.68l-.65,2.55c-5.2,1.62-10.5,3.75-15.61,5.71-2.69.59-4.48,1.28-7.06,2.24,1.78-1.88,5.35-2.81,9.33-6.82Z"/>
        <path class="cls-12" d="M177.32,343.47c-6.02,3.3-21.14,8.75-27.64,8.71,5.11-1.96,10.41-4.09,15.61-5.71l12.03-3Z"/>
        <path class="cls-42" d="M191.67,114.29c9.03-3.53,17.04-2.94,26.36-.97,7.55,2.85,10.97,4.34,17.55,9l-7.18,1.07c-20.28,5.5-33.12,12.63-49.42,25.69-4.65,4.7-6.32,6.8-10.18,12.09-.87-5.38-1.19-9.33-.66-14.72.23-1.67.73-3.75,1.08-5.43,1-4.11,2.44-7.52,4.91-10.94,4.31-7.63,9.56-12.4,17.55-15.79Z"/>
        <path class="cls-47" d="M191.67,114.29c9.03-3.53,17.04-2.94,26.36-.97,7.55,2.85,10.97,4.34,17.55,9l-7.18,1.07-6.48-3.99c-3.3-.65-2.62-1.03-5.26.12l-.21.38c-.83,1.48-.92,1.65-2.07,2.85-6.45,1.5-7.02-.91-12.08-1.81l.17-.79-1.91-1.17c-.07-1.71.75-1.98,2.21-3.6l-2.36-.53c-2.7-.11-6.46.56-8.73-.56Z"/>
        <path class="cls-40" d="M191.67,114.29c9.03-3.53,17.04-2.94,26.36-.97l-4.77,2.05.31.79c-1.96-1.45-8.16-.87-10.8-.78l-2.36-.53c-2.7-.11-6.46.56-8.73-.56Z"/>
        <path class="cls-24" d="M202.77,115.38c2.64-.09,8.84-.67,10.8.78-1.09,2.98-.56,2.99-2.72,4.55-4.27.01-3.87-1.06-8.39-.56l-1.91-1.17c-.07-1.71.75-1.98,2.21-3.6Z"/>
        <path class="cls-33" d="M174.12,130.08c1.24.97,2.49,1.92,3.74,2.87l-.4,4.36v1.29c.71,3.74,1.09,6.73,1.51,10.48-4.65,4.7-6.32,6.8-10.18,12.09-.87-5.38-1.19-9.33-.66-14.72.23-1.67.73-3.75,1.08-5.43,1-4.11,2.44-7.52,4.91-10.94Z"/>
        <path class="cls-29" d="M174.12,130.08c1.24.97,2.49,1.92,3.74,2.87l-.4,4.36-2.73.22c-2.05,1.19-3.58,2.14-5.52,3.49,1-4.11,2.44-7.52,4.91-10.94Z"/>
        <path class="cls-19" d="M169.22,141.03c1.94-1.35,3.48-2.3,5.52-3.49-.16,4.13-.42,6.72-2.61,10.29l-1.39.79c-2.06-.94-1.4-.35-2.6-2.16.23-1.67.73-3.75,1.08-5.43Z"/>
        <path class="cls-42" d="M174.12,130.08c4.31-7.63,9.56-12.4,17.55-15.79,2.27,1.12,6.04.45,8.73.56l-3.64,9.35c-2.79-.28-6.22-.73-8.97-.84-2.57,3.39-5.57,10.8-9.93,9.59-1.25-.95-2.5-1.91-3.74-2.87Z"/>
        <path class="cls-17" d="M200.4,114.85l2.36.53c-1.46,1.62-2.28,1.89-2.21,3.6l1.91,1.17-.17.79c-1,2.67-2.35,6.02-3.11,8.71-3.09-.21-6.87-.58-9.9-.64l-3.83,9.27c-3.35.47-4.65.74-7.97.33v-1.29s.39-4.36.39-4.36c4.36,1.21,7.36-6.2,9.93-9.59,2.74.11,6.18.55,8.97.84l3.64-9.35Z"/>
        <path class="cls-32" d="M162.82,366.25c-1.89,13.69-6.77,55.82-16.68,63.13-1.81,1.34-3.89,1.98-6.07,2.4-13.5,4.34-2.87-20.99-1.37-25.52,2.44-7.36,4.78-14.75,7.02-22.17,4.09-.17,7.12-1.75,10.89-3.37,1.82-6.66,2.2-8.7,6.2-14.48Z"/>
        <path class="cls-20" d="M138.7,406.27c7.43-1.46,6.97-1.96,12.75-7.51-1.77,8.06-3.7,16.09-6.79,23.82-1.19,2.99-5.28,6.81-5.19,8.74l.59.47c-13.5,4.34-2.87-20.99-1.37-25.52Z"/>
        <path class="cls-23" d="M156.62,380.73c-1.28,4.88-3.34,13.67-5.16,18.02-5.78,5.55-5.33,6.05-12.75,7.51,2.44-7.36,4.78-14.75,7.02-22.17,4.09-.17,7.12-1.75,10.89-3.37Z"/>
        <path class="cls-15" d="M244.87,195.24l-1.41-2.35c1-1.23,2.08-1.53,3.83-1.57,20.48-.42,44.16,1.65,63.18,8.68-.17,1.36-.24,3.12-.81,4.27l.58,2.81c-10.2.33-21.07-1.26-31.66-.56-15.6,1.03-23.58,2.44-33.72-11.28Z"/>
        <path class="cls-38" d="M244.87,195.24c18.42,6.53,37.79,2.77,56.69,6.64,1.98.4,7.08,1.05,8.1,2.39l.58,2.81c-10.2.33-21.07-1.26-31.66-.56-15.6,1.03-23.58,2.44-33.72-11.28Z"/>
        <path class="cls-20" d="M132.59,371.88c3.54-.1,9.49-2.33,11.71-1.9l-.46,1.35c-1.79,7.17-10.28,39.86-15.22,43.11-1.52,1-3.59,1.65-5.41,1.34-1.62-.27-2.79-1.15-3.58-2.59-2.36-4.28.38-11.58,2-15.72,3.08-7.87,6.66-18.49,10.97-25.6Z"/>
        <path class="cls-23" d="M132.59,371.88c3.54-.1,9.49-2.33,11.71-1.9l-.46,1.35-1.02-.19c-3.02,2.95-8.88,11.89-11.57,15.8.52-2.96,2.9-13.05,1.35-15.06Z"/>
        <path class="cls-43" d="M306.04,319.74l1.46-1.06.61.78c-2.83,7.68-21.92,13.37-29.18,17.32,12.85,2.59,22.06,3.81,32.89,11.96-22.2-5.96-35.86-8.49-59.29-7.21-.22-2.43-.35-5.62-1.23-7.82,1.73-1.22,17.14-1.47,20.7-2.13,12.38-2.3,22.68-6.92,34.04-11.83Z"/>
        <path class="cls-26" d="M306.04,319.74c-3.94,8.54-43.43,18.06-53.29,15.68l-1.46-1.72c1.73-1.22,17.14-1.47,20.7-2.13,12.38-2.3,22.68-6.92,34.04-11.83Z"/>
        <path class="cls-1" d="M268.32,337.09c1.1-.29,1.97-.09,3.16,0l-.22.64c-2.59.92-9.57,1.42-12.76,1.82-.97.6-1.5.4-2.82.46l-.71-.8c4.81-.94,8.49-1.58,13.35-2.12Z"/>
        <path class="cls-36" d="M174.93,95.27c4.65-2.48,4.52.48,9.24-.36,1.36-.24,1.94-.48,3.68-.69,3.3,6.52,7.06,6.93,6.84,11.9-1.55,2-.78,1.34-3.67,2.25-3.25,1.65-7.9,3.83-10.91,5.68-2.67,2.51-4.67,5.11-8.48,3.98-1.78-2.54-1.29-1.64-1.46-4.99-1.77-.77-1.97-.88-2.91-2.55-.16-2.31.87-3.7,1.96-5.8-1.07-2.03-.86-2.52-.2-4.46,1.79-1.65,2.11-1.69,4.55-1.92l1.36-3.03Z"/>
        <path class="cls-29" d="M174.93,95.27c4.65-2.48,4.52.48,9.24-.36,1.36-.24,1.94-.48,3.68-.69,3.3,6.52,7.06,6.93,6.84,11.9-1.55,2-.78,1.34-3.67,2.25-5.62-1.06-17.78-2.13-17.45-10.07l1.36-3.03Z"/>
        <path class="cls-37" d="M174.93,95.27c4.65-2.48,4.52.48,9.24-.36,1.36-.24,1.94-.48,3.68-.69-3.21,8.85-7.68,2.7-12.91,1.05Z"/>
        <path class="cls-46" d="M169.22,104.68c2.76,2.79,5.95,6.22,8.97,8.63l1.92.74c-2.67,2.51-4.67,5.11-8.48,3.98-1.78-2.54-1.29-1.64-1.46-4.99-1.77-.77-1.97-.88-2.91-2.55-.16-2.31.87-3.7,1.96-5.8Z"/>
        <path class="cls-20" d="M170.17,113.03c3.02-.06,5.01.03,8.02.28l1.92.74c-2.67,2.51-4.67,5.11-8.48,3.98-1.78-2.54-1.29-1.64-1.46-4.99Z"/>
        <path class="cls-21" d="M162.93,285.57c2.35.79,5.08,1.31,7.53,1.85l2.89-.27c3.78,4.95-20,27.52-25.03,30.91-.6.41-1.23.79-1.87,1.13l-.72-1.78,1.04-2.14c-2.21.37-.53,1.01-3.68.47,6.93-10.76,12.75-18.37,19.85-30.16Z"/>
        <path class="cls-20" d="M170.46,287.42l2.89-.27c3.78,4.95-20,27.52-25.03,30.91-.6.41-1.23.79-1.87,1.13l-.72-1.78,1.04-2.14c7.04-4.69,18.98-20.8,23.69-27.84Z"/>
        <path class="cls-20" d="M169.54,386.8c1.73-5.07,3.61-11.07,5.93-15.81-.63,10.78.07,45.66-14.71,46.7-2.39-2.17,3.27-23.84,3.97-28.45.08-2.88.74-5.43,1.36-8.23l.59-.28c.73,2.57,1,4.08,2.87,6.07Z"/>
        <path class="cls-23" d="M164.72,389.24c.08-2.88.74-5.43,1.36-8.23l.59-.28c.73,2.57,1,4.08,2.87,6.07-.71,2.01-.52,2.71-2.03,3.52l-.26-.21c-.85-.69-.99-.87-2.07-1.23l-.46.37Z"/>
        <path class="cls-8" d="M150.27,281.41c1.21.69,7.45,2.98,6.8,4.32-5.44,11.28-16.22,25.13-24.34,34.39-1.17,1.46-1.57,1.79-3.04,2.96-2.73-5.54,16.69-35.58,20.58-41.67Z"/>
        <path class="cls-21" d="M259.8,244.43c3.11,15.04-4.26,39.85-12.8,52.88-3.66,5.61-8.14,10.64-13.3,14.91l.1-1.9c1.58-1.86,3.12-3.76,4.6-5.71,8.23-10.94,17.68-33.79,15.75-47.37,3.1-4.66,4.34-7.39,5.66-12.81Z"/>
        <path class="cls-18" d="M181.36,327.85c5.39.28,5.15,1.25,9.81,3.45,8.97-8.75,17.39,16.72,8.7,18.34-2.87-3.26,1.43-8.26-5.5-17.41-.53.28-1.06.55-1.58.83,1.16,4.52,3.62,11.19,1.85,15.73-.54,1.38-1.78,2.31-3.2,2.75-.79.25-.34.17-1.51-.38-1.74-3.93.33-9.66-1.49-13.54-2.03-4.31-6.89-3.97-10.73-5.59.62-2.13,1.72-2.49,3.66-4.19Z"/>
        <path class="cls-15" d="M198.18,146.2c-.75-1.34-.83-1.29-.8-2.77,2.81-3.32,6.64-6.09,11.2-6.21.94-.03,1.73,1.64,2.29,2.47l3.56,7.34,2.3,5.21c-3.88,2.24-7.81,4.47-11.65,6.75l-2.69-5.57c-1.47-2.83-2.44-4.58-4.21-7.22Z"/>
        <path class="cls-29" d="M214.43,147.03l2.3,5.21c-3.88,2.24-7.81,4.47-11.65,6.75l-2.69-5.57c3.77-1.79,8.31-4.38,12.05-6.39Z"/>
        <path class="cls-2" d="M198.18,146.2c-.75-1.34-.83-1.29-.8-2.77,2.81-3.32,6.64-6.09,11.2-6.21.94-.03,1.73,1.64,2.29,2.47-5.31,2.02-7.78,3.56-12.69,6.51Z"/>
        <path class="cls-42" d="M183.88,152.87c3.29-2.97,6.24-5.28,9.74-7.99l5.51,9.98,3.29,5.82c-3.38,2.57-6.4,4.85-9.6,7.67l-3.67-5.64c-1.81-3.17-3.55-6.6-5.27-9.83Z"/>
        <path class="cls-22" d="M199.13,154.86l3.29,5.82c-3.38,2.57-6.4,4.85-9.6,7.67l-3.67-5.64c3.4-1.7,7.08-5.26,9.98-7.85Z"/>
        <path class="cls-29" d="M212.67,136.94l-.2-1.52c1.6-2.54,6.9-3.94,9.79-4.01,1.62-.04,1.94.97,2.97,2.14,1.37,2.74,3.25,6.25,4.33,9.04,1.02,2.4,1.43,2.17.69,4.14-4,3.19-4.24,3.06-9.47,3.14-1.77-1.14-1.38-1.19-2.3-3.33-1.39-3.39-3.24-6.99-5.82-9.6Z"/>
        <path class="cls-31" d="M229.57,142.59c1.02,2.4,1.43,2.17.69,4.14-4,3.19-4.24,3.06-9.47,3.14-1.77-1.14-1.38-1.19-2.3-3.33,3.65-1.23,7.43-2.65,11.08-3.95Z"/>
        <path class="cls-37" d="M212.67,136.94l-.2-1.52c1.6-2.54,6.9-3.94,9.79-4.01,1.62-.04,1.94.97,2.97,2.14-2.66.79-10.4,3.34-12.56,3.4Z"/>
        <path class="cls-4" d="M313.12,317.95c6.53-15.91,17.26-21.05,33.91-17.6l2.53.55c-4.04,2.37-6.96,3.33-10.49,5.26-3.26,1.18-7.09,2.41-10.03,4.15l-1.79.11-.85-.9c.15-1.43.23-2.62.29-4.06l-.35-.11c-2.35,1.27-3.93,5.87-6.24,7.84-2.15,1.83-4.6,3.3-6.98,4.77Z"/>
        <path class="cls-45" d="M347.03,300.35l2.53.55c-4.04,2.37-6.96,3.33-10.49,5.26-3.26,1.18-7.09,2.41-10.03,4.15-1.06-9.41,11.86-6.99,18-9.95Z"/>
        <path class="cls-31" d="M181.04,155.66c1.65,1.78,7.15,12.35,9.19,15.55-2.25,2.25-4.89,5.35-7.08,7.76-4.15-2.1-7.82-11.06-9.61-15.32,1.9-2.41,5.28-5.7,7.5-7.99Z"/>
        <path class="cls-42" d="M227.52,131.05c.29-2.96,6.23-2.88,8.49-2.74,2.05.13,2.43,1.43,3.47,2.94l3.29,6.69,2.61,6.35c-3.33.7-7.03,1.4-10.3,2.22l-2.91-6.7c-1.58-3.52-2.64-5.46-4.65-8.76Z"/>
        <path class="cls-22" d="M242.77,137.94l2.61,6.35c-3.33.7-7.03,1.4-10.3,2.22l-2.91-6.7c4.12-.22,6.69-.67,10.61-1.87Z"/>
        <path class="cls-40" d="M227.52,131.05c.29-2.96,6.23-2.88,8.49-2.74,2.05.13,2.43,1.43,3.47,2.94-3.64.13-8.5.54-11.96-.21Z"/>
        <path class="cls-43" d="M207.44,338.75c-.31-2.09-.54-1.55.21-3.22,4.91-2.32,15.87-2.09,20.42,1.36.52,1.88.88,2.62.26,4.49-3.35,2.75-15.01,2.64-19.46,2.59-1.07-1.62-1.12-3.26-1.43-5.21Z"/>
        <path class="cls-13" d="M207.44,338.75c-.31-2.09-.54-1.55.21-3.22,4.91-2.32,15.87-2.09,20.42,1.36-5.78,1.08-14.57,1.49-20.63,1.86Z"/>
        <path class="cls-27" d="M170.23,167.58c1,.68,7.78,12.13,10.03,14.95l-4.36,6.44-.94.58c-4-1.32-6.89-10.6-8.21-14.52.97-2.76,2.13-4.86,3.48-7.45Z"/>
        <path class="cls-6" d="M131.29,304.43c.94-4.68,5.64-28.96,9.48-30.44l2.76,1.41c.64.39,2.27,1.09,2.18,1.83-.64,5.24-6.11,14.14-9.24,18.33-1.38,3.25-3.26,5.93-5.18,8.87Z"/>
        <path class="cls-46" d="M143.53,275.4c.64.39,2.27,1.09,2.18,1.83-.64,5.24-6.11,14.14-9.24,18.33-.58-4.47,5.01-16.06,7.06-20.16Z"/>
        <path class="cls-18" d="M224.74,325.85c12.74-.47,18.87,13.04,10.76,22.58-5.42-1.5-.04-10.2-3.53-14.91-2.5-3.37-6.05-3.53-9.76-4.38l-.08-.97,2.61-2.32Z"/>
        <path class="cls-14" d="M300.95,283.67l1.29-.61c1.61.88,2.27,2.63,2.72,4.34,2.65,10.07-.51,18.87-8.98,24.7,1.6-4.97,4.26-13.37,3.43-18.51l-1.33-2.69c1.95-2.42,3.55-4.04,2.88-7.23Z"/>
        <path class="cls-14" d="M293.32,356.71c2.03,3.65,5.2,13.24,7.8,14.88,1,2.22,3.11,7.28,4.78,8.88-.12.42-.73,1.67-.94,2.15l-1.49.17c-10.26-4.47-12.11-16.26-10.15-26.08Z"/>
        <path class="cls-21" d="M186.58,184.68c0,.14,0,.28,0,.43-2.3,10.64-1.74,31.17-9.3,38.58-.05-.13-.1-.27-.15-.4,2.81-6.53,1.92-28.62,5.13-32.98,1.39-1.92,2.82-3.79,4.31-5.63Z"/>
        <path class="cls-7" d="M300.95,283.67c.68,3.18-.93,4.81-2.88,7.23l1.33,2.69c-3.16,5.99-5.18,11.89-8.07,17.76-.99-4.22-2.38-8.59-1.22-12.83,1.97-6.87,5.2-10.68,10.83-14.85Z"/>
        <path class="cls-4" d="M300.95,283.67c.68,3.18-.93,4.81-2.88,7.23-.62.77-1.48,2.16-2.22,2.28-2.97.47-4.05,3.54-5.73,5.35,1.97-6.87,5.2-10.68,10.83-14.85Z"/>
        <path class="cls-39" d="M349.56,300.9c1.56,3.36-6.42,13.29-9.52,15.28l-.28-1.14-2.39-.66c-2.76-.75-4.76-.41-8-1.53,2.28-1.27,8.41-4.77,9.69-6.68,3.53-1.92,6.45-2.89,10.49-5.26Z"/>
        <path class="cls-39" d="M314.26,353.22c3.37,2.45,10.29,8.02,14.3,8.25,2.24,2.07,6.95,7.46,9.05,8.45-12.96-1.08-19.39-3.83-23.35-16.71Z"/>
        <path class="cls-28" d="M155.09,326.72c.16.1,6.82,7.29,7.92,8.27-3.31.69-6.62,1.37-9.93,2.02l-8.5,2.14,4.37-10.15,6.15-2.28Z"/>
        <path class="cls-22" d="M243.84,131.31l-1.62-2.37.39-1.04c6.14-1.39,10.18,6.26,12.07,10.75.98,1.66,1.65,2.33,1.38,4.2-1.55,1.34-4.31,1.2-6.54,1.38-1.64-4.28-3.77-8.72-5.68-12.91Z"/>
        <path class="cls-2" d="M243.84,131.31l-1.62-2.37.39-1.04c6.14-1.39,10.18,6.26,12.07,10.75l-1.02.34c-3.45-1.7-6.27-5.08-9.82-7.67Z"/>
        <path class="cls-21" d="M266.62,244.08c8.04,9.82.32,30.72-4.93,40.47l-.88,1.06c-.13-.77,3.08-12.59,3.51-14.61,1.99-9.35,2.13-17.45,2.29-26.92Z"/>
        <path class="cls-39" d="M326.84,316.01c.72-1.86.89-2.03,2.54-3.16,3.23,1.12,5.24.78,8,1.53l2.39.66.28,1.14c-7.51,6.55-14.63,5.66-23.78,4.82,3.49-2.34,6.54-3.9,10.58-4.99Z"/>
        <path class="cls-25" d="M326.84,316.01c.72-1.86.89-2.03,2.54-3.16,3.23,1.12,5.24.78,8,1.53-4.38,1.02-6.11,1.26-10.53,1.64Z"/>
        <path class="cls-14" d="M354.94,334.39l.82,1.01c-1.3,2.7-6.34,6.32-9.35,7.22-6.51,1.95-10.85.54-16.82-1.53,3.41-.84,12.78-2.86,15.31-4.93,3.35-.36,6.94-.55,10.05-1.76Z"/>
        <path class="cls-28" d="M310.47,200c10.63,3.43,16.18,6.23,25.13,12.96-9.41-2.9-15.63-4.52-25.36-5.88l-.58-2.81c.57-1.15.64-2.91.81-4.27Z"/>
        <path class="cls-4" d="M328.56,361.47c-4.11-6.14-6.52-6.86-10.17-11.35,10.83,2.58,18.26,7.6,19.21,19.81-2.1-.99-6.81-6.38-9.05-8.45Z"/>
        <path class="cls-45" d="M297.51,355.43c8.87,8.18,11.43,12.82,8.4,25.04-1.67-1.6-3.78-6.66-4.78-8.88-.87-6.49-1.61-9.88-3.62-16.16Z"/>
        <path class="cls-42" d="M325.86,171.79c9.02,8.29,13.18,15.38,17.67,26.75l-.43-.51c-7.55-9.06-10.51-18.54-23.6-23.7l.45-.47c2.4-.31,3.72-1.05,5.9-2.07Z"/>
        <path class="cls-45" d="M328.7,337.18c9.74-7.37,14.97-8.71,26.24-2.78-3.11,1.21-6.7,1.4-10.05,1.76-6.34-.43-10.04.09-16.19,1.02Z"/>
        <path class="cls-18" d="M237.43,327.03c9.56.99,10.97,10.21,8.8,17.94l-2.1.82c-1.57-1.72-.91-11.14-6.7-18.76Z"/>
        <path class="cls-20" d="M143.09,315.73c3.16.54,1.47-.11,3.68-.47l-1.04,2.14.72,1.78c-1.28,1.27-9.78,5.36-11.75,6.33,2.49-3,5.68-7.1,8.38-9.77Z"/>
        <path class="cls-23" d="M233.7,312.21c-1.52,1.46-1.77,2.2-3.59,2.55.7-2.39,1.53-2.48,3.69-4.45l-.1,1.9Z"/>
      </g>
      <text class="cls-44" transform="translate(58.33 165.49) rotate(-68.62)"><tspan x="0" y="0">T</tspan></text>
      <text class="cls-44" transform="translate(64.92 146.56) rotate(-58.93)"><tspan x="0" y="0">O</tspan></text>
      <text class="cls-44" transform="translate(83.41 116.04) rotate(-47.35)"><tspan x="0" y="0">U</tspan></text>
      <text class="cls-44" transform="translate(104.39 92.75) rotate(-35.78)"><tspan x="0" y="0">Q</tspan></text>
      <text class="cls-44" transform="translate(133.4 71.95) rotate(-24.14)"><tspan x="0" y="0">U</tspan></text>
      <text class="cls-44" transform="translate(162.25 59.35) rotate(-14.83)"><tspan x="0" y="0">E</tspan></text>
      <text class="cls-44" transform="translate(183.63 53.91) rotate(-8.72)"><tspan x="0" y="0"> </tspan></text>
      <text class="cls-44" transform="translate(196.14 51.26) rotate(-.93)"><tspan x="0" y="0">&amp;</tspan></text>
      <text class="cls-44" transform="translate(229.32 51.4) rotate(7.11)"><tspan x="0" y="0"> </tspan></text>
      <text class="cls-44" transform="translate(242.16 52.76) rotate(12.97)"><tspan x="0" y="0">T</tspan></text>
      <text class="cls-44" transform="translate(261.84 56.49) rotate(22.69)"><tspan x="0" y="0">O</tspan></text>
      <text class="cls-44" transform="translate(294.72 70.34) rotate(34.33)"><tspan x="0" y="0">U</tspan></text>
      <text class="cls-44" transform="translate(320.61 88.21) rotate(44.19)"><tspan x="0" y="0">C</tspan></text>
      <text class="cls-44" transform="translate(339.65 106.34) rotate(54.2)"><tspan x="0" y="0">A</tspan></text>
      <text class="cls-44" transform="translate(357.96 131.13) rotate(65.65)"><tspan x="0" y="0">N</tspan></text>
      <path class="cls-34" d="M115.64,401.99C49.19,366.33,4,296.19,4,215.5,4,98.69,98.69,4,215.5,4s211.5,94.69,211.5,211.5-94.69,211.5-211.5,211.5c-20.53,0-40.38-2.93-59.15-8.38"/>
      <path class="cls-35" d="M104,319.18c-25.29-27.18-40.75-63.63-40.75-103.68,0-84.09,68.17-152.26,152.26-152.26s152.26,68.17,152.26,152.26c0,23.65-5.39,46.04-15.01,66.01"/>
    </g>
  </g>
</svg>