<?xml version="1.0" encoding="UTF-8"?>
<svg id="Layer_2" data-name="Layer 2" xmlns="http://www.w3.org/2000/svg" xmlns:xlink="http://www.w3.org/1999/xlink" viewBox="0 0 521.25 132.64">
  <defs>
    <style>
      .cls-1 {
        fill: #e9e0b5;
      }

      .cls-2 {
        fill: #56899c;
      }

      .cls-3 {
        font-family: Futura-Bold, Futura;
        font-size: 48px;
        font-weight: 700;
      }

      .cls-4 {
        fill: #f4aa3b;
      }

      .cls-5 {
        fill: url(#linear-gradient-3);
      }

      .cls-6 {
        fill: url(#linear-gradient-2);
      }

      .cls-7 {
        fill: #101414;
      }

      .cls-8 {
        fill: #33b39b;
      }

      .cls-9 {
        fill: url(#linear-gradient);
      }

      .cls-10 {
        fill: #88b37b;
      }

      .cls-11 {
        fill: #fff;
        opacity: .3;
      }

      .cls-12 {
        fill: #70b2b8;
      }

      .cls-13 {
        fill: #e98b35;
      }

      .cls-14 {
        fill: #564468;
      }

      .cls-15 {
        fill: #48475c;
      }

      .cls-16 {
        fill: #b25752;
      }

      .cls-17 {
        fill: #353347;
      }

      .cls-18 {
        fill: #78b47e;
      }

      .cls-19 {
        fill: #80456e;
      }

      .cls-20 {
        fill: #cd5244;
      }

      .cls-21 {
        letter-spacing: 0em;
      }

      .cls-22 {
        fill: #2c9a94;
      }

      .cls-23 {
        fill: #fefefe;
      }

      .cls-24 {
        fill: #298594;
      }

      .cls-25 {
        fill: #566281;
      }

      .cls-26 {
        fill: #a14654;
      }

      .cls-27 {
        fill: #31768b;
      }

      .cls-28 {
        fill: #c7dfa7;
      }

      .cls-29 {
        fill: #288e7a;
      }

      .cls-30 {
        letter-spacing: 0em;
      }

      .cls-31 {
        letter-spacing: 0em;
      }

      .cls-32 {
        fill: #eec770;
      }

      .cls-33 {
        fill: #f9f5e1;
      }

      .cls-34 {
        fill: #ea7531;
      }

      .cls-35 {
        letter-spacing: .02em;
      }

      .cls-36 {
        fill: #65597a;
      }

      .cls-37 {
        fill: #f3b82c;
      }
    </style>
    <linearGradient id="linear-gradient" x1="467.21" y1="-471.12" x2="476.13" y2="-485" gradientTransform="translate(0 -426.05) scale(1 -1)" gradientUnits="userSpaceOnUse">
      <stop offset="0" stop-color="#3e495f"/>
      <stop offset="1" stop-color="#4e4868"/>
    </linearGradient>
    <linearGradient id="linear-gradient-2" x1="464.43" y1="-486.7" x2="461.49" y2="-485.49" gradientTransform="translate(0 -426.05) scale(1 -1)" gradientUnits="userSpaceOnUse">
      <stop offset="0" stop-color="#413561"/>
      <stop offset="1" stop-color="#614f6b"/>
    </linearGradient>
    <linearGradient id="linear-gradient-3" x1="461.68" y1="-482.39" x2="460.87" y2="-482.07" gradientTransform="translate(0 -426.05) scale(1 -1)" gradientUnits="userSpaceOnUse">
      <stop offset="0" stop-color="#8b6274"/>
      <stop offset="1" stop-color="#a6717e"/>
    </linearGradient>
  </defs>
  <g id="Layer_5" data-name="Layer 5">
    <g>
      <path class="cls-7" d="M457.85,80.04c.08.72-2,5.16-2.43,6.11l-.41,2.01c-.22,5.59,2.61,3.37,4.15,4.51-.04,1.17-.41,2.77.54,3.63,2.66,2.39,6.53-.2,7.79-3l3.94-1.47c3.88-4.68,1.82-14.89,3.49-17.59,2.01.99,2.58.5,4.64-.11,1-.29,1.23-.65,1.88-1.43,1.64-.22,3.37-.37,5.02-.54.8.95,1.16,1.36,2.46,1.32,1.9-.06,3.08-.19,4.36-1.65.29-2.52-.27-4.62-.67-4.94-1.52-1.84-1.79-1.93-4.02-1.96.7-.72,1.69-1.64,2.54-2.24,6.48-4.54,12.7-14.38,7.15-21.88-1.63-2.2-1.63-3.38-1.89-6.04,7.51-.42,15.63-1.12,22.36,2.56.39.21,1.04.57,1.47.62.85-.47.97-1.67,1.02-2.55.23-4.33-1.3-8.57-4.24-11.76-5.09-5.56-12.93-7.77-20.25-8.08-.82-3.31-1.89-5.75-5.52-6.32-3.9-3.44-6.67-4.29-11.8-4.26-.36-3.96-4.88-6.6-8.17-3.87-2.18,1.81-2.16.71-2.27,3.73-.04.99-1.03,1.6.43,3.42.7,1.03.34,1.15,1.53,1.67.13.66-1.58,3.17-1.84,4.94-.41,2.9-.31,4.27.14,7.18-1.59,2.93.32,6.39,2.92,8-.31,8.81-.81,6.63-5.83,11.95-5.96,6.31-8.44,17.67-8.31,26.12,1.83-.19,3.1-.39,4.9-.74l-1.2,2.98"/>
      <path class="cls-33" d="M478.58,26.63c2-4.94,4.46-7.35,10.02-7.37,1.07,3.01,1.26,5.17-.08,8.16-.16,1.14-.27,1.62-.09,2.78,1.14,3.16,2.63,3.99,5.75,4.76l.52,3.44c.5,1.8.86,3.46.87,5.34-.36,1.5-.71,2.26-1.57,3.55-2.24,2.29-5.16,3.06-7.79.95-2.76-2.21-3.06-5.45-4.56-8.43-.8-1.58-1.9-3.03-2.74-4.59-1.51-2.78-1.24-5.7-.33-8.59Z"/>
      <path class="cls-4" d="M478.58,26.63c2-4.94,4.46-7.35,10.02-7.37,1.07,3.01,1.26,5.17-.08,8.16l-.14-.07c-6.95,4.37-5.66-3.15-9.8-.71Z"/>
      <path class="cls-7" d="M484.43,22.07c1.23-.52,2.66.06,3.17,1.3.51,1.24-.08,2.66-1.33,3.16-1.23.5-2.63-.09-3.13-1.32-.51-1.22.07-2.63,1.29-3.14Z"/>
      <path class="cls-23" d="M485.48,22.8c.35-.27.85-.21,1.12.14.27.35.22.85-.12,1.13-.23.18-.53.23-.8.13-.27-.11-.46-.35-.51-.64-.04-.29.08-.58.31-.75Z"/>
      <path class="cls-1" d="M488.43,30.2c1.14,3.16,2.63,3.99,5.75,4.76l.52,3.44c-4.55-.71-6.36-3.86-6.27-8.2Z"/>
      <path class="cls-9" d="M463.48,50.62c-1-3.47,10.14-16.8,15.74-8.28.96.86,1.41,3.3,1.45,4.54.14,4.52-2.26,8.96-5.23,12.21-2.59,2.85-5.66,4.69-9.24,5.96,3.84-3.59,4.95-5.04,7.74-9.59,1.51-2.47,3.53-3.73,3.67-7.39,0-.21.01-.42.02-.64-.22.52-1.35,3.2-1.63,3.48-.95,1.56-3.17,3.51-5.12,2.9l-.21-.32c.21-.53.48-.7.91-1.05,1.24-1.81,1.46-2.49,2.01-4.56-.62.84-1.22,1.91-1.91,2.65-1.2,1.59-3.22,3.5-5.35,2.25-.34-.51-.31-.31-.25-.82.09-.08.47-.46.54-.5,1.73-1.46,2.13-2.16,2.86-4.19l-1.54,1.51c-1.24,1.38-2.52,2.68-4.47,1.84Z"/>
      <path class="cls-2" d="M463.48,50.62c-1-3.47,10.14-16.8,15.74-8.28-.74.11-1.72-.68-2.6-1.02-4.33-1.65-10.16,4.45-11.67,8.16-.47.47-.84.92-1.46,1.14Z"/>
      <path class="cls-25" d="M466.63,51.46c2.52.36,2.93-.42,5.05-.93-1.2,1.59-3.22,3.5-5.35,2.25-.34-.51-.31-.31-.25-.82.09-.08.47-.46.54-.5Z"/>
      <path class="cls-36" d="M471.58,52.45c2.14-.44,2.85-1.15,4.42-1.54-.95,1.56-3.17,3.51-5.12,2.9l-.21-.32c.21-.53.48-.7.91-1.05Z"/>
      <path class="cls-36" d="M464.94,49.47c1-.2,1.96-.7,3.01-.69-1.24,1.38-2.52,2.68-4.47,1.84.62-.22.99-.68,1.46-1.14Z"/>
      <path class="cls-37" d="M490.83,18.71c.48-.54.87-.89,1.62-1,6.71-.98,16.35,1.38,21.45,5.88-.61.28-.97.49-1.64.58l-.13.13c-1.87.82-2.13,1.21-2.61,3.19.42,1.17.62,1.57,1.21,2.63-7.89-2.55-11.92-2.76-20.13-2.61.72-2.17.83-3.02.84-5.31-.25-1.08-.63-2.4-.61-3.49Z"/>
      <path class="cls-34" d="M491.44,22.2c7-.19,12.61.41,18.08,5.28.42,1.17.62,1.57,1.21,2.63-7.89-2.55-11.92-2.76-20.13-2.61.72-2.17.83-3.02.84-5.31Z"/>
      <path class="cls-1" d="M490.83,18.71c.48-.54.87-.89,1.62-1,6.71-.98,16.35,1.38,21.45,5.88-.61.28-.97.49-1.64.58-2.5-2.9-10.81-4.92-14.52-5.21-2.21-.17-4.66-.11-6.91-.25Z"/>
      <path class="cls-34" d="M476.67,7.64c2.51-.98,4.73-.82,7.31-.27,2.09.79,3.04,1.2,4.87,2.5l-1.99.3c-5.63,1.53-9.19,3.5-13.71,7.13-1.29,1.31-1.75,1.89-2.82,3.35-.24-1.49-.33-2.59-.18-4.08.06-.46.2-1.04.3-1.51.28-1.14.68-2.09,1.36-3.04,1.2-2.12,2.65-3.44,4.87-4.38Z"/>
      <path class="cls-37" d="M476.67,7.64c2.51-.98,4.73-.82,7.31-.27,2.09.79,3.04,1.2,4.87,2.5l-1.99.3-1.8-1.11c-.91-.18-.73-.28-1.46.03l-.06.11c-.23.41-.26.46-.58.79-1.79.42-1.95-.25-3.35-.5l.05-.22-.53-.33c-.02-.47.21-.55.61-1l-.66-.15c-.75-.03-1.79.16-2.42-.15Z"/>
      <path class="cls-32" d="M476.67,7.64c2.51-.98,4.73-.82,7.31-.27l-1.32.57.08.22c-.54-.4-2.26-.24-3-.22l-.66-.15c-.75-.03-1.79.16-2.42-.15Z"/>
      <path class="cls-18" d="M479.75,7.94c.73-.02,2.45-.19,3,.22-.3.83-.15.83-.75,1.26-1.19,0-1.07-.29-2.33-.15l-.53-.33c-.02-.47.21-.55.61-1Z"/>
      <path class="cls-26" d="M471.8,12.02c.34.27.69.53,1.04.8l-.11,1.21v.36c.2,1.04.3,1.87.42,2.91-1.29,1.31-1.75,1.89-2.82,3.35-.24-1.49-.33-2.59-.18-4.08.06-.46.2-1.04.3-1.51.28-1.14.68-2.09,1.36-3.04Z"/>
      <path class="cls-22" d="M471.8,12.02c.34.27.69.53,1.04.8l-.11,1.21-.76.06c-.57.33-.99.59-1.53.97.28-1.14.68-2.09,1.36-3.04Z"/>
      <path class="cls-13" d="M470.44,15.06c.54-.37.96-.64,1.53-.97-.04,1.15-.12,1.86-.72,2.85l-.39.22c-.57-.26-.39-.1-.72-.6.06-.46.2-1.04.3-1.51Z"/>
      <path class="cls-34" d="M471.8,12.02c1.2-2.12,2.65-3.44,4.87-4.38.63.31,1.67.12,2.42.15l-1.01,2.6c-.77-.08-1.73-.2-2.49-.23-.71.94-1.55,3-2.76,2.66-.35-.26-.69-.53-1.04-.8Z"/>
      <path class="cls-10" d="M479.1,7.79l.66.15c-.4.45-.63.53-.61,1l.53.33-.05.22c-.28.74-.65,1.67-.86,2.42-.86-.06-1.9-.16-2.75-.18l-1.06,2.57c-.93.13-1.29.21-2.21.09v-.36s.11-1.21.11-1.21c1.21.33,2.04-1.72,2.76-2.66.76.03,1.71.15,2.49.23l1.01-2.6Z"/>
      <path class="cls-25" d="M468.67,77.54c-.52,3.8-1.88,15.49-4.63,17.52-.5.37-1.08.55-1.68.67-3.74,1.21-.79-5.82-.38-7.08.68-2.04,1.33-4.09,1.95-6.15,1.14-.05,1.97-.49,3.02-.93.5-1.85.61-2.41,1.72-4.02Z"/>
      <path class="cls-14" d="M461.98,88.64c2.06-.41,1.93-.54,3.54-2.08-.49,2.24-1.03,4.46-1.88,6.61-.33.83-1.47,1.89-1.44,2.43l.16.13c-3.74,1.21-.79-5.82-.38-7.08Z"/>
      <path class="cls-17" d="M466.95,81.56c-.36,1.35-.93,3.79-1.43,5-1.6,1.54-1.48,1.68-3.54,2.08.68-2.04,1.33-4.09,1.95-6.15,1.14-.05,1.97-.49,3.02-.93Z"/>
      <path class="cls-8" d="M491.43,30.1l-.39-.65c.28-.34.58-.42,1.06-.43,5.68-.12,12.25.46,17.53,2.41-.05.38-.07.87-.22,1.18l.16.78c-2.83.09-5.85-.35-8.78-.16-4.33.29-6.54.68-9.35-3.13Z"/>
      <path class="cls-29" d="M491.43,30.1c5.11,1.81,10.48.77,15.73,1.84.55.11,1.96.29,2.25.66l.16.78c-2.83.09-5.85-.35-8.78-.16-4.33.29-6.54.68-9.35-3.13Z"/>
      <path class="cls-14" d="M460.28,79.1c.98-.03,2.63-.65,3.25-.53l-.13.37c-.5,1.99-2.85,11.06-4.22,11.96-.42.28-1,.46-1.5.37-.45-.08-.77-.32-.99-.72-.65-1.19.11-3.21.55-4.36.85-2.18,1.85-5.13,3.04-7.1Z"/>
      <path class="cls-17" d="M460.28,79.1c.98-.03,2.63-.65,3.25-.53l-.13.37-.28-.05c-.84.82-2.46,3.3-3.21,4.38.14-.82.81-3.62.37-4.18Z"/>
      <path class="cls-27" d="M472.03,2.36c1.29-.69,1.25.13,2.56-.1.38-.07.54-.13,1.02-.19.92,1.81,1.96,1.92,1.9,3.3-.43.55-.22.37-1.02.63-.9.46-2.19,1.06-3.03,1.57-.74.7-1.3,1.42-2.35,1.1-.49-.71-.36-.45-.41-1.39-.49-.21-.55-.24-.81-.71-.05-.64.24-1.03.54-1.61-.3-.56-.24-.7-.06-1.24.5-.46.58-.47,1.26-.53l.38-.84Z"/>
      <path class="cls-22" d="M472.03,2.36c1.29-.69,1.25.13,2.56-.1.38-.07.54-.13,1.02-.19.92,1.81,1.96,1.92,1.9,3.3-.43.55-.22.37-1.02.63-1.56-.29-4.93-.59-4.84-2.79l.38-.84Z"/>
      <path class="cls-28" d="M472.03,2.36c1.29-.69,1.25.13,2.56-.1.38-.07.54-.13,1.02-.19-.89,2.46-2.13.75-3.58.29Z"/>
      <path class="cls-36" d="M470.44,4.97c.76.78,1.65,1.73,2.49,2.39l.53.2c-.74.7-1.3,1.42-2.35,1.1-.49-.71-.36-.45-.41-1.39-.49-.21-.55-.24-.81-.71-.05-.64.24-1.03.54-1.61Z"/>
      <path class="cls-14" d="M470.71,7.29c.84-.02,1.39,0,2.22.08l.53.2c-.74.7-1.3,1.42-2.35,1.1-.49-.71-.36-.45-.41-1.39Z"/>
      <path class="cls-15" d="M468.7,55.16c.65.22,1.41.36,2.09.51l.8-.08c1.05,1.37-5.55,7.64-6.94,8.57-.17.11-.34.22-.52.31l-.2-.49.29-.59c-.61.1-.15.28-1.02.13,1.92-2.99,3.54-5.1,5.51-8.37Z"/>
      <path class="cls-14" d="M470.79,55.67l.8-.08c1.05,1.37-5.55,7.64-6.94,8.57-.17.11-.34.22-.52.31l-.2-.49.29-.59c1.95-1.3,5.27-5.77,6.57-7.72Z"/>
      <path class="cls-14" d="M470.53,83.24c.48-1.41,1-3.07,1.64-4.38-.18,2.99.02,12.67-4.08,12.96-.66-.6.91-6.61,1.1-7.89.02-.8.2-1.51.38-2.28l.16-.08c.2.71.28,1.13.8,1.68Z"/>
      <path class="cls-17" d="M469.2,83.92c.02-.8.2-1.51.38-2.28l.16-.08c.2.71.28,1.13.8,1.68-.2.56-.14.75-.56.98l-.07-.06c-.24-.19-.28-.24-.57-.34l-.13.1Z"/>
      <path class="cls-6" d="M465.19,54c.34.19,2.07.83,1.89,1.2-1.51,3.13-4.5,6.97-6.75,9.54-.32.4-.44.5-.84.82-.76-1.54,4.63-9.87,5.71-11.56Z"/>
      <path class="cls-15" d="M495.57,43.74c.86,4.17-1.18,11.06-3.55,14.67-1.01,1.56-2.26,2.95-3.69,4.14l.03-.53c.44-.52.86-1.04,1.28-1.58,2.28-3.03,4.9-9.37,4.37-13.14.86-1.29,1.21-2.05,1.57-3.55Z"/>
      <path class="cls-8" d="M478.48,16.49c-.21-.37-.23-.36-.22-.77.78-.92,1.84-1.69,3.11-1.72.26,0,.48.45.64.68l.99,2.04.64,1.44c-1.08.62-2.17,1.24-3.23,1.87l-.75-1.54c-.41-.79-.68-1.27-1.17-2Z"/>
      <path class="cls-22" d="M482.99,16.72l.64,1.44c-1.08.62-2.17,1.24-3.23,1.87l-.75-1.54c1.05-.5,2.31-1.21,3.34-1.77Z"/>
      <path class="cls-1" d="M478.48,16.49c-.21-.37-.23-.36-.22-.77.78-.92,1.84-1.69,3.11-1.72.26,0,.48.45.64.68-1.47.56-2.16.99-3.52,1.81Z"/>
      <path class="cls-34" d="M474.51,18.34c.91-.82,1.73-1.47,2.7-2.22l1.53,2.77.91,1.62c-.94.71-1.78,1.35-2.66,2.13l-1.02-1.56c-.5-.88-.99-1.83-1.46-2.73Z"/>
      <path class="cls-16" d="M478.74,18.89l.91,1.62c-.94.71-1.78,1.35-2.66,2.13l-1.02-1.56c.94-.47,1.96-1.46,2.77-2.18Z"/>
      <path class="cls-22" d="M482.5,13.92l-.05-.42c.44-.7,1.91-1.09,2.72-1.11.45-.01.54.27.82.59.38.76.9,1.73,1.2,2.51.28.67.4.6.19,1.15-1.11.89-1.18.85-2.63.87-.49-.32-.38-.33-.64-.92-.39-.94-.9-1.94-1.62-2.66Z"/>
      <path class="cls-24" d="M487.19,15.49c.28.67.4.6.19,1.15-1.11.89-1.18.85-2.63.87-.49-.32-.38-.33-.64-.92,1.01-.34,2.06-.74,3.07-1.1Z"/>
      <path class="cls-28" d="M482.5,13.92l-.05-.42c.44-.7,1.91-1.09,2.72-1.11.45-.01.54.27.82.59-.74.22-2.89.93-3.49.94Z"/>
      <path class="cls-24" d="M473.72,19.12c.46.49,1.98,3.43,2.55,4.31-.62.63-1.36,1.48-1.96,2.15-1.15-.58-2.17-3.07-2.67-4.25.53-.67,1.47-1.58,2.08-2.22Z"/>
      <path class="cls-34" d="M486.62,12.29c.08-.82,1.73-.8,2.36-.76.57.04.68.4.96.82l.91,1.85.72,1.76c-.92.2-1.95.39-2.86.62l-.81-1.86c-.44-.98-.73-1.51-1.29-2.43Z"/>
      <path class="cls-16" d="M490.85,14.2l.72,1.76c-.92.2-1.95.39-2.86.62l-.81-1.86c1.14-.06,1.86-.19,2.94-.52Z"/>
      <path class="cls-32" d="M486.62,12.29c.08-.82,1.73-.8,2.36-.76.57.04.68.4.96.82-1.01.04-2.36.15-3.32-.06Z"/>
      <path class="cls-19" d="M470.73,22.42c.28.19,2.16,3.37,2.78,4.15l-1.21,1.79-.26.16c-1.11-.37-1.91-2.94-2.28-4.03.27-.76.59-1.35.97-2.07Z"/>
      <path class="cls-5" d="M459.92,60.39c.26-1.3,1.56-8.03,2.63-8.44l.77.39c.18.11.63.3.61.51-.18,1.45-1.7,3.92-2.56,5.08-.38.9-.9,1.64-1.44,2.46Z"/>
      <path class="cls-36" d="M463.32,52.34c.18.11.63.3.61.51-.18,1.45-1.7,3.92-2.56,5.08-.16-1.24,1.39-4.45,1.96-5.59Z"/>
      <path class="cls-15" d="M475.26,27.17s0,.08,0,.12c-.64,2.95-.48,8.65-2.58,10.7-.01-.04-.03-.07-.04-.11.78-1.81.53-7.94,1.42-9.15.38-.53.78-1.05,1.2-1.56Z"/>
      <path class="cls-20" d="M466.52,66.57s1.89,2.02,2.2,2.29c-.92.19-1.84.38-2.76.56l-2.36.59,1.21-2.82,1.71-.63Z"/>
      <path class="cls-16" d="M491.15,12.36l-.45-.66.11-.29c1.7-.39,2.82,1.74,3.35,2.98.27.46.46.65.38,1.16-.43.37-1.2.33-1.82.38-.45-1.19-1.05-2.42-1.58-3.58Z"/>
      <path class="cls-1" d="M491.15,12.36l-.45-.66.11-.29c1.7-.39,2.82,1.74,3.35,2.98l-.28.09c-.96-.47-1.74-1.41-2.72-2.13Z"/>
      <path class="cls-15" d="M497.46,43.65c2.23,2.72.09,8.52-1.37,11.23l-.24.29c-.04-.21.86-3.49.98-4.05.55-2.59.59-4.84.64-7.47Z"/>
      <path class="cls-20" d="M509.63,31.42c2.95.95,4.49,1.73,6.97,3.6-2.61-.81-4.34-1.25-7.04-1.63l-.16-.78c.16-.32.18-.81.22-1.18Z"/>
      <path class="cls-34" d="M513.9,23.59c2.5,2.3,3.66,4.27,4.9,7.42l-.12-.14c-2.09-2.51-2.92-5.14-6.55-6.58l.13-.13c.67-.09,1.03-.29,1.64-.58Z"/>
      <path class="cls-14" d="M463.19,63.53c.88.15.41-.03,1.02-.13l-.29.59.2.49c-.36.35-2.71,1.49-3.26,1.76.69-.83,1.58-1.97,2.33-2.71Z"/>
      <path class="cls-17" d="M488.33,62.55c-.42.41-.49.61-1,.71.19-.66.42-.69,1.02-1.23l-.03.53Z"/>
      <rect class="cls-7" x="445.66" y="68.39" width="63.55" height="6.05"/>
      <path class="cls-12" d="M473.81,66.89c1.5.08,1.43.35,2.72.96,2.49-2.43,4.83,4.64,2.41,5.09-.8-.9.4-2.29-1.53-4.83-.15.08-.29.15-.44.23.32,1.25,1,3.1.51,4.36-.15.38-.49.64-.89.76-.22.07-.09.05-.42-.11-.48-1.09.09-2.68-.41-3.76-.56-1.2-1.91-1.1-2.98-1.55.17-.59.48-.69,1.01-1.16Z"/>
      <path class="cls-12" d="M485.85,66.33c3.53-.13,5.24,3.62,2.98,6.27-1.5-.41-.01-2.83-.98-4.14-.69-.94-1.68-.98-2.71-1.22l-.02-.27.72-.64Z"/>
      <path class="cls-12" d="M489.37,66.66c2.65.27,3.04,2.83,2.44,4.98l-.58.23c-.44-.48-.25-3.09-1.86-5.2Z"/>
      <rect class="cls-11" x="455" y="74.44" width="20.26" height="23.94"/>
      <text class="cls-3" transform="translate(0 116.12)"><tspan class="cls-30" x="0" y="0">T</tspan><tspan x="25.3" y="0">OUQUE &amp; </tspan><tspan class="cls-31" x="293.37" y="0">T</tspan><tspan x="318.67" y="0">OU</tspan><tspan class="cls-35" x="402.19" y="0">C</tspan><tspan class="cls-21" x="435.07" y="0">AN</tspan></text>
    </g>
  </g>
</svg>