<?xml version="1.0" encoding="UTF-8"?>
<svg id="Layer_2" data-name="Layer 2" xmlns="http://www.w3.org/2000/svg" viewBox="0 0 431 437.78">
  <defs>
    <style>
      .cls-1 {
        fill: #fefefe;
      }

      .cls-2 {
        stroke-width: 8px;
      }

      .cls-2, .cls-3 {
        fill: none;
        stroke: #000;
        stroke-miterlimit: 10;
      }

      .cls-3 {
        stroke-width: 6px;
      }

      .cls-4 {
        font-family: Futura-Bold, Futura;
        font-size: 40px;
        font-weight: 700;
      }
    </style>
  </defs>
  <g id="Layer_2-2" data-name="Layer 2">
    <g>
      <path class="cls-1" d="M242.21,320.61c5.22-2.22,11.69-2.92,17.11-4.46-1.67,11.94-3.81,24.55-6.82,36.22-2.78-4.17-7.28-8.31-7.17-12.99,1.67-1.05,2.67-1.44,3.59-3.18-.7-4.16-4.72-11.52-6.72-15.59Z"/>
      <text class="cls-4" transform="translate(58.4 165.28) rotate(-68.55)"><tspan x="0" y="0">T</tspan></text>
      <text class="cls-4" transform="translate(65.01 146.36) rotate(-58.86)"><tspan x="0" y="0">O</tspan></text>
      <text class="cls-4" transform="translate(83.55 115.87) rotate(-47.27)"><tspan x="0" y="0">U</tspan></text>
      <text class="cls-4" transform="translate(104.55 92.6) rotate(-35.71)"><tspan x="0" y="0">Q</tspan></text>
      <text class="cls-4" transform="translate(133.56 71.85) rotate(-24.08)"><tspan x="0" y="0">U</tspan></text>
      <text class="cls-4" transform="translate(162.46 59.28) rotate(-14.75)"><tspan x="0" y="0">E</tspan></text>
      <text class="cls-4" transform="translate(183.85 53.86) rotate(-8.64)"><tspan x="0" y="0"> </tspan></text>
      <text class="cls-4" transform="translate(196.34 51.25) rotate(-.93)"><tspan x="0" y="0">&amp;</tspan></text>
      <text class="cls-4" transform="translate(229.52 51.41) rotate(7.18)"><tspan x="0" y="0"> </tspan></text>
      <text class="cls-4" transform="translate(242.38 52.79) rotate(13.04)"><tspan x="0" y="0">T</tspan></text>
      <text class="cls-4" transform="translate(262.05 56.55) rotate(22.76)"><tspan x="0" y="0">O</tspan></text>
      <text class="cls-4" transform="translate(294.92 70.44) rotate(34.41)"><tspan x="0" y="0">U</tspan></text>
      <text class="cls-4" transform="translate(320.78 88.35) rotate(44.26)"><tspan x="0" y="0">C</tspan></text>
      <text class="cls-4" transform="translate(339.79 106.5) rotate(54.27)"><tspan x="0" y="0">A</tspan></text>
      <text class="cls-4" transform="translate(358.08 131.32) rotate(65.73)"><tspan x="0" y="0">N</tspan></text>
      <path class="cls-2" d="M115.64,401.99C49.19,366.33,4,296.19,4,215.5,4,98.69,98.69,4,215.5,4s211.5,94.69,211.5,211.5-94.69,211.5-211.5,211.5c-20.53,0-40.38-2.93-59.15-8.38"/>
      <path class="cls-3" d="M201.66,367.14c4.56.41,9.17.62,13.84.62,28.72,0,55.59-7.95,78.51-21.78,44.19-26.65,73.75-75.11,73.75-130.48,0-84.09-68.17-152.26-152.26-152.26S63.24,131.41,63.24,215.5c0,40.9,16.13,78.03,42.37,105.39"/>
      <g>
        <path d="M233.94,170.91c-1.28-4.49-5.84-7.18-10.39-6.12-3.13.73-5.61,3.13-6.45,6.24-.83,3.11.11,6.43,2.46,8.63,2.35,2.21,5.72,2.94,8.76,1.92,4.42-1.49,6.9-6.18,5.63-10.67ZM228.99,172.95c-.98.36-2.08.16-2.88-.53-.8-.68-1.16-1.74-.95-2.77.21-1.03.95-1.86,1.95-2.19,1.5-.49,3.12.32,3.63,1.82s-.27,3.13-1.76,3.67Z"/>
        <path d="M184.34,354.48c2.05,1.23,4.29,2.38,6.39,2.33s4.08-1.32,6.39-1.97c1.6-.46,4.01.1,5.64-.51,2.5-.94,4.13-3.21,5.72-5.1,6.03-.94,12.1-1.55,18.19-1.83,1.59,2.26,3.15,4.68,6.04,5.01,1.06.12,2.11.19,3.15.21,1.68.03,3.18-1.37,4.77-1.65,1.43-.25,2.95.65,4.27.11,2.42-.98,4.62-2.47,6.51-4.56,15.47.06,26.14,1.43,41.34,3.59l12.98-10.22c-20.59-3.46-32.67-4.88-53.4-5.51-4.15-10.37-7.8-12.43-18.73-12.43,11.92-10.18,24.2-18,32.69-31.63,10.58-16.97,16.59-39.29,2.09-56.15-.8-.92-1.62-1.81-2.48-2.68-1.21-5.24-3.28-13.16-3.68-18.28,22.23-1.31,50.44-3.33,71.84,4.88,3.29,1.26,10.4,5.27,14.07,6.89.62-.44,1.15-.82,1.6-1.14,3.41-5.8,2.01-19.6.22-26.09-10.74-38.73-51.16-51.21-86.55-54.23-1.51-5.57-4.04-15.18-9.41-17.97-21.13-10.95-27.58-19.95-52.75-19.65-.24-2.87-.97-5.39-2.06-7.57-1.09-2.17-2.55-4-4.26-5.48s-3.9-2.06-5.65-3.38c-1.91-1.43-4.45-.55-6.79-.11-3.2.6-5.54-1.86-9.26-.05-1.32.65-2.09,2.81-3.24,3.72-1.72,1.35-4.2,1.88-5.3,3.91-1.1,2.03-1.19,4.56-1.42,7.26-.25,2.77-2.41,5.74-.44,8.18,1.31,1.62,1.76,2.39,2,4.17.48,3.48,3.22,5.83,6.5,7.57-9.25,16.41-9.3,25.09-7.22,43.06.24,2.07-2.54,5.56-1.52,10.12,1.77,7.87,5.72,14.59,12.24,19.24-.47,10.38.26,25.03-8.98,31.93-30.25,22.62-42.97,68.43-42.24,104.71,7.29-.19,11.71-.82,18.89-2.44l-7.04,16.94c9.64-2.77,38.74-11.13,47.75-9.38,1.48,1.77,1.24.97,1.11,2.99-.96.58-45.25,11.32-50.84,12.8-5.17,10.51-9,21.88-13.75,32.54-5.82,13.04-14.21,38.27,10.51,33.95-1,3.56-2.9,9.66-.38,12.44,10.5,11.61,23.25-.69,28.11-9.08,0,0,7.92,1.38,9.84-.16,13.9-11.15,16.57-69.33,16.57-69.33ZM202.65,348.56l-2.15.74c-3.02-3.54,2.76-9.09-7.88-20.15,10.97-.67,13.5,10.87,10.03,19.42ZM227.26,337.01c-5.08-.05-12.65,1.47-17.8.56-.96-.17-1.1-1.56-1.39-2.56,4.52-.36,16.42-1.33,19.74,1.39l-.55.62ZM240.67,327.34c2.76.89,5.01,2.91,6.2,5.56,1.94,4.32,1.17,8.14-.34,12.34l-1.87.74c-1.94-1.21-1.07-9.25-2.41-12.48-1.21-2.96-1.64-3.68-3.42-6.46.69.06,1.17.09,1.84.3ZM233.45,348.12c-.78-2.9,2.03-7.88.39-12.02-2.47-6.21-6.89-5.22-11.43-7.57,1.1-1.97,1.97-1.94,4.25-3.18,14.17,2.32,18.5,20.82,6.79,22.77ZM230.18,315.26c5.83-5.98,8.79-9.81,13.38-16.74,8.44-14.52,11.34-25.88,12.4-42.41-11.9,12.49-27.13,10.75-36.43-3.9-3.7-5.83-4.37-13.36-7.39-19.32-4.22-8.74-13.08-17.81-14.47-27.64-3.22-22.91,7.82-44.57,31.25-49.37,16.17-.49,6.2,26.48,5.75,34.41-.77,13.39,10.1,19.43,20.88,22.54.42,3.09,1.43,8.35,2.3,11.4,8.99,32.07,2,71.2-27.66,91.03ZM184.07,178.23c-3.29-1.09-7.98-11.77-9.49-14.95l6.7-7.1c1.04.85,7.75,12.1,9.36,14.52l-6.57,7.54ZM187.38,184.66c-.04,1.67-.79,6.69-1.08,8.37-1.63,9.1-.11,25.17-8.14,31.05-.44-1.41,1.04-6.1,1.3-8.13,1.58-12.73-.28-20.76,7.93-31.28ZM185.11,152.55c2.73-2.35,5.83-4.72,8.66-6.99,1.96,1.08,7.65,12.31,9.15,15.08-2.67,1.84-5.84,4.58-8.42,6.68-3.01-2.87-7.37-11.06-9.39-14.77ZM217.3,152.11c-3.54,1.8-6.98,3.81-10.43,5.78-1.1-.98-7.72-12.96-9.08-15.23,3.61-2.35,6.67-3.92,10.48-5.89,3.2,1.69,7.23,11.53,9.03,15.34ZM213.35,134.57c3.32-1.55,6.61-2.58,10.07-3.74,3.12,2.25,6.68,12.22,7.99,16.22-3.18.77-6.38,1.89-9.51,2.91-.72-.46-7.35-13.31-8.55-15.39ZM286.37,205.78c-18.87.36-32.11,6.38-43.09-14.19,29.85-.49,59.24,1.21,86.29,16.74,1.78,1.02,2.35,1.23,2.71,2.83-14.7-4.14-30.69-5.67-45.9-5.38ZM343.35,197.32c-5.14-8.37-7.85-12.24-15.41-18.6-14.73-9.28-21.28,2.96-13.14,16.32-25.3-9.12-46-9.63-72.21-9.34,2.84-8.29,3.92-13.92,1.99-22.7-.55-2.51-1.27-5.76-1-8.28,1.09-2.13,2.43-2.82,4.37-4.14,36.35-2.11,82.4,7.8,95.4,46.74ZM257.66,143.47l-4.96.11c-3.98-1.73-7.21-11.37-9.37-15.93,9.25.85,11.01,8.29,14.33,15.82ZM245.95,143.97l-7.5,1.35-1.46.18c-1.7-.89-7.23-13.26-8.42-15.69,1.32-1.25,4.24-1.26,6.26-1.5,6.17-.54,9.1,10.5,11.13,15.66ZM170.02,105.69c-.24-1.65-1.2-4.28-.93-5.03.54-1.51,3.65-1.32,5.19-1.97,1.15-.49.7-3.56,1.99-4.63,1.89-.46,4.45.86,6.29,1.05,1.83.19,2.69-.16,4.96-.41,2.01.32,3.76,2.24,3.75,4.4,0,1.45,2.63,1.84,3.28,3.09.78,1.52.8,2.77.75,4.01-1.43.93-9.54,4.12-12.31,6.16-3.7,2.93-5.92,5.86-11,4.72-1.18-.89-.5-2.3-.95-3.19-.67-1.32-2.96-2.59-2.8-3.94.22-1.87,2.08-2.17,1.78-4.26ZM170.33,141.11c1.6-5.24,2.72-7.53,5.19-12.47-.49,6.91-1.32,16.3,3.05,21.89l.12-.63c1.9-10.82-2.36-25.35,8.78-32.9,11.52-7.81,28.78-5.11,40.54.41,2.62,1.56,5.27,3.07,7.75,4.84-23.05,3.86-40.14,12.37-57.19,28.28-3,3.34-6.03,6.65-9.11,9.92-.42-7.33-.81-12.12.87-19.34ZM170.95,168.19c1.48,1.15,6.72,10.7,9.73,14.35-1.36,1.97-2.71,4.16-4.02,6.17l-.44.4-1.33-.21c-5.8-5.29-7.98-13.75-3.95-20.72ZM130.1,321.98c1.87-20.1,3.88-29.75,10.88-48.49,1.89,1.11,2.19,1.37,3.7,2.95.33,1.55-8.16,26.51-8.7,33.49,4.13-5.51,14.9-22.89,18.67-26.03,1.48-.18,1.63-.06,3.08.44,0,2.11-2.44,5.49-3.65,7.5-6.02,9.73-15.51,22.51-23.99,30.14ZM168.34,274.64c-4.75,2.92-5.72,2.91-11.13,2.11-1.5-1.34-1.34-.8-1.75-2.46,12.26-3.04,12.12-4.15,21.93-13.14,2.12,2.71-6.61,11.99-9.05,13.49ZM178.92,273.85c6.25-3.16,9.8-8.19,14.05-13.49-.67,11.6-11.32,19.48-22.75,18.47l-.61-1.08c1.98-1.91,6.3-2.38,9.31-3.9ZM139.28,323.08h-.52s-.25-.55-.25-.55c10.68-9.6,21.2-19.12,29.36-31.07,3.04-4.44,2.5-4,7.53-5.2l.66.04.33.53c-10,16.43-19.42,27.99-37.12,36.25ZM196.41,277.83c4.23-9,6.9-19.41,4.91-29.4-2.01-10.12-11.88-14.63-21.41-11.82-13.24,3.91-22.55,17.53-29.2,28.89,6.23-2.48,9.21-4.48,14.68-8.14-3.35,5.23-11.77,15.37-18.73,13.26-5.75-5.94,8.24-22.59,12.5-27.08,6.41-6.76,12.58-10.92,21.6-13.33,25.48-3.08,30.53,23.03,23.44,42.2-8.91,24.06-25.09,40.02-49.24,48.48,19.56-14.11,30.51-20.89,41.46-43.05ZM178.68,331.36c.4-1.84,2.03-2.88,3.55-4.21,12.81,1.4,19.85,19.27,8.69,25.23-1.94-3.14.27-8.14-.95-12.87-2.04-7.91-7.9-5.8-11.29-8.14ZM129.25,414.73l-1.54-.51-.22-1.11c5.84-15.61,9.96-32.33,16.84-47.43,0,0,2.33-1.46,2.52-1.58l1.06.55c.26.82.26,1.16-.03,2.02-4.98,14.95-9.26,30.5-14.99,45.15-.44,1.13-2.57,2.32-3.64,2.92ZM151.12,423.7c-2.96,4.76-5.89,6.49-11.26,7.7l-1.01-.28-.06-.84c19.96-15.32,13.4-53.86,25.13-65.51l.68.28.39,1.02c-1.67,11.21-8.89,49.65-13.87,57.64Z"/>
      </g>
    </g>
  </g>
</svg>