<?xml version="1.0" encoding="UTF-8"?>
<svg id="Layer_2" data-name="Layer 2" xmlns="http://www.w3.org/2000/svg" xmlns:xlink="http://www.w3.org/1999/xlink" viewBox="0 0 431.2 439.85">
  <defs>
    <style>
      .cls-1 {
        fill: #522b17;
      }

      .cls-2 {
        fill: #e9e0b5;
      }

      .cls-3 {
        fill: #56899c;
      }

      .cls-4 {
        fill: #95bf70;
      }

      .cls-5 {
        stroke-width: 8px;
      }

      .cls-5, .cls-6 {
        fill: none;
        stroke: #101414;
        stroke-miterlimit: 10;
      }

      .cls-7 {
        fill: #f4aa3b;
      }

      .cls-8 {
        fill: url(#linear-gradient-4);
      }

      .cls-9 {
        fill: url(#linear-gradient-3);
      }

      .cls-10 {
        fill: url(#linear-gradient-2);
      }

      .cls-11 {
        font-family: Futura-Bold, Futura;
        font-size: 40px;
        font-weight: 700;
      }

      .cls-11, .cls-12 {
        fill: #101414;
      }

      .cls-13 {
        fill: #271106;
      }

      .cls-14 {
        fill: #a0734f;
      }

      .cls-6 {
        stroke-width: 6px;
      }

      .cls-15 {
        fill: #327446;
      }

      .cls-16 {
        fill: #33b39b;
      }

      .cls-17 {
        fill: url(#linear-gradient);
      }

      .cls-18 {
        fill: #88b37b;
      }

      .cls-19 {
        fill: #70b2b8;
      }

      .cls-20 {
        fill: #e98b35;
      }

      .cls-21 {
        fill: #564468;
      }

      .cls-22 {
        fill: #b25752;
      }

      .cls-23 {
        fill: #19586a;
      }

      .cls-24 {
        fill: #78b47e;
      }

      .cls-25 {
        fill: #083113;
      }

      .cls-26 {
        fill: #b88a61;
      }

      .cls-27 {
        fill: #e5f2f3;
      }

      .cls-28 {
        fill: #80456e;
      }

      .cls-29 {
        fill: #cd5244;
      }

      .cls-30 {
        fill: #164c49;
      }

      .cls-31 {
        fill: #fefefe;
      }

      .cls-32 {
        fill: #298594;
      }

      .cls-33 {
        fill: #a14654;
      }

      .cls-34 {
        fill: #785235;
      }

      .cls-35 {
        fill: #31768b;
      }

      .cls-36 {
        fill: #c7dfa7;
      }

      .cls-37 {
        fill: #1f5c56;
      }

      .cls-38 {
        fill: #288e7a;
      }

      .cls-39 {
        fill: #438754;
      }

      .cls-40 {
        fill: #eec770;
      }

      .cls-41 {
        fill: #f9f5e1;
      }

      .cls-42 {
        fill: #ea7531;
      }

      .cls-43 {
        fill: #694431;
      }

      .cls-44 {
        fill: #092a1b;
      }

      .cls-45 {
        fill: #14532d;
      }

      .cls-46 {
        fill: #0e3d3f;
      }

      .cls-47 {
        fill: #93944e;
      }

      .cls-48 {
        fill: #7ca45e;
      }

      .cls-49 {
        fill: #f3b82c;
      }

      .cls-50 {
        fill: #9cced4;
      }

      .cls-51 {
        fill: #1c7465;
      }
    </style>
    <linearGradient id="linear-gradient" x1="305.29" y1="605.24" x2="315.62" y2="495.04" gradientTransform="translate(0 731.81) scale(1 -1)" gradientUnits="userSpaceOnUse">
      <stop offset="0" stop-color="#7cc3c3"/>
      <stop offset="1" stop-color="#c9e4e9"/>
    </linearGradient>
    <linearGradient id="linear-gradient-2" x1="360.06" y1="468.28" x2="408.58" y2="441.2" gradientTransform="translate(0 731.81) scale(1 -1)" gradientUnits="userSpaceOnUse">
      <stop offset="0" stop-color="#0e5468"/>
      <stop offset="1" stop-color="#326c7e"/>
    </linearGradient>
    <linearGradient id="linear-gradient-3" x1="243.18" y1="326.99" x2="253.07" y2="322.37" gradientTransform="translate(0 731.81) scale(1 -1)" gradientUnits="userSpaceOnUse">
      <stop offset="0" stop-color="#d6f4f5"/>
      <stop offset="1" stop-color="#fcffff"/>
    </linearGradient>
    <linearGradient id="linear-gradient-4" x1="77.81" y1="405.02" x2="83.96" y2="398.92" gradientTransform="translate(0 731.81) scale(1 -1)" gradientUnits="userSpaceOnUse">
      <stop offset="0" stop-color="#9cbd60"/>
      <stop offset="1" stop-color="#89a86c"/>
    </linearGradient>
  </defs>
  <g id="Layer_1-2" data-name="Layer 1">
    <g>
      <g>
        <path class="cls-12" d="M207.02,5.93c-.08,0-.15,0-.23,0-1.84.09-7.34.34-9.17.6-.08,0-.15.02-.23.03,3.2-.28,6.41-.49,9.63-.62Z"/>
        <path class="cls-12" d="M354.37,59.92c-.12-.11-.23-.23-.35-.34-.1-.09-.2-.17-.29-.25.22.2.43.4.64.59Z"/>
        <path class="cls-12" d="M421.2,195.5c-6.36-4.82-15.39-13.04-21.69-18.42-1.99.76-19.66,20.77-23.72,22.92-1.04.55-5.97,5.85-7.93,7.19-2.21,2.34-5.04,5.16-7.08,7.56-7.68,10.27-10.76,13.13-20.3,21.54l-1.13.34c-4.45,3.8-7.71,6.38-12.47,9.76-5.58,3.02-13.16,8.55-16.31,14.04l.39,1.24c-2.3.16-5.09.42-7.35.47l-1.16-2.76c-1.91-5.36-3.07-11.13-5.03-16.63,2.27-1.01,2.67-1.27,3.98-3.32-.15-1.53.11-2.08.52-3.59l.03-2.34c-3.36-.75-24.62,11.25-27.3,10.99l-.26-1.19c-2.99-7.06-4.61-8.78-9.64-14.28-1.41-6.02-3.07-12.36-3.65-18.48,24.51-1.28,66.29-4.11,86.19,11.97,2.28.29,1.44.51,3.17-.72,1.66-2.86,1.87-5.36,2.05-8.65.91-15.57-4.41-30.86-14.78-42.51-18.71-20.84-48.11-29.11-75.2-30.57-2.55-8.56-3.88-11.13-8.9-18.54-4.52-3.22-5.92-3.45-11.49-4.51-8.53-8.47-15.22-11.24-26.29-14.9l-.3-33.48c3.72.17,7.34.16,11.05.17-18.11-3.44-51.01,4.01-67.96,11.41-1.47,13.84-8.46,28.3-15.06,40.33-1.7,2.85-2.64,4.28-4.7,6.87-5.51,6.65-8.33,8.89-14.11,14.76-1.86,1.41-3.58,2.85-5.64,3.92-5.87,3.61-9.13,5.02-15.49,7.72-.82.17-5.14,1.01-5.69,1.21-5.19,1.19-9.56,1.53-14.89,1.27-2.18,5.43-3.79,9.82-5.58,15.39-2.25.19-5.92.38-7.66-1.13-1.87,1.47-7.6.39-11.24,1.31-11.64,3.64-15.74,9.55-20.27,20.57-3.96-8.85-9.82-16.12-19.15-19.65-1.8-.67-6.93-4.58-7.42-2.73-4.21,16.08-7.94,47.27-6.43,65.29,4.83,57.65,33.63,104.56,77.31,144.69,6.98,5.88,20.53,11.43,30.2,18.23,1.21.85-2.8,5.28-2.78,8.15-.62,19.88,7.63,12.28,14.66,16.77,0,4.64-.88,10.86,3.08,13.73,11.35,8.21,23.27-2.55,28.07-11.72,2.59.64,12.68-6.09,15.05-5.53,18.99,4.43,23.64,4.35,45.12,4.82,59.96-1.43,105.08-19.7,147.58-61.41,40.12-42.29,60.62-93.31,58.72-151.57"/>
      </g>
      <path class="cls-17" d="M315.59,108.9c5.37,5.23,19.63,15.97,23.51,22.38,13.39,20.44,20.16,36.59,24.13,61.26,1.18,7.37,1.01,10.82,1.94,17.46-7.68,10.27-15.13,17.87-24.68,26.28l-1.13.34c-4.45,3.8-7.71,6.38-12.47,9.75-5.58,3.02-13.16,8.55-16.31,14.04l.39,1.24c-2.3.16-5.09.42-7.35.47l-1.16-2.76c-1.91-5.36-3.07-11.13-5.03-16.63,2.27-1.01,2.67-1.27,3.98-3.32-.15-1.53.11-2.08.52-3.59l.03-2.34c-3.36-.75-24.62,11.25-27.3,10.99l-.26-1.19c-2.99-7.06-4.61-8.78-9.64-14.28-1.41-6.02-3.07-12.36-3.65-18.48,24.51-1.28,66.3-4.11,86.19,11.98,2.28.29,1.44.51,3.17-.72,1.66-2.86,1.87-5.36,2.05-8.65.91-15.57-4.4-30.86-14.78-42.51-18.71-20.84-48.11-29.11-75.2-30.57-2.55-8.56-3.88-11.13-8.9-18.54l.47-.98c3.33,3.5,4.47,6.17,6.79,10.3,1.9.47,6.54,1.82,7.97.48,4.29-4.03,3.74-8.66,11.48-5.91,3.97-5.8,6-4.96,12.07-4.2,2.62.33,7.52-6.12,9.25-8.17,3.39-4.01,9.01-3.82,13.91-4.14Z"/>
      <path class="cls-3" d="M310.31,221.55l1.11-1.01c3.25,1.07,15.76,9.62,20.35,12.11,2.38,1.12,5.53,2.48,7.6,3.98-4.45,3.8-7.71,6.38-12.47,9.75-5.58,3.02-13.16,8.55-16.31,14.04l.39,1.24c-2.3.16-5.09.42-7.35.47l-1.16-2.76c-1.91-5.36-3.07-11.13-5.03-16.63,2.27-1.01,2.67-1.27,3.98-3.32-.15-1.53.11-2.08.52-3.59l.3.52.73.15c4.02-4.02,5.2-7.27,7.01-12.48l.35-2.48Z"/>
      <path class="cls-19" d="M310.31,221.55l1.11-1.01c3.25,1.07,15.76,9.62,20.35,12.11-3.24-.07-10.38-.61-13.05.59-2.81-1.59-6.63-6.61-8.76-9.22l.35-2.48Z"/>
      <path class="cls-50" d="M309.96,224.02c2.13,2.61,5.95,7.62,8.76,9.22l1.82,2.35-.34.67c-3.13-.96-6.31-3.05-9.17-4.73-3.23,2.6-6.44,5.23-9.62,7.89-.15-1.53.11-2.08.52-3.59l.3.52.73.15c4.02-4.02,5.2-7.27,7.01-12.48Z"/>
      <path class="cls-35" d="M306.19,247.46c1.35,3.8,3.42,9.22,4.38,12.96l.39,1.24c-2.3.16-5.09.42-7.35.47l-1.16-2.76c1.73-3.21,2.8-8.26,3.74-11.91Z"/>
      <path class="cls-27" d="M319.01,107.96c5.37,5.23,16.21,16.92,20.08,23.32,2.81.03-23.79-.29-27.78.14-8.51-.26-16.76-.1-25.27.03-3.84-.35-11.13.79-13.97-1-.58-4.35,5.28-4.65,8.28-5.04,3.97-5.8,6-4.96,12.07-4.2,2.62.33,7.52-6.12,9.25-8.17,3.39-4.01,12.43-4.76,17.34-5.08Z"/>
      <path class="cls-31" d="M274.4,243.29c1.29-2.51,31.86-21.96,35.4-22.92l.51,1.18-.35,2.48c-1.8,5.2-2.98,8.46-7.01,12.48l-.73-.15-.3-.52.03-2.34c-3.36-.75-24.62,11.25-27.3,10.99l-.26-1.19Z"/>
      <path class="cls-19" d="M286.05,131.45c8.51-.14,16.76-.29,25.27-.03-10.41,3.51-15.37,2.42-25.27.03Z"/>
      <path class="cls-19" d="M215.54,65.19c3.72.17,8.09,0,11.81,0,33.38,1.76,67.59,20,91.67,42.77-4.91.32-13.95,1.07-17.34,5.08-1.73,2.04-6.63,8.49-9.25,8.17-6.07-.76-8.1-1.6-12.07,4.2-7.74-2.75-7.2,1.88-11.48,5.91-1.43,1.34-6.07-.02-7.97-.48-2.32-4.13-3.47-6.8-6.79-10.3l-.47.98c-4.52-3.22-5.93-3.45-11.49-4.51-8.53-8.47-15.22-11.24-26.29-14.9l-.33-36.92Z"/>
      <path class="cls-27" d="M259.99,91.59c9.05-1.11,7.27.7,13.24,5.93.51.45,5.18,1.42,6.23,1.63l.18,2.2.22.16c-6.3,1.29-10.19,1.07-16.66.98-4.76-.07-15.65.94-19.48-.77l-.37-1.11c2.55-3.43,6.87-3.23,10.86-3.69,1.95-2.23,3.49-3.44,5.78-5.33Z"/>
      <path class="cls-25" d="M159.22,76.3c-1.47,13.84-9.02,32.2-15.62,44.23-1.7,2.85-2.64,4.28-4.7,6.87-5.51,6.65-8.33,8.89-14.11,14.76-1.86,1.41-3.58,2.85-5.64,3.92-5.87,3.61-9.13,5.02-15.49,7.72-.82.17-5.14,1.01-5.69,1.21-5.19,1.19-16.19,1.62-21.53,1.36.92-1.91,1.4-3.78,2.21-5.73,5,.02,14.89-.66,19.74-1.6l4.51-1.39-.32-9.17c-.77-3.75-.69-9.63-.77-13.61,4.13-6.25,13.06-15.03,18.6-20.11,1.73-1.5,3.49-2.98,5.26-4.43,4.06-3.35,8.48-6.3,12.81-9.3.89-.64,3.82-2.32,4.89-2.97,2.95-2.06,8.09-8.79,11.4-10.12l4.44-1.65Z"/>
      <path class="cls-39" d="M119.86,98.26c.89,2.44.93,15.38.63,18.15-3.03,1.71-2.33,5.52-1.63,8.62,1.5,1.57.89,10.6.84,13.47-4.93,4.4-10.67,6.83-16.79,9.15l-1.18-12.61c-.77-3.75-.64-14.09-.72-18.07,4.13-6.25,13.32-13.64,18.85-18.71Z"/>
      <path class="cls-4" d="M108.3,121.46c3.62,1.88,6.5,3.67,10.57,3.57,1.5,1.57.89,10.6.84,13.47-4.93,4.4-10.67,6.83-16.79,9.15l-.32-9.17c.2-3.13.05-7.44.03-10.66.42.66.87,1.3,1.34,1.92,2.23,2.89,3.66,4.92,7.22,5.38l1.04-1.21c.81-4.91-1.57-8.09-3.93-12.45Z"/>
      <path class="cls-39" d="M138.49,84.95c.13,7.8.82,24.61.67,32.02l-.48.47-2.95-.02c-3.12,3.26-4.45,3.23-8.74,1.29-1.28,1.6-1.24,3.95-1.53,6.21-.04,2.17-.27,7.16,0,9.09-1.41,1.28-3.27,3.19-4.92,3.98l-.83.51c.05-2.87.66-11.89-.84-13.47-.7-3.1-1.4-6.91,1.63-8.62.3-2.78.26-15.72-.63-18.15,3.18-3.34,5.78-5.87,7.55-7.32,4.06-3.35,6.74-2.99,11.07-5.99Z"/>
      <path class="cls-45" d="M120.53,97.56c1.73-1.5,3.99-3.55,5.76-5l-.84,32.36c-.04,2.17-.27,7.16,0,9.09-1.41,1.28-3.27,3.19-4.92,3.98l-.83.51c.05-2.87.66-11.89-.84-13.47-.7-3.1-1.4-6.91,1.63-8.62.3-2.78.93-16.42.04-18.85Z"/>
      <path class="cls-18" d="M118.86,125.03c-.7-3.1-1.4-6.91,1.63-8.62-.03,7.19-.02,14.38.04,21.58l-.83.51c.05-2.87.66-11.89-.84-13.47Z"/>
      <path class="cls-45" d="M143.38,82.71c.11,3.45.26,23.12.9,25.56-1.69,3.21-3.2,5.66-5.12,8.7.16-7.41-.54-24.22-.67-32.02.89-.64,3.82-1.59,4.89-2.23Z"/>
      <path class="cls-39" d="M153.88,78.42c-2.07,9.32-5.98,20.98-9.61,29.85-.64-2.44-.79-22.11-.9-25.56,2.95-2.06,7.19-2.96,10.5-4.3Z"/>
      <path class="cls-18" d="M125.45,124.92c.3-2.26.26-4.61,1.53-6.21,4.29,1.94,5.62,1.97,8.74-1.29l2.95.02c-4.29,7.25-7.31,10.51-13.23,16.57-.27-1.93-.04-6.93,0-9.09Z"/>
      <path class="cls-18" d="M94.98,124.27c1.6-2.53,4.12-5,6.04-7.3.08,3.98.8,17.76,1.57,21.51l.32,9.17-4.51,1.39c-4.85.94-14.74,1.61-19.74,1.6,2.67-6.02,12.67-20.75,16.32-26.37Z"/>
      <path class="cls-45" d="M94.98,124.27c1.6-2.53,4.12-5,6.04-7.3.08,3.98.8,17.76,1.57,21.51l.32,9.17-4.51,1.39c-.57-4.43-2.01-21.57-3.42-24.77Z"/>
      <path class="cls-10" d="M367.87,207.18c1.96-1.34,6.89-6.64,7.93-7.19,4.06-2.14,21.72-22.15,23.72-22.92,6.3,5.38,15.33,13.6,21.69,18.42.4,3.45.57,6.22.7,9.69.94,5.48.19,29.57-.64,35.02-1.18,8.47-.34,17.8-2.47,26.08-.75,2.25-2.8,6.69-2.91,9.02-3.02,8.55-7.54,17.56-10.98,25.87-2.96,6.44-5.83,12.98-9.36,19.11-1.04,1.71-5.28,8.87-6.26,10.06-3.79.03-23.58,1.57-25.96,3.16l-.07.72c-10.31-12.53-29.51-10.62-39.1,2.72-15.2,2.32-16.04,2.5-30.53-2.05,7.23-3.84,11.44-6.31,18.48-10.83,18.58,4.32,30.54,0,41.04-16.02,1.76-3.43,3.04-7.28,4.37-10.92-9.56-3.59-16.8-4.38-26.77-2.33-1.45.48-5.74,1.81-6.88,2.4l-4.66,2.91c-3.04-1.1-5.77-2.68-8.61-4.22-.31-3.08-.49-6.25-.7-9.35-1.61-4.85-2.5-6.87-4.82-11.42-4.05,2.44-6.54,4.27-10.28,7.11-1.72,1.77-3.56,3.6-5.21,5.41-1.57-.63-18.45-3.19-21.26-3.64l2.26-4.17c.98-2.34,2.01-5.48,2.9-7.93.97-3.15,1.71-7.28,2.4-10.57l.2-6.93c-.03-3.21-.8-6.75-1.39-9.94,2.67.27,23.94-11.74,27.3-10.99l-.03,2.34c-.41,1.51-.67,2.06-.52,3.59-1.31,2.05-1.72,2.31-3.98,3.32,1.96,5.5,3.12,11.27,5.03,16.63l1.16,2.76c2.26-.04,5.05-.31,7.35-.47l-.39-1.24c3.15-5.49,10.74-11.02,16.31-14.04,4.76-3.38,8.03-5.96,12.47-9.75l1.13-.34c9.54-8.41,12.62-11.26,20.3-21.54,2.04-2.4,4.87-5.23,7.08-7.56Z"/>
      <path class="cls-31" d="M274.66,244.47c2.67.27,23.94-11.74,27.3-10.99l-.03,2.34c-.41,1.51-.67,2.06-.52,3.59-1.31,2.05-1.72,2.31-3.98,3.32,1.96,5.5,3.12,11.27,5.03,16.63l1.16,2.76c2.26-.04,5.05-.31,7.35-.47,8.65-.58,20.09-2.61,28.78-3.98l13.49-2.54c1.59-.05,6.77-1.07,8.61-1.39l5.95-1.01c-1.35,2.69-2.05,3.03-1.94,5.66l1.76,1.56c-.62,5.66-5.93,9.77-7.04,15.19l.62.75,3.59-.06c.75,2.44-7.56,13.78-9.41,16.53,7.14.03,14.49.15,21.61.07l-4.5,7.78c6.15-.19,27.86-.73,32.42.98-2.96,6.44-5.83,12.98-9.36,19.11-1.04,1.71-5.28,8.87-6.26,10.06-3.79.03-23.58,1.57-25.96,3.16l-.07.72c-10.31-12.53-29.51-10.62-39.1,2.72-15.2,2.32-16.04,2.5-30.53-2.05,7.23-3.84,11.44-6.31,18.48-10.83,18.58,4.32,30.54,0,41.04-16.02,1.76-3.43,3.04-7.28,4.37-10.92-9.56-3.59-16.8-4.38-26.77-2.33-1.45.48-5.74,1.81-6.88,2.4l-4.66,2.91c-3.04-1.1-5.77-2.68-8.61-4.22-.31-3.08-.49-6.25-.7-9.35-1.61-4.85-2.5-6.87-4.82-11.42-4.05,2.44-6.54,4.27-10.28,7.11-1.72,1.77-3.56,3.6-5.21,5.41-1.57-.63-18.45-3.19-21.26-3.64l2.26-4.17c.98-2.34,2.01-5.48,2.9-7.93.97-3.15,1.71-7.28,2.4-10.57l.2-6.93c-.03-3.21-.8-6.75-1.39-9.94Z"/>
      <path class="cls-50" d="M353.12,308.06c12.02-.27,24.03-.87,36.01-1.82-10.34,4.32-20.6,8.82-30.78,13.51,12.5.46,24.71.34,37.18.56-1.04,1.71-5.28,8.87-6.26,10.06-3.79.03-23.58,1.57-25.96,3.16l-.07.72c-10.31-12.53-29.51-10.62-39.1,2.72-15.2,2.32-16.04,2.5-30.53-2.05,7.23-3.84,11.44-6.31,18.48-10.83,18.58,4.32,30.54,0,41.04-16.02Z"/>
      <path class="cls-50" d="M321.37,273.08c2.66-3.35,23.54-5.93,29.02-6.79-6.22,2.58-14.03,5.98-20.28,8.1.02,2.96-.2,18.71.6,20.42-1.45.48-5.74,1.81-6.88,2.4l-4.66,2.91c-3.04-1.1-5.77-2.68-8.61-4.22-.31-3.08-.49-6.25-.7-9.35-1.61-4.85-2.5-6.87-4.82-11.42-4.05,2.44-6.54,4.27-10.28,7.11-1.72,1.77-3.56,3.6-5.21,5.41-1.57-.63-18.45-3.19-21.26-3.64l2.26-4.17c.98-2.34,2.01-5.48,2.9-7.93,2.91,2.78,34.26,2.16,40.39,3.17.99.16,3.79-.49,4.79-.9,1.99-.16,1.26.16,2.75-1.11Z"/>
      <path class="cls-35" d="M268.28,284.02l2.26-4.17c7.52.67,16.88,1.25,24.21,2.39-1.72,1.77-3.56,3.6-5.21,5.41-1.57-.63-18.45-3.19-21.26-3.64Z"/>
      <path class="cls-35" d="M309.85,286.55c8.84.5,8.65,5.14,13.98,10.65l-4.66,2.91c-3.04-1.1-5.77-2.68-8.61-4.22-.31-3.08-.49-6.25-.7-9.35Z"/>
      <path class="cls-27" d="M321.37,273.08c1.54,5.11.72,15.06.19,20.44-1.27-6.3-2.72-12.92-2.94-19.33,1.99-.16,1.26.16,2.75-1.11Z"/>
      <path class="cls-19" d="M274.66,244.47c2.67.27,23.94-11.74,27.3-10.99l-.03,2.34c-.41,1.51-.67,2.06-.52,3.59-1.31,2.05-1.72,2.31-3.98,3.32,1.96,5.5,3.12,11.27,5.03,16.63l1.16,2.76-13.56-.18c-1.87-.46-3.65-.39-6.08-1.01-.8-1.74-.3-1.93.36-4.18-2.61-.42-6.46-.69-8.29-2.35-.03-3.21-.8-6.75-1.39-9.94Z"/>
      <path class="cls-23" d="M297.42,242.74c1.96,5.5,3.12,11.27,5.03,16.63l1.16,2.76-13.56-.18c-1.87-.46-3.65-.39-6.08-1.01-.8-1.74-.3-1.93.36-4.18,1.37-3.92,2.76-9.44,3.92-13.56,1.31,5.23,2.51,9.51,4.17,14.64,1.71-4.39,3.51-10.53,5.01-15.11Z"/>
      <path class="cls-3" d="M276.04,254.42c1.83,1.66,5.68,1.93,8.29,2.35-.66,2.25-1.16,2.43-.36,4.18,2.43.62,4.2.55,6.08,1.01-4.16.19-9.97-.32-14.21-.6l.2-6.93Z"/>
      <path class="cls-50" d="M334.19,278.08c5.37.87,15.12,3.76,20.68,5.24l-5.56,2.46c-5.23,2.07-10.49,4.08-15.77,6.03l.65-13.73Z"/>
      <path class="cls-19" d="M367.87,207.18c1.96-1.34,6.89-6.64,7.93-7.19,4.06-2.14,21.72-22.15,23.72-22.92-.03,7.51-1.17,14.18.4,21.73.2.95-1.3,2.85-1.99,3.56-1.67,1.49-6.15,5.3-7.41,6.78-2.21,5.95-3.25,6.8,1.84,11.55.23,1.23.62,2.69-.35,3.73-6.81,7.33-10.22,8.87-14.95,17.96-.76-2.14-1.63-4.88-2.66-6.83-2.14,5.64-4.31,11.64-6.6,17.2l-5.95,1.01c-1.83.32-7.02,1.34-8.61,1.39l-13.49,2.54c-8.68,1.36-20.13,3.4-28.78,3.98l-.39-1.24c3.15-5.49,10.74-11.02,16.31-14.04,4.76-3.38,8.03-5.96,12.47-9.75l1.13-.34c9.54-8.41,12.62-11.26,20.3-21.54,2.04-2.4,4.87-5.23,7.08-7.56Z"/>
      <path class="cls-27" d="M339.36,236.63l1.13-.34.27,2.42c-2.84,2.2-10.48,6.69-13.88,7.68,4.76-3.38,8.03-5.96,12.47-9.75Z"/>
      <path class="cls-50" d="M399.52,177.07c6.3,5.38,15.33,13.6,21.69,18.42.4,3.45.57,6.22.7,9.69-.3,1.07-.12.67-.94,1.51-2.64-.8-11.16-5.61-14.37-7.22l3.42,14.19c-4.06-4.29-7.62-7.41-12.08-11.31.69-.71,2.19-2.61,1.99-3.56-1.57-7.55-.43-14.22-.4-21.73Z"/>
      <path class="cls-50" d="M396.52,250.79c.33,1.99.32,3.27,1.62,4.77,1.78-.04.99.23,2.44-.82l1.5-1.44c4.44,4.13,11.76,15.58,12.69,21.19-3.58-1.1-4.82-1.96-8.06-3.94-1.45,1.59-5.21,6.33-6.77,6.65l-.09-.14c1.48-3.89.66-13.55-2.1-16.74-1.21-1.4-1.58-1.95-2.58-3.62.73-1.84,1-3.95,1.36-5.92Z"/>
      <path class="cls-31" d="M395.16,256.71c1,1.67,1.37,2.22,2.58,3.62,2.77,3.19,3.58,12.85,2.1,16.74l-3.51-7.9c-3.94,2.87-6.5,3.98-10.86,6.05l9.68-18.5Z"/>
      <path class="cls-31" d="M396.52,250.79c-1.42.01-2.01-.12-3.42-.38,1.44-4.18,4.45-13.69,7.21-16.87l.93.13.99,2.7c-.48,6.25-.37,12.29-1.65,18.36-1.45,1.05-.66.79-2.44.82-1.3-1.51-1.29-2.78-1.62-4.77Z"/>
      <path class="cls-31" d="M380.53,251.75c1.95-1.12,5.27-1.12,7.65-1.3l-1.31,3.57c.73,1.42.9,1.61,1.93,2.84.03,3.97-2.46,7.27-4.46,10.93-1.97-3.91-3.41-5-2.02-9.19.14-.42.28-.84.43-1.25-.33-2.21-1.21-3.6-2.22-5.6Z"/>
      <path class="cls-50" d="M402.23,236.38c1.26,2.78,5.52,11.55,5.66,13.97-2.77,2.55-1.91-1.73-5.81,2.95l-1.5,1.44c1.28-6.07,1.17-12.11,1.65-18.36Z"/>
      <path class="cls-27" d="M389.92,279.05c3.22,2.98,6.68,5.89,10,8.76-4.57,3.12-6.25,4.02-11.3,6.28-2.82,1.17-6.15,2.3-9.05,3.37,3.44-6.45,6.54-12.14,10.35-18.41Z"/>
      <path class="cls-4" d="M138.9,127.4c2.06-2.59,3-4.02,4.7-6.87l.32.47c9.58,8.35,11.49,5.3,22.5,2.42-6.63,14.63-7.67,24.61-4.41,40.42-2.71,5.85-3.26,9.29-.89,15.67,2.18,5.83,6.2,10.79,11.46,14.12-2.41,34.75-2.75,23.53-23.59,46l-.6.68c-16.04,23.45-21.19,37.19-26.36,65.7-1.67-.4-6.36-2.65-10.89-3.71l-.62-1.33c-1.77.98-4.64,2.08-5.15,3.59l.12.17c-.78.68-7.39,2.37-8.87,2.86-8.81,2.96-15.89,8.65-22.92,14.48-1.18-13.68-3.1-24.28-12.47-35.11-2.68,7.31-5.93,14.4-8.35,21.87-1.59-5.97-3.71-13.08-4.33-19.12-2.05-10.86-3.22-19.53-3.97-30.54.97-2.41,2.53-2.4,4.84-3.34,5.45,4.12,4.7,7.8,9.09,13.5,1.44,1.27,3.72,3.63,5.4,3.98,2.25-7.99,2.95-11.11,3.07-19.38,2.96,2.62,6.26,4.91,9.46,7.23,1.01.78,6.71,5.07,7.12,5.69,3.7,3.4,5.97,5.21,10.41,7.63,1.79-12.76.64-22.86-5.04-34.37.25-1.79.5-2.53,1.04-4.27,1.07-5.71,2.03-11.57,4.36-16.88,2.43.71,10.19,2.84,11.81,3.91.84-.07,1.36-.31,2.17-.57.7-2.69-1.31-7.89-2.57-10.32-5.23-10.16-13.08-13.65-23.1-17.08-3.54-.49-6.52.57-9.24-.73-1.12-2.16-.61-2.1-.1-5.07.9-3.52,1.07-4.64,1.27-8.27l-5.1-1.17,1.96-10.59c1.79-5.57,2.84-7.27,5.02-12.69,5.33.26,16.34-.16,21.53-1.36.55-.2,4.87-1.04,5.69-1.21,6.36-2.71,9.62-4.11,15.49-7.72,2.07-1.07,3.79-2.51,5.64-3.92,5.78-5.87,8.6-8.11,14.11-14.76Z"/>
      <path class="cls-30" d="M122.92,236.83c7.02-1.65,15.47-4.06,21.5.53,1.22.85,3.01,1.94,3.97,2.94-16.04,23.45-21.19,37.19-26.36,65.7-1.67-.4-6.36-2.65-10.89-3.71l-.62-1.33c-1.77.98-4.64,2.08-5.15,3.59l.12.17c-.78.68-7.39,2.37-8.87,2.86-8.81,2.96-15.89,8.65-22.92,14.48-1.18-13.68-3.1-24.28-12.47-35.11-2.68,7.31-5.93,14.4-8.35,21.87-1.59-5.97-3.71-13.08-4.33-19.12-2.05-10.86-3.22-19.53-3.97-30.54.97-2.41,2.53-2.4,4.84-3.34,5.45,4.12,4.7,7.8,9.09,13.5,1.44,1.27,3.72,3.63,5.4,3.98,2.25-7.99,2.95-11.11,3.07-19.38,2.96,2.62,6.26,4.91,9.46,7.23,1.01.78,6.71,5.07,7.12,5.69,3.7,3.4,5.97,5.21,10.41,7.63,1.79-12.76.64-22.86-5.04-34.37.25-1.79.5-2.53,1.04-4.27,2.11.49,4.55-.81,6.88-1.62,3.74,2.78,5.75,4.57,8.43,8.46.26,2.79.26,6.57,1.88,8.67,3.41,1.84,3.4,1.28,5,4.22-.04,3.96-.64,3.82,1.11,6.73,6.14,3.45,10.83-7.78,13.93-12-2.1,1.27-5.83,3.87-8.04,4.11-1.83-2.67.53-4.93,2.18-7.45-.9-.66-2-.43-3.19-.38l-.32-1.26c1.13-1.76,2.89-3.02,4.93-3.49,1.1-.25,2.4-.41,3.53-.53-.29-1.35-2.35-3.3-3.37-4.44Z"/>
      <path class="cls-38" d="M122.92,236.83c7.02-1.65,15.47-4.06,21.5.53,1.22.85,3.01,1.94,3.97,2.94-16.04,23.45-21.19,37.19-26.36,65.7-1.67-.4-6.36-2.65-10.89-3.71l-.62-1.33c-3.65-1.42-10.15-.99-14.21-.92,2.85-3.59,5.66-7.2,8.44-10.84l4.03-.12c3.79-3.04,11.72-4.89,12.21-9.73-1.92-2.45-5.13-2.55-8.18-2.98-3.39.28-9.16.49-12.11,1.72-5.75,2.59-5.9,3.62-12.22,2.01-2.94,2.8-2.71,11.96-6.83,19.61-1.25-6.98-.72-26.89,1.91-32.88,3.7,3.4,5.97,5.21,10.41,7.63,1.79-12.76.64-22.86-5.04-34.37.25-1.79.5-2.53,1.04-4.27,2.11.49,4.55-.81,6.88-1.62,3.74,2.78,5.75,4.57,8.43,8.46.26,2.79.26,6.57,1.88,8.67,3.41,1.84,3.4,1.28,5,4.22-.04,3.96-.64,3.82,1.11,6.73,6.14,3.45,10.83-7.78,13.93-12-2.1,1.27-5.83,3.87-8.04,4.11-1.83-2.67.53-4.93,2.18-7.45-.9-.66-2-.43-3.19-.38l-.32-1.26c1.13-1.76,2.89-3.02,4.93-3.49,1.1-.25,2.4-.41,3.53-.53-.29-1.35-2.35-3.3-3.37-4.44Z"/>
      <path class="cls-51" d="M44.58,259.16c.97-2.41,2.53-2.4,4.84-3.34,5.45,4.12,4.7,7.8,9.09,13.5l-.42.9c-3.73,4.59-2.45,14.29-9.54,19.49-2.05-10.86-3.22-19.53-3.97-30.54Z"/>
      <path class="cls-38" d="M66.98,253.91c2.96,2.62,6.26,4.91,9.46,7.23-2.67,10.15-3.54,22.66-6.26,31.29-1.64-3.64-4.92-13.93-6.71-15.65l.43-3.5c2.25-7.99,2.95-11.11,3.07-19.38Z"/>
      <path class="cls-51" d="M100.7,278.09c2.95-1.23,8.72-1.43,12.11-1.72-5.38,3.12-10.63,6.06-12.97,12.18-.44,1.16-.78,2.16-1.68,2.8-.98-1.46-.96-3.34-1.16-5.16,1.94-2.42,3.62-4.95,3.69-8.1Z"/>
      <path class="cls-37" d="M98.17,291.35c-3.99-.37-4.42.05-6.93-2.56l.14-1.28c1.66-1.45,3.44-1.26,5.63-1.33.2,1.83.18,3.7,1.16,5.16Z"/>
      <path class="cls-37" d="M58.51,269.32c1.44,1.27,3.72,3.63,5.4,3.98l-.43,3.5-2.07.13-1.13-1.08c-.59-2.4-.95-3.47-2.18-5.63l.42-.9Z"/>
      <path class="cls-30" d="M81.11,166.21c15.37,5.77,20.14,10.29,20.91,26.99,11.97-8.61,21.27-9.63,32.5.85-6.49.02-10.97.36-17.52.93l-.41.6,1.17,1.22c-2.93,1.4-4.38.19-5.86,1.62,16.1,4.42,19.42,5.84,22.2,23.45-3.98-3.42-7.92-6.77-11.77-10.34-.51,1.1-.7,1.73-1.05,2.86-7.07-3.88-5.87-5.05-15.32-8.62,12.76,12.44,14.28,18.57,8.73,35.47-2.16-4.48-4.26-9.7-6.43-13.87l-.15.61c-1.38-1.61-2.51-2.72-1.99-5.11.84-.07,1.36-.31,2.17-.57.7-2.69-1.31-7.89-2.57-10.32-5.23-10.16-13.08-13.65-23.1-17.08-3.54-.49-6.52.57-9.24-.73-1.12-2.16-6.38-3.61-5.87-6.58.9-3.52.79-4.52.99-8.16l6.36,1.5c3.05,2.69,10.16,1.65,18.85,9.36-4.68-9.55-7.28-14.81-12.61-24.08Z"/>
      <path class="cls-18" d="M67.53,187.58l8.59,1.73c.99,2.01,4.13,3.34,6.16,4.1l.5,1.14-.14.33c-3.54-.49-13.66,1.57-16.39.28-1.12-2.16.77-4.61,1.28-7.58Z"/>
      <path class="cls-45" d="M138.9,127.4c2.06-2.59,3-4.02,4.7-6.87l.32.47.08,13.26c3.46,2.77,13.26,10.22,10.19,15.32-3.64.43-8.3-5.51-10.37-8.16l.06,11.42c3.85,2.45,6.95,5.45,6.43,10.47l-.96.89c-2.55-.31-3.77-2.03-5.45-4.05-.07,6.25.04,37.96-1.98,41.01-3.49-2.18-2.26-25.53-2.32-30.68-1.61,1.72-3.02,3.67-5.3,4.02l-1.11-.83c-.02-4.99,2.59-7.42,6.23-10.35l-.06-13.65c-1.74,1.85-3.1,3.64-5.48,4.45l-1.55-.29c-1.53-4.89,3.35-9.43,6.91-12.05-.1-4.39-.06-10.09-.36-14.36Z"/>
      <path class="cls-45" d="M124.79,142.16c-.39,10.27-.19,34.02-15.36,33.73-8.5-.16-9.26-18.88-11.46-20.88.55-.2,4.87-1.04,5.69-1.21,6.36-2.71,9.62-4.11,15.49-7.72,2.07-1.07,3.79-2.51,5.64-3.92Z"/>
      <path class="cls-4" d="M119.15,146.08c1.73,5.41-.52,20.48-7.15,23.32-7.3-.25-7.62-9.91-8.34-15.59,6.36-2.71,9.62-4.11,15.49-7.72Z"/>
      <path class="cls-39" d="M144.41,237.36c1.7-2.25,2.19-9.97.39-12.07-1.18.38-1.88.64-3.02,1.12l-.56-.7.7-2.8c-2.71-.76-2.69,1.48-4.74-.02,1.54-3.9,5.53-3.17,4.62-5.32l-2.32-1.21c.87-1.55.45-1.04,2.4-1.86,1.78.37,4.96,2.16,6.01,1.96,3.69-.69,3.58-3.35,7.55-1.01-.43,1.67-1.4,1.79-3.22,2.97,2.69,1.3,3.98,1.37,5.41,3.5l-.26.92c-1.35-.07-2.69-.2-4.02-.37-.5,2.1-.35,2.5.14,4.63-1.12.1-3.85-1.79-5.08-2.51-.19,5.55-.4,9.53.57,15.06l-.6.68c-.96-1-2.75-2.1-3.97-2.94Z"/>
      <path class="cls-31" d="M363.23,334.24l.07-.72c2.38-1.59,22.18-3.13,25.96-3.16-3.85,6.33-8.15,12.37-12.86,18.09-1.48,1.76-5.43,6.71-6.9,8.04-6.77,8.42-22.85,23.32-32.2,29.08-16.86,13.63-44.08,25.9-64.83,31.69-15.14,3.76-22.46,4.91-37.94,7.02l-2.43-.04-1.97.15c-12.65,2.95-46.38-2-59.23-4.72,6.73-10.42,6.94-17.52,7.81-29.5,1.25-11.79,2.43-23.59,3.55-35.39,1.56.93,4.14,2.58,5.88,2.5,7.45-.35,13.82-1.66,18.8-7.29,5.61-.51,11.43-2,17.02-1.67,2.07.12,2.59,1.49,3.81,3.14,2.37,1.45,2.8,1.52,5.45,2.08,9.87-3.82,10.77.3,17.49-6.9,7.94-.12,31.82-1.32,38.04,2.37,6.02,6.8-15.46,22.89,18.34,41.04,10.14-19.99,4.34-31.33-13.47-41.96,6.2,1.09,9.85,2.3,15.66,4.47,3.83,11.32,9.68,19.6,22.57,21.22,2.73.34,8.11.97,10.53-.04,3.17-9.95-9.34-26.69-19.46-27.33-1.39-.09-8-1.9-8.89-2.63,2.76-1.36,7-1.62,10.15-2.01,15.16,10.41,28.17,6.9,39.04-7.53Z"/>
      <path class="cls-38" d="M206.95,349.99c5.61-.51,11.43-2,17.02-1.67,2.07.12,2.59,1.49,3.81,3.14l-6.2-.34h.02c-5.1,2.92-9.42,4.62-14.93,6.72,18.02,7.97,9.75,12.49,20.29,22.32,1.6,2.29,4.31,6.41,6.07,8.36l3.1,2.22c2.42,3.58,3.45,4.98,5.04,9.07l.31.75c.74,5.37-.44,8.66.23,11.35l3.57,1.93-2.14,1.24c-3.7,3.03-7.38,6.09-11.04,9.17l-1.97.15c-12.65,2.95-46.38-2-59.23-4.72,6.73-10.42,6.94-17.52,7.81-29.5,1.25-11.79,2.43-23.59,3.55-35.39,1.56.93,4.14,2.58,5.88,2.5,7.45-.35,13.82-1.66,18.8-7.29Z"/>
      <path class="cls-46" d="M184.49,381.49c9.39,5.81,10.59,10.21,11.26,20.95,5.93-8.51,9.33-11.9,19.27-15.96-3.73,13.08-10.26,14.9-14.19,26.71,4.6-4.27,12.84-14.2,20.11-10.68.25,3.11-8.14,7.96-10.81,11.09,6.25-.4,10.8-.87,16.94.86,3.45.93,5.28,1.39,8.85.59,2.92-1.03,3.3-1.71,5.89-1.18l1.33,1.21c-3.7,3.03-7.38,6.09-11.04,9.17l-1.97.15c-12.65,2.95-46.38-2-59.23-4.72,6.73-10.42,6.94-17.52,7.81-29.5,3.68,3.33,3.05,7.11,9.38,12.44l1.03-.1c.73-4.85-4.04-13.88-4.64-21.03Z"/>
      <path class="cls-30" d="M235.92,415.04c2.92-1.03,3.3-1.71,5.89-1.18l1.33,1.21c-3.7,3.03-7.38,6.09-11.04,9.17l-1.97.15c-3.02-.38-10.75,0-14.1.1,4.88-6.69,5.29-5.44,10.75-9.8l.28-.23c3.45.93,5.28,1.39,8.85.59Z"/>
      <path class="cls-23" d="M236.14,390.73c2.42,3.58,3.45,4.98,5.04,9.07l.31.75c.74,5.37-.44,8.66.23,11.35l3.57,1.93-2.14,1.24-1.33-1.21c-2.59-.53-2.97.14-5.89,1.18.84-6.04.78-12.25.86-18.36l-.64-5.95Z"/>
      <path class="cls-30" d="M236.14,390.73c2.42,3.58,3.45,4.98,5.04,9.07-.62,1.75-.93,2.48-2.6,2.92-1.54-1.66-1.53-3.78-1.8-6.04l-.64-5.95Z"/>
      <path class="cls-46" d="M195.76,365.52c8.11,5.54,8,14.55,5.06,22.89l-.66.53c-6.15-1.9-5.38-18.25-4.4-23.41Z"/>
      <path class="cls-50" d="M257.39,386.87l1.37,1.74c7.03,2.23,14.51,4.14,21.65,6.07-1.99,4.85-8.95,18.73-7.93,22.58-15.14,3.76-22.46,4.91-37.94,7.02l-2.43-.04c3.66-3.08,7.34-6.13,11.04-9.17l2.14-1.24c6.26-4.99,8.93-18.61,12.11-26.96Z"/>
      <path class="cls-9" d="M257.39,386.87l1.37,1.74c-1.99,7.87-2.69,15.86-4.95,23.66-3.06,1.83-17.57,10.26-19.27,12.01l-2.43-.04c3.66-3.08,7.34-6.13,11.04-9.17l2.14-1.24c6.26-4.99,8.93-18.61,12.11-26.96Z"/>
      <path class="cls-50" d="M286.3,395.37c11.58-2.57,40.08-8.78,51.01-9.81-16.86,13.63-44.08,25.9-64.83,31.69,4.7-6.11,9.31-15.05,13.82-21.89Z"/>
      <path class="cls-32" d="M229.71,365.94c5.49-.05,13.32-1.23,19.36-1.47,3.07.08,8.85-.46,10.94,1.02-6.6,1.6-12.88,3.08-19.26,5.5,2.19,2.08,4.69,2.61,7.6,3.45.45,9.75,2.12,18.35-3.12,26.51-1.1.3-2.55-.14-3.73-.38l-.31-.75c-1.59-4.1-2.62-5.5-5.04-9.07l-3.1-2.22c-1.76-1.95-4.47-6.07-6.07-8.36,2.25-3.97-1.98-10.73,2.74-14.22Z"/>
      <path class="cls-50" d="M245.22,400.94c-1.28-2.76-5.37-27.8-4.48-29.96,2.19,2.08,4.69,2.61,7.6,3.45.45,9.75,2.12,18.35-3.12,26.51Z"/>
      <path class="cls-50" d="M226.97,380.15c2.25-3.97-1.98-10.73,2.74-14.22.98,4.77,3.95,18.52,3.33,22.58-1.76-1.95-4.47-6.07-6.07-8.36Z"/>
      <path class="cls-35" d="M248.34,374.43c8.89,1.3,18.12,2.77,27.05,3.57-4.7,2.24-13.87,6.31-18,8.87-3.17,8.35-5.84,21.98-12.11,26.96l-3.57-1.93c-.67-2.69.51-5.98-.23-11.35,1.18.24,2.63.68,3.73.38,5.24-8.15,3.57-16.76,3.12-26.51Z"/>
      <path class="cls-50" d="M250.72,346.64c7.94-.12,31.82-1.32,38.04,2.37-25.63,4.21-29.8,4.79-55.52,4.53,9.87-3.82,10.77.3,17.49-6.9Z"/>
      <path class="cls-50" d="M347.04,356.23c12.46-6.02,15.72-6.55,29.38-7.78-1.48,1.76-5.43,6.71-6.9,8.04-4.88-.62-17-.31-22.48-.26Z"/>
      <path class="cls-3" d="M249.07,364.46c3.76-.62,10.54-1.09,14.25-.18-1.13,1.05-1.7.96-3.31,1.2-2.09-1.48-7.87-.95-10.94-1.02Z"/>
      <path class="cls-41" d="M197.62,178.63c6.76-17.26,16.94-26.91,36.34-25.78,3.46,10.95,4.97,18.61-.33,29.62-.81,4.25-1.12,5.69-.47,9.96,4.74,10.87,9.19,15.41,21.25,17.4.62,4.07,1.22,8.7,2,12.69,1.73,7.29,3.38,12.55,3.04,20.06-1.74,6.07-2.42,6.83-5.11,12.4-1.86,2.04-4.2,4.03-6.61,5.36-5.1,2.77-11.1,3.36-16.64,1.63-16.23-4.9-16.02-23.22-22.62-34.43-11.66-19.8-18.25-24.15-10.84-48.92Z"/>
      <path class="cls-7" d="M197.62,178.63c6.76-17.26,16.94-26.91,36.34-25.78,3.46,10.95,4.97,18.61-.33,29.62-2.59.19-7.08,4.75-12.17,4.85-9.17.18-11.18-6.93-18.44-10.33-1.43-.67-4.09.96-5.39,1.64Z"/>
      <path class="cls-12" d="M221.28,162.06c3.17-.3,6.25,1.14,8.06,3.75,1.81,2.61,2.07,6.01.68,8.87-1.39,2.86-4.22,4.75-7.39,4.94-4.8.29-8.94-3.32-9.31-8.12-.37-4.79,3.17-9,7.96-9.45Z"/>
      <path class="cls-31" d="M223.17,164.82c1.5-.62,3.22.06,3.9,1.53.68,1.48.07,3.22-1.38,3.96-.99.5-2.17.42-3.08-.21-.91-.63-1.4-1.7-1.29-2.81.12-1.1.83-2.05,1.85-2.47Z"/>
      <path class="cls-2" d="M233.15,192.43c4.74,10.87,9.19,15.41,21.25,17.4.62,4.07,1.22,8.7,2,12.69-7.53-1.21-12.77-3.39-17.66-9.67-4.53-5.78-6.55-13.14-5.6-20.42Z"/>
      <path class="cls-30" d="M157.64,261.62c-3.54,3.62-10,8.45-15.24,6.62-4.63-8.75,30.57-62.25,57.46-31.46,16.44,23.94-6.13,59.11-26.7,73.15-6.67,4.48-13.86,8.14-21.4,10.92,1.17-1.08,7.19-6.78,8.08-7.3,8.91-9.25,13.17-17.06,19.96-27.68,4.04-5.57,8.41-10.06,11.31-16.4,2.4-5.26,2.86-9.42,3.73-15.08-2.12,3.62-4.16,8.15-5.92,12.01-3.3,6.24-11.33,14.45-19.02,13.33l-1.14-.92c.48-2.52,1.17-2.48,3.3-4.68,3.83-6.23,4.94-8.95,6.53-15.77-1.85,2.55-5.12,7.37-7.25,9.39-4.32,5.18-11.99,12.88-19.18,7.55-.91-1.96-.83-1.09-.21-3.3l2.22-1.72c5.53-4.04,7.54-8.67,9.78-14.74-2.07,2.07-4.17,4.09-6.32,6.07Z"/>
      <path class="cls-37" d="M199.86,236.78c16.44,23.94-6.13,59.11-26.7,73.15-6.67,4.48-13.86,8.14-21.4,10.92,1.17-1.08,7.19-6.78,8.08-7.3.83-.15,1.67-.39,2.39-.85,17.94-11.36,32.51-30.17,37.47-50.97,2.04-8.55,3-16.88-1.65-24.5l1.8-.45Z"/>
      <path class="cls-38" d="M157.64,261.62c-3.54,3.62-10,8.45-15.24,6.62-4.63-8.75,30.57-62.25,57.46-31.46l-1.8.45c-20.26-15.56-42.84,10.22-51.3,27.11,2.02-.55,9.3-2.74,10.88-2.73Z"/>
      <path class="cls-38" d="M154.19,270.28c11.36.81,8.9-1.32,17.16-2.53-4.32,5.18-11.99,12.88-19.18,7.55-.91-1.96-.83-1.09-.21-3.3l2.22-1.72Z"/>
      <path class="cls-38" d="M172.07,274.13c11.96-2.3,11.18-5.69,16.85-7.74-3.3,6.24-11.33,14.45-19.02,13.33l-1.14-.92c.48-2.52,1.17-2.48,3.3-4.68Z"/>
      <path class="cls-49" d="M242.09,151.12c2.3-3.26,3.89-4.22,8.04-4.67,24.28-2.66,54.76,5.51,74.14,19.78.89.65,1.75,1.33,2.59,2.05-1.71.78-3.51,1.64-5.24,2.35l-.11-.02c-7.33,2.39-9.41,4.64-10.72,12.24,2.15,4.91,1.62,4.69,4.86,9.7-27.1-9.53-46.46-10.19-74.55-9.89,2.58-7.56,3.2-11.6,2.95-19.5-.76-4.16-1.79-7.76-1.95-12.03Z"/>
      <path class="cls-42" d="M244.04,163.15c25.36-.56,46.83,2.06,66.74,19.69,2.15,4.91,1.62,4.69,4.86,9.7-27.1-9.53-46.46-10.19-74.55-9.89,2.58-7.56,3.2-11.6,2.95-19.5Z"/>
      <path class="cls-2" d="M242.09,151.12c2.3-3.26,3.89-4.22,8.04-4.67,24.28-2.66,54.76,5.51,74.14,19.78.89.65,1.75,1.33,2.59,2.05-1.71.78-3.51,1.64-5.24,2.35l-.11-.02c-21.58-16.82-52.91-20.89-79.42-19.48Z"/>
      <path class="cls-39" d="M159.22,76.3c16.95-7.41,38.21-14.55,56.32-11.11l.03,3.43.3,33.48c-6.27-.74-9.75-.94-16.06-.9-4.52-28.95-45.57-20.38-39.53,8.39,1.7,8.11,11.44,7.69,6.14,13.83-11.01,2.88-12.92,5.92-22.5-2.42l-.32-.47c6.6-12.03,14.14-30.39,15.62-44.23Z"/>
      <path class="cls-50" d="M268.28,284.02c2.81.45,19.69,3,21.26,3.64-6.59,10.93-5.12,17.79-.12,28.88-1.14,1.82-2.48,4.09-4.42,5.09-10.7,5.53-24.93,5.81-36.68,5.93-5.66-5.73-7.63-5.98-15.77-6.45,7.13-6.97,14.39-11.3,20.22-16.86l3.23-3.15,4.89-5.87c2.9-3.72,4.93-7.19,7.38-11.2Z"/>
      <path class="cls-31" d="M260.91,295.22c6.74.58,12.87,1.07,19.57,2.19-5.55,3.18-8.76,4.12-15.1,5.1-2.56-1.74-6.12-1.36-9.37-1.41l4.89-5.87Z"/>
      <path class="cls-50" d="M252.78,304.24l3.23-3.15c3.24.06,6.8-.33,9.37,1.41l-1.39,1.94.35.58c-3.19.26-7.01.45-9.81,2.1-1.15-.82-1.07-1.34-1.75-2.88Z"/>
      <path class="cls-27" d="M254.52,307.13c2.8-1.65,6.62-1.84,9.81-2.1,4.63.88,6.86,1.52,11.29,2.96-7.07.14-14.1.33-21.1-.86Z"/>
      <path class="cls-42" d="M214.57,108.4c8.43,2.17,13.32,4.44,20.38,9.68l-6.93,1.12c-20.13,5.09-34.34,12.45-50.28,25.83-1.05-1.9-1.24-8.63-1.75-11.64l-2.08.47c-1.78-.06-3.21-.57-4.93-1.05,1.3-3.25,2.01-4.66,3.78-7.69,3.74-6.9,10.95-12.8,18.37-15.43,3.75.6,7.58.52,11.38.54,2.91.06,7,.03,9.66,1.37l.27-.12,2.13-3.09Z"/>
      <path class="cls-18" d="M172.76,125.13c3.74-6.9,10.95-12.8,18.37-15.43,3.75.6,7.58.52,11.38.54,2.91.06,7,.03,9.66,1.37.02,1.87-.04,2.08-.99,3.7-2.75,1.46-5.53-.16-9.21.83-3.94,9.53-3.84,10.12-14.45,8.26-1.18,3.36-2.6,7.79-4.03,10.96-3.11-.53-4.64-.68-7.51-1.95l-2.08.47c-1.78-.06-3.21-.57-4.93-1.05,1.3-3.25,2.01-4.66,3.78-7.69Z"/>
      <path class="cls-42" d="M172.76,125.13c3.74-6.9,10.95-12.8,18.37-15.43,3.75.6,7.58.52,11.38.54-4.62,2.99-4.81,4.33-6.86,9.63-12.22-1.16-10.38.93-16.02,10.45-2.16-1.95-4.2-4.03-6.87-5.2Z"/>
      <path class="cls-40" d="M214.57,108.4c8.43,2.17,13.32,4.44,20.38,9.68l-6.93,1.12c-3.51-2.03-7.01-4.09-10.48-6.19-1.83-1.43-2.83-1.34-5.1-1.53l2.13-3.09Z"/>
      <path class="cls-49" d="M212.44,111.49c2.26.19,3.26.1,5.1,1.53l-.26.32c-6.47,8.13-4.49,7.9-15.3,2.8,3.68-1,6.45.62,9.21-.83.95-1.61,1.01-1.82.99-3.7l.27-.12Z"/>
      <path class="cls-30" d="M155.13,379.65c1-3.16,2.51-9.53,5.32-10.99,1.17,2.22-6.59,39.78-7.53,45.03-1.23,6.79-4.86,15.09-11.5,18.5-.74.38-1.5.73-2.26,1.05-3.79.09-5.5.5-8.12-2.47-1.27-6.14,10.12-38.93,12.89-45.51,1.59-1.32,3.81-1.31,6.14-1.74.59-.65,4.16-3.19,5.08-3.87Z"/>
      <path class="cls-51" d="M155.13,379.65c1-3.16,2.51-9.53,5.32-10.99,1.17,2.22-6.59,39.78-7.53,45.03-1.23,6.79-4.86,15.09-11.5,18.5-.74.38-1.5.73-2.26,1.05-.89-.26-1.87-.64-2.75-.95.29-2.34,5.82-5.91,7.26-9.63,3.36-8.66,5.01-18.16,7.42-27.25,1.43-4.82,2.79-10.81,4.06-15.76Z"/>
      <path class="cls-46" d="M150.06,383.52c.59-.65,4.16-3.19,5.08-3.87-1.27,4.95-2.63,10.94-4.06,15.76-1.24,1.29-1.1,1.57-2.55,1.95-.86-4.12,2.63-10.18,1.53-13.83Z"/>
      <path class="cls-43" d="M175.64,337.92c2.28-.41,3.75-.95,5.76.24.67.91,1.5,1.97,2.08,2.91.09,1.36.65,5.42-.04,5.95-3.82,2.96-14.76,4.05-19.21,5.42-13.24,4.08-25.8,9.71-38.39,15.05l-1.31-.13c-1.18-2.33-1.09-1.34-.45-3.72,3.84-4.06,6.86-3.28,8.37-7.83-5.59,2.06-10.87,6.79-14.4,1.21-1.03-1.23-1.23-1.73-1.97-3.17,7.33-5.86,48.55-14.18,59.56-15.95Z"/>
      <path class="cls-26" d="M118.05,357.05c-1.03-1.23-1.23-1.73-1.97-3.17,7.33-5.86,48.55-14.18,59.56-15.95l2.11,1.92c-.65.87-.62.94-1.53,1.5-9.01,1.36-16.33,4.69-22.99,5.84-3.91.01-6.92.1-10.48,1.96-3.1,3.25-7.98,5.7-9.45,7.47l-.85-.79c-5.59,2.06-10.87,6.79-14.4,1.21Z"/>
      <path class="cls-34" d="M142.75,349.15c-3.1,3.25-7.98,5.7-9.45,7.47l-.85-.79c-5.59,2.06-10.87,6.79-14.4,1.21,9.19-3.7,15.08-5.45,24.7-7.9Z"/>
      <path class="cls-14" d="M142.75,349.15c3.56-1.86,6.57-1.95,10.48-1.96-3.72,2.98-15.23,10.16-19.94,9.43,1.47-1.77,6.36-4.22,9.45-7.47Z"/>
      <path class="cls-26" d="M175.64,337.92c2.28-.41,3.75-.95,5.76.24.67.91,1.5,1.97,2.08,2.91-3.14.47-4.07.44-7.26.27.91-.56.88-.64,1.53-1.5l-2.11-1.92Z"/>
      <path class="cls-13" d="M170.12,344.71l1.58-.14.04.48c-4.01,2.71-15.22,5.49-20.03,6.77l-1.23.04.26-.55c5.12-2.77,13.68-5.28,19.38-6.59Z"/>
      <path class="cls-38" d="M243.85,192.15l-1.4-2.66.48-.78c14.68-2.99,53.98,2.83,67.96,8.23l.39,3.86.73,3.58c-17.24-.77-33.5-.82-50.74-.36-6.49.17-13.55-6.95-17.42-11.88Z"/>
      <path class="cls-16" d="M243.85,192.15l-1.4-2.66.48-.78c14.68-2.99,53.98,2.83,67.96,8.23l.39,3.86c-21.29-6.56-45.95-1.33-67.43-8.65Z"/>
      <path class="cls-46" d="M110.52,300.96l.62,1.33c4.53,1.06,9.21,3.31,10.89,3.71-.43,3.99-1.54,12.59-1.54,16.44.15,3.05-.06,7.51-.11,10.67,7.04-.07,11.95-1.2,18.74-2.76l-4.77,10.92-7.38,2.16c-12.49-5.94-20.26-6.84-33.58-4.18,3.96-5.72,6.98-9.99,10.2-16.21,1.24-2.73,6.98-16.3,6.03-18.2l-4.12-.12-.12-.17c.52-1.5,3.39-2.61,5.15-3.59Z"/>
      <path class="cls-51" d="M110.52,300.96l.62,1.33c4.53,1.06,9.21,3.31,10.89,3.71-.43,3.99-1.54,12.59-1.54,16.44l-.91,4.71c-1.59-.31-4.63-5.84-5.99-7.84l-1.6-.17c-2.4,1.41-1.44,1.7-3.2,4.99-2.21.71-2.55,0-5.21-1.09,1.24-2.73,6.98-16.3,6.03-18.2l-4.12-.12-.12-.17c.52-1.5,3.39-2.61,5.15-3.59Z"/>
      <path class="cls-46" d="M19.73,253.69c4.35-3.88,9.5-13.02,13.32-18.06-2.11,15.88-2.46,33.91-2.51,50.06.66,1.39,3.02,27.32,3.4,30.81-9.41-17.22-16.29-35.71-20.44-54.89,2.13-2.6,4.2-5.25,6.23-7.93Z"/>
      <path class="cls-51" d="M19.73,253.69c4.35-3.88,9.5-13.02,13.32-18.06-2.11,15.88-2.46,33.91-2.51,50.06-5.52-6.39.4-10.6-8.27-13.34-3.07-.97-2.69-14.19-2.55-18.67Z"/>
      <path class="cls-39" d="M60.61,242.34c-4.36-5.05-8.67-9.22-13.61-13.68-1.58-1.42-2.83-2.64-2.31-4.75,2.55-1.28,9.9-.29,12.74.25,20.45,3.63,32.63,19.72,32.64,40.06,0,.39-.31.88-.5,1.2-1.15-.35-.84-.03-1.54-.76-3-2.6-6.16-5.01-9.3-7.44-.38-5.28-1.6-9.73-3.11-14.75-.68,3.56-1.27,7.35-1.89,10.94-2.09-1.68-4.41-3.95-6.41-5.81-1.53-5.31-2.71-9.36-4.73-14.49-.73,2.93-1.35,6.24-1.99,9.22Z"/>
      <path class="cls-4" d="M57.42,224.17c20.45,3.63,32.63,19.72,32.64,40.06,0,.39-.31.88-.5,1.2-1.15-.35-.84-.03-1.54-.76-2.71-19.6-14.34-34.57-34.23-38.64l-.54-1.66,4.17-.19Z"/>
      <path class="cls-48" d="M53.8,226.02c-2.17-.38-2.65-.54-4.68-1.41,1.15-.79,2.43-.37,4.13-.25l.54,1.66Z"/>
      <path class="cls-39" d="M64.72,354.17c.6-11.56,8.16-24.98,16.72-32.43,3.86-3.36,16.25-11.09,21.17-10.73l.09,1.21c-2.55,6.4-4.49,11.8-8.04,17.78-2.91.6-6.48,1.07-8.88,2.7,2.32,2.42,2.45,1.82,3.04,4.65-1.36,4.49-12.51,11.72-16.14,15.46-1.62,1.67-5.38,6.54-7.14,7.1-1.83-1.71-1.36-3.4-.81-5.75Z"/>
      <path class="cls-8" d="M64.72,354.17c.6-11.56,8.16-24.98,16.72-32.43,3.86-3.36,16.25-11.09,21.17-10.73l.09,1.21c-11.29,7.46-22.06,15.39-29.35,27.18-3.16,5.11-4.7,10.12-8.62,14.76Z"/>
      <path class="cls-15" d="M50.93,209.21c10.97-9.06,24.14-13.23,38.02-7.39,5,2.11,10.62,7.53,12.65,12.63l.41.74c-1.12.88-7.86-.4-9.97-.64l-4.52-6.23-2.18-.96-.86.36c.41,1.71.86,3.41,1.35,5.1l-.68,1.02c-5.25.45-9.75-4.54-15.59-6.9l-.7-.28c.84,2.93,1.61,4.73,2.82,7.54-5.61,1.31-7.6,2.82-12.03.26l-.75.39.85,1.61c-1.89,1.75-15.11,3.44-18.89,4.31.93-1.17,4.01-5.22,5-5.83l5.08-5.73Z"/>
      <path class="cls-4" d="M50.93,209.21c10.97-9.06,24.14-13.23,38.02-7.39,5,2.11,10.62,7.53,12.65,12.63l.41.74c-1.12.88-7.86-.4-9.97-.64l-4.52-6.23-1.45-3.8c-9.4-2.28-15.85-2.22-24.78,2.11-3.8,1.44-5.29,2.31-8.81,4.37l-1.54-1.79Z"/>
      <path class="cls-39" d="M86.05,204.51c7.08,2.72,13.76,9.59,15.54,9.93l.41.74c-1.12.88-7.86-.4-9.97-.64l-4.52-6.23-1.45-3.8Z"/>
      <path class="cls-48" d="M50.93,209.21l1.54,1.79c-2.4,2.09-3.52,3.41-6.61,3.95l5.08-5.73Z"/>
      <path class="cls-15" d="M10.44,176.05c4.02-2.81,15.46,5.98,18.6,8.81,5.91-.78,10.23,23.65,8.18,29.11l-.84.23c-4.69-2.83-15.91-19.74-21.26-20.09,1.04,1.77,1.28,2.09,1.82,4.04l-.84,1c-1.92-.6-3.87-1.14-5.83-1.62-1.74-3.08-1.86-12.88-1.15-16.61.32-1.42,1.11-3.38,1.34-4.88Z"/>
      <path class="cls-44" d="M9.63,180.93c.79,11.19,12.45,6.22,14.83,12.4-1.53.96-3.39.73-5.29.76.15,1.98,9.14,8.96,10.96,11.13,2.05,2.44,3.69,4.75,5.52,7.36.73-1.94.49-3.24.39-5.32.34-10.83-1.79-13.1-6.99-22.39,5.91-.78,10.23,23.65,8.18,29.11l-.84.23c-4.69-2.83-15.91-19.74-21.26-20.09,1.04,1.77,1.28,2.09,1.82,4.04l-.84,1c-1.92-.6-5.92-1.95-7.88-2.42-1.74-3.08.71-12.08,1.42-15.8Z"/>
      <path class="cls-4" d="M12.4,176.62c4.02-2.81,13.5,5.4,16.63,8.24,5.21,9.29,7.33,11.56,6.99,22.39-1.66-2.15-3.41-7.86-4.6-10.68-4.21-10.05-10.98-13.9-19.03-19.95Z"/>
      <path class="cls-42" d="M195,139.33c2.78-1.83,9.26-6.74,12.59-6.45.91.08,1.68,1.62,2.37,2.59l3.66,7.49c1.2,3,1.63,2.7,1.11,5.4-2.23,2.97-7.24,4.76-10.76,6.89-1.38.34-1.68.34-2.86,1.22l-.27.52c-3.17,2.62-6.4,5.36-9.64,7.89l-3.57-5.84c-2.09-3.62-3.18-5.62-4.82-9.56l.44-.98c1.78-2.05,6.35-5.49,8.65-7.33,1.32-1.12,1.47-1.16,3.1-1.83Z"/>
      <path class="cls-20" d="M195,139.33c2.78-1.83,9.26-6.74,12.59-6.45.91.08,1.68,1.62,2.37,2.59l3.66,7.49c1.2,3,1.63,2.7,1.11,5.4-2.23,2.97-7.24,4.76-10.76,6.89l-3.2-5.94-3.97-7.27-1.79-2.71Z"/>
      <path class="cls-42" d="M213.62,142.96c1.2,3,1.63,2.7,1.11,5.4-2.23,2.97-7.24,4.76-10.76,6.89l-3.2-5.94,3.92-1.54c3.23-1.59,5.83-3,8.93-4.8Z"/>
      <path class="cls-40" d="M195,139.33c2.78-1.83,9.26-6.74,12.59-6.45.91.08,1.68,1.62,2.37,2.59-4,1.46-7.61,2.74-11.06,5.37l-2.11,1.19-1.79-2.71Z"/>
      <path class="cls-22" d="M197.89,151.67l2.95,5.32c-3.17,2.62-6.4,5.36-9.64,7.89l-3.57-5.84c2.82-1.59,7.51-5.31,10.26-7.36Z"/>
      <path class="cls-13" d="M191.9,141.16c1.32-1.12,1.47-1.16,3.1-1.83l1.79,2.71,3.97,7.27,3.2,5.94c-1.38.34-1.68.34-2.86,1.22l-.27.52-2.95-5.32-4.19-8.01-1.8-2.5Z"/>
      <path class="cls-7" d="M191.9,141.16l1.8,2.5c-2.94,1.92-7.12,5.35-10.45,4.82,1.78-2.05,6.35-5.49,8.65-7.33Z"/>
      <path class="cls-15" d="M60.51,299.43l1.45-2.27c6.37,2.79,7.18,25.07,6.99,31.47l-3.88,6.46c-2.39,7.12-3.7,10.9-5.55,18.39-1.4-1.49-3.3-4.05-4.63-5.72-2.47-17.24-.89-32.05,5.61-48.32Z"/>
      <path class="cls-48" d="M60.51,299.43l1.45-2.27c6.37,2.79,7.18,25.07,6.99,31.47l-3.88,6.46c-.35-1.51-.42-7.42-.57-9.51-.7-9.61-1.33-16.84-4-26.14Z"/>
      <path class="cls-37" d="M142.88,369.53c-2.78,8.82-11.83,44.31-18.69,47.3-1.41.62-2.69.49-4.02-.27-1.9-1.08-3.14-2.99-3.6-5.09-1.49-6.72,4-16.76,6.54-22.84.48-2.52,5.93-13.15,7.29-15.73-.16,4.43-1.04,8.64-.45,13,4.44-6.53,7.04-11.11,12.93-16.38Z"/>
      <path class="cls-46" d="M123.11,388.64c.48-2.52,5.93-13.15,7.29-15.73-.16,4.43-1.04,8.64-.45,13-1.08,1.92-1.96,2.35-2.64,4.5-1.41,1.18-.62.85-2.43,1.05-.35-1.11-.8-2.1-1.76-2.83Z"/>
      <path class="cls-15" d="M72.69,358.7c13.1-16.17,30.57-20.56,49.58-12.31l-.46.1c-8.59,1.81-12.74.8-21.38,1.54l-2.27,1.88.34.83,1.32.25-1.9.94c.11.28.31.97.49,1.14,1.79.65,3.91,1.35,5.63,2.1-1.72.79-3.04,1.33-4.82,1.97-2.57-.56-2.4-.15-5.27.72-8.94,2.28-18.97,10.49-24.22,7.53-1.33-2.68.75-5.1,2.98-6.69Z"/>
      <path class="cls-48" d="M72.69,358.7c13.1-16.17,30.57-20.56,49.58-12.31l-.46.1c-8.59,1.81-12.74.8-21.38,1.54-15.78.04-23.5,10.69-27.74,10.68Z"/>
      <path class="cls-45" d="M93.93,357.86l.34-3.02c1.61-1.86,1.15-1.3,4.13-1.77,1.79.65,3.91,1.35,5.63,2.1-1.72.79-3.04,1.33-4.82,1.97-2.57-.56-2.4-.15-5.27.72Z"/>
      <path class="cls-28" d="M173.34,89.82c6.83-3.27,25.45,5.18,19.21,13.34-2.48.52-3.55.62-5.75,1.89l-1.16.24-6.33,3.69c-7.31,7.12-11.14,5.92-13.86-4.56-.2-.78,1.12-1.5,1.73-1.98.16-2.63-1.29-3.62-.32-6.92,1.53-1.75,2.98-1.87,5.21-2.42.37-.64.97-2.48,1.26-3.28Z"/>
      <path class="cls-7" d="M173.34,89.82c6.83-3.27,25.45,5.18,19.21,13.34-2.48.52-3.55.62-5.75,1.89-4.96-3.56-11.57-8.2-13.43-13.69l-.03-1.55Z"/>
      <path class="cls-29" d="M173.37,91.37c3.94,3.02,6.19,5.98,10.91,2.82,4.35,5.08,2.19,4.11,8.27,8.97-2.48.52-3.55.62-5.75,1.89-4.96-3.56-11.57-8.2-13.43-13.69Z"/>
      <path class="cls-33" d="M173.34,89.82l.03,1.55c1.86,5.49,8.47,10.13,13.43,13.69l-1.16.24c-3.78-2.1-6.62-1.83-10.85-1.63-1.89-2.02-2.9-2.94-4.18-5.41-.12-3.1-.1-2.17,1.48-5.15.37-.64.97-2.48,1.26-3.28Z"/>
      <path class="cls-21" d="M179.31,108.98c-7.31,7.12-11.14,5.92-13.86-4.56-.2-.78,1.12-1.5,1.73-1.98,1.94,3.56,8.27,6.2,12.13,6.54Z"/>
      <path class="cls-30" d="M160.87,284.25c2.24.74,5.43,1.28,7.82,1.75l3.25-.21.65.89c-1.36,7.7-19.51,26.55-27.07,31.31-5.07,3.19-6.79,4.09-12.31,6.37,1.73-2.17,6.15-7.43,7.51-9.51,7.28-9.24,14.1-20.44,20.15-30.59Z"/>
      <path class="cls-37" d="M168.69,286l3.25-.21.65.89c-1.36,7.7-19.51,26.55-27.07,31.31-5.07,3.19-6.79,4.09-12.31,6.37,1.73-2.17,6.15-7.43,7.51-9.51,8.97-.75,24.16-21.43,27.97-28.84Z"/>
      <path class="cls-20" d="M238.84,124.91c1.38-.23,1.44-.66,2.71-1.75l1.26.12c4.54.97,5.72,1.33,8.48,5.18,2.36,3.68,2.96,4.92,4.2,9.12l.46,1.41c-2.11,1.22-5.12.91-7.51.42-1.29.05-2.65-.06-3.69.62-2.31.77-7.68,1.68-10.28,2.2l-2.52-5.73-4.33-7.83c-.82-1.22-.75-1.2-.85-2.6,2.4-2.32,9.4-3.23,12.07-1.16Z"/>
      <path class="cls-7" d="M238.84,124.91c1.38-.23,1.44-.66,2.71-1.75l1.26.12c4.54.97,5.72,1.33,8.48,5.18,2.36,3.68,2.96,4.92,4.2,9.12l.46,1.41c-2.11,1.22-5.12.91-7.51.42-1.29.05-2.65-.06-3.69.62l-2.09-5.72c-1.13-2.79-1.77-4.77-3.63-7.14l-.19-2.27Z"/>
      <path class="cls-13" d="M238.84,124.91c1.38-.23,1.44-.66,2.71-1.75l1.26.12-.89,1.11c.66,1.49.82,1.91,1.76,3.22l2.79,5.9,1.98,5.9c-1.29.05-2.65-.06-3.69.62l-2.09-5.72c-1.13-2.79-1.77-4.77-3.63-7.14l-.19-2.27Z"/>
      <path class="cls-42" d="M246.46,133.51c4.24.27,5.64.9,8.31,4.33l.72-.26.46,1.41c-2.11,1.22-5.12.91-7.51.42l-1.98-5.9Z"/>
      <path class="cls-40" d="M243.68,127.61c-.94-1.31-1.1-1.73-1.76-3.22l.89-1.11c4.54.97,5.72,1.33,8.48,5.18-1.86.61-5-.49-7.61-.85Z"/>
      <path class="cls-42" d="M242.66,134.31l2.09,5.72c-2.31.77-7.68,1.68-10.28,2.2l-2.52-5.73c3.17-.47,7.47-1.51,10.7-2.18Z"/>
      <path class="cls-40" d="M227.62,128.66c-.82-1.22-.75-1.2-.85-2.6,2.4-2.32,9.4-3.23,12.07-1.16l.19,2.27c-4.42.35-7,.59-11.41,1.48Z"/>
      <path class="cls-30" d="M173.81,369.82l.52.5c1.36,4.69-2.38,26.98-3.12,33.03-.62,5.06-6.2,16.84-13.27,15.04l-.15-1.84c1.03-4.8,5.23-31.72,7.43-33.59.44,1.96.54,2.98,1.59,4.73,1.06-.43,5.94-15.4,7.01-17.87Z"/>
      <path class="cls-30" d="M147.76,279.6c3.12,2.42,4.43,3.27,8.4,4.08-5.36,8.62-18.91,29.96-25.78,36.17-1.21,1.35-2.88,3.59-4.07,5.07,1.23-12.25,2.22-13.15,9.36-23.57,4.07-7.23,8.1-14.48,12.09-21.75Z"/>
      <path class="cls-37" d="M126.32,324.92c1.23-12.25,2.22-13.15,9.36-23.57-.24,5.71-4.42,10.87-5.29,18.5-1.21,1.35-2.88,3.59-4.07,5.07Z"/>
      <path class="cls-15" d="M36.39,223.7c-1.93,2.73-10.74,15.95-12.78,16.69l-1.52-2.13c-1.7,3.04,1.36,6.03-2.17,7.93-.88-1.96-1.16-4.85-2.09-5.45-3.44,4.16.61,8.07-5.4,16.13-.98-5.52-1.81-11.06-2.5-16.62-.23-2.05-.26-2.55-.03-4.6,3.24-5.45,9.02-7.83,14.87-9.71,4.12-1.7,7.19-1.91,11.63-2.25Z"/>
      <path class="cls-48" d="M9.92,240.26c-.23-2.05-.26-2.55-.03-4.6,3.24-5.45,9.02-7.83,14.87-9.71l.31,1.12c-.84.81-3.28,2.63-4.25,3.21-2.98,1.78-8.31,9.26-10.9,9.98Z"/>
      <path class="cls-15" d="M302.67,281.63c5.61,2.49,4.54,25.9-6.27,28.43-1.05-.56-2.74-.73-3.98-.93l-.2.54-.86.27-.97-2.4c-2.46-12.67,2.45-18.63,12.28-25.92Z"/>
      <path class="cls-4" d="M302.67,281.63c.09,3.12-3.68,7.87-5.47,10.62-3.44,5.29-5.04,9.17-6.81,15.29-2.46-12.67,2.45-18.63,12.28-25.92Z"/>
      <path class="cls-44" d="M300.41,290.8c-.64,7.75-1.54,11.83-4,19.27-1.05-.56-2.74-.73-3.98-.93,2.24-5.39,5.25-13.54,7.98-18.34Z"/>
      <path class="cls-34" d="M251.9,335.06l-.4-1.59.66-.77c18.52-1.37,34.7-3.35,51.27-12.64,1.47-.83,3.51-2.36,5.04-2.08-.26,2.33.13,1.44-1.73,3.31-6.07,5.81-19.6,10.86-27.31,14.7-1.88,1.17-5.11.73-7.48.36l-7.82.65c-2.56.26-4.29.55-6.81,1.06-2.42.26-3.02.4-5.4-.44v-2.57Z"/>
      <path class="cls-26" d="M251.9,335.06l-.4-1.59.66-.77c18.52-1.37,34.7-3.35,51.27-12.64,1.47-.83,3.51-2.36,5.04-2.08-.26,2.33.13,1.44-1.73,3.31-4.63.1-21.09,9.58-27.25,10.45-.26.04-6.81,1.83-6.77,1.81-3.44.43-18.48,2.67-20.82,1.5Z"/>
      <path class="cls-15" d="M6.8,203.71l.53-3.28c5.54-4.13,20.58,8.91,23.81,13.39,1.56.98,3.36,4.82,4.21,6.5-8.51-1.64-13.98-2.4-22.61-2.87,1.69-2.62,3.35-6.01,4.81-8.82-2.95,1.98-7.38,4.14-10.22,6.31.14-3.7-.63-7.53-.53-11.23Z"/>
      <path class="cls-39" d="M9.1,204.1l.33-3.31c5.54-4.13,18.49,8.55,21.72,13.03-.47.02-19.01-8.61-22.04-9.73Z"/>
      <path class="cls-30" d="M68.32,222.81c-.88-1.18-.63-.54-.79-1.98,2.61-2.13,4.83-.9,8.4-2.7.33-1.23.33-1.36.97-2.53l3.23,2.59,1.39-.04c3.57-.2,9.42-.34,12.81.8-2.34,5.31-3.29,11.17-4.36,16.88-.54,1.74-.79,2.48-1.04,4.27l-5.32-7.14c-1.94-1.96-4.72-4.18-6.88-5.99-2.63-1.6-5.43-3.57-8.41-4.15Z"/>
      <path class="cls-15" d="M68.32,222.81c-.88-1.18-.63-.54-.79-1.98,2.61-2.13,4.83-.9,8.4-2.7.33-1.23.33-1.36.97-2.53l3.23,2.59,1.39-.04,2.2.61c-3.25,3.19-4.35,4.31-6.99,8.2-2.63-1.6-5.43-3.57-8.41-4.15Z"/>
      <path class="cls-24" d="M68.32,222.81c-.88-1.18-.63-.54-.79-1.98,2.61-2.13,4.83-.9,8.4-2.7.33-1.23.33-1.36.97-2.53l3.23,2.59c-3.53,1.54-8.17,3.76-11.81,4.62Z"/>
      <path class="cls-18" d="M83.72,218.76l2.92.05c2.11,2.74-2.18,10.3-3.03,14.14-1.94-1.96-4.72-4.18-6.88-5.99,2.63-3.88,3.74-5.01,6.99-8.2Z"/>
      <path class="cls-30" d="M254.33,254.99c2.69-5.58,3.37-6.33,5.11-12.4,4.4,23.34-8.79,54.86-27.29,69.47l-.91.16c.58-1.54,6.4-8.39,8-10.63,7.43-10.39,16.96-33.85,15.09-46.6Z"/>
      <path class="cls-15" d="M301.14,370.13c-1.05-5.42-2.54-10.08-3.57-15.05,8.76,8.47,13.14,15.57,7.67,27.88l-.58.42c-3.46-1.2-7.13-4.87-9.28-7.69-2.4-3.15-5.52-14.6-2.05-17.33,2.28,1.63,4.04,9.1,6.98,12.45l.83-.69Z"/>
      <path class="cls-48" d="M301.14,370.13c-1.05-5.42-2.54-10.08-3.57-15.05,8.76,8.47,13.14,15.57,7.67,27.88-.49-.86-3.46-10.93-4.1-12.84Z"/>
      <path class="cls-34" d="M79.82,374.37c-6.35-5.05,1.76-7.89,6.38-9.29,5.73-1.74,9.37-2.67,14.73.33l4.57,3.4c-7.58,2.85-13.73,5.75-20.62,10.08-1.56-1.38-3.61-3.09-5.05-4.51Z"/>
      <path class="cls-47" d="M79.82,374.37c-6.35-5.05,1.76-7.89,6.38-9.29,5.73-1.74,9.37-2.67,14.73.33-7.27,3.1-14.07,5.24-21.11,8.97Z"/>
      <path class="cls-15" d="M346.4,302.18l4.9-1.27c-7.33,15.41-16.55,22.33-34.13,19.32l7.31-4.72,3.63-1c.08-1,.23-1.3.8-2.12,3.49-2.34,6.88-3.1,10.96-6.29l-.14-1.03c1.82-.95,4.7-2.06,6.68-2.89Z"/>
      <path class="cls-25" d="M324.47,315.51l3.63-1c.08-1,.23-1.3.8-2.12,2.85.23,6.81.44,9.55.86-5.07,1.42-8.6,2.52-13.98,2.26Z"/>
      <path class="cls-43" d="M271.96,336.36c2.36.36,5.6.81,7.48-.36,2.77,1.22,5.51,1.45,8.42,2.24,10.01,2.7,15.74,3.73,23.93,10.16-17.86-4.72-30.94-8.06-49.93-7.27-2.72.11-8.62.6-9.92-1.35l-.02-2.14c2.39.84,2.99.7,5.4.44,2.52-.51,4.26-.8,6.81-1.06l7.82-.65Z"/>
      <path class="cls-1" d="M264.14,337.01l7.82-.65c-2.67,1.93-9.03,2.67-12.31,2.88l-2.32-1.17c2.52-.51,4.26-.8,6.81-1.06Z"/>
      <path class="cls-38" d="M212.53,133.7c-.43-.79-.62-1.42-.93-2.26,2.08-3.09,6.41-4.12,9.92-4.23,1.53-.05,2.06,1.24,2.97,2.37.78,2.2,1.62,4.36,3.14,6.19l.38,2.13c1.32,2.57,1.57,2.11,1.34,4.61-3.17,3.56-5.3,4.32-10.05,3.23-1.39-1.48-1.5-2.15-2.16-4.1l-.96-.93c-.77-2.92-2-4.48-3.66-7.02Z"/>
      <path class="cls-38" d="M228.01,137.91c1.32,2.57,1.57,2.11,1.34,4.61-3.17,3.56-5.3,4.32-10.05,3.23-1.39-1.48-1.5-2.15-2.16-4.1l10.86-3.74Z"/>
      <path class="cls-36" d="M212.53,133.7c-.43-.79-.62-1.42-.93-2.26,2.08-3.09,6.41-4.12,9.92-4.23,1.53-.05,2.06,1.24,2.97,2.37-4.11,1.25-8.05,2.34-11.97,4.12Z"/>
      <path class="cls-16" d="M216.19,140.72c2.56-2.88,7.76-4.01,11.44-4.95l.38,2.13-10.86,3.74-.96-.93Z"/>
      <path class="cls-30" d="M43.49,231.54c2.89,2.47,6.27,6.01,9.03,8.73,3.72,3.81,6,6.04,10.14,9.37.87,4.52,1.78,12.1-.48,16.3l-1.21.91c-2.81-2.01-2.98-8.37-3.7-11.63-1.68-.61-1.89-.57-3.7-.66-2.27-2.44-2.2-4.17-2.07-7.54.07-1.71.16-3.41.27-5.11-.8.54-1.59.94-2.43,1.4-3.84-2.09-4.51-7.29-5.83-11.77Z"/>
      <path class="cls-32" d="M178.97,151.88c.75.41,8.33,13.81,9.84,15.93-2.42,2.45-4.9,5.17-7.29,7.68-3.76-.93-8.23-11.65-9.84-15.33,1.66-2.24,5.31-6.08,7.28-8.29Z"/>
      <path class="cls-4" d="M316.01,311.39c4.68-11.14,16.59-13.23,27.29-12.94l.58,2.04,2.52,1.68c-1.97.83-4.85,1.95-6.68,2.89-3.48,1.2-9.66,4.59-12.03,4.09-1.35-1.9-.79-2.41-.59-5.27l-1.97,1.93c-1.74,3.65-5.58,9.55-10.02,9.94-.61-1.44.16-2.93.9-4.39Z"/>
      <path class="cls-48" d="M327.09,303.9c2.82-2.2,12.98-3.41,16.78-3.41l2.52,1.68c-1.97.83-4.85,1.95-6.68,2.89-3.48,1.2-9.66,4.59-12.03,4.09-1.35-1.9-.79-2.41-.59-5.27Z"/>
      <path class="cls-48" d="M316.01,311.39c5.04-.54,3.56-3.32,9.11-5.56-1.74,3.65-5.58,9.55-10.02,9.94-.61-1.44.16-2.93.9-4.39Z"/>
      <path class="cls-46" d="M120.56,376.91l.53.98c-1.01,4.13-6.35,15.91-8.25,20.38l-8.07-4.84-5.19-3.85c6.27-4.85,14-8.86,20.99-12.67Z"/>
      <path class="cls-39" d="M313.67,353.09c4.85,1.77,10.4,8.45,14.51,7.22l-2.51-3.35,3.57.83c1.68-.69,1.12-.38,2.17-2.44,3.95,4.75,5.48,7.99,6.76,14.1-2.4.88-8.67-.06-10.94-1.14-7.75-3.68-10.41-8.04-13.55-15.21Z"/>
      <path class="cls-4" d="M331.4,355.35c3.95,4.75,5.48,7.99,6.76,14.1-3.36-1.83-6.3-6.44-9.99-9.13l-2.51-3.35,3.57.83c1.68-.69,1.12-.38,2.17-2.44Z"/>
      <path class="cls-43" d="M206.83,338.23c-.27-1.55-.36-1.53.13-2.97,4.15-2.45,15.87-2.04,20.16.79.82,2.33,1.11,2.89.88,5.46-1.25,1.2-17.68,2.71-19.79,2.3-.51-1.85-.97-3.7-1.38-5.57Z"/>
      <path class="cls-14" d="M206.83,338.23c-.27-1.55-.36-1.53.13-2.97,4.15-2.45,15.87-2.04,20.16.79-3.07,1.61-16.12,1.95-20.28,2.18Z"/>
      <path class="cls-33" d="M168.98,132.82c1.72.48,3.15.99,4.93,1.05l2.08-.47c.51,3,.69,9.73,1.75,11.64-4.3,4.41-7.22,7.52-11.04,12.32-.61-5.28-.75-7.56-.53-12.87.42-3.96,1.71-7.84,2.82-11.67Z"/>
      <path class="cls-20" d="M168.98,132.82c1.72.48,3.15.99,4.93,1.05-1.05,4.13-1.43,7.46-4.75,10.23-1.02.16-1.96.33-3,.4.42-3.96,1.71-7.84,2.82-11.67Z"/>
      <path class="cls-15" d="M99.81,350.99c10.38,2.07,16.15,7.92,19.57,17.92l.09.73-.57.45c-9.89-3.27-12.5-5.55-19.7-12.95,1.78-.64,3.1-1.18,4.82-1.97-1.72-.75-3.84-1.45-5.63-2.1-.17-.17-.38-.86-.49-1.14l1.9-.94Z"/>
      <path class="cls-48" d="M99.81,350.99c10.38,2.07,16.15,7.92,19.57,17.92-4.82-3.01-9.03-10.69-15.36-13.74-1.72-.75-3.84-1.45-5.63-2.1-.17-.17-.38-.86-.49-1.14l1.9-.94Z"/>
      <path class="cls-19" d="M179.56,327.3c14.22-.13,20.26,20.1,9.54,25.21-2.53-2.84.79-10.36-1.5-14.98-2.48-5-6.49-4.31-11.17-6.06.23-2.08,1.26-2.37,3.13-4.16Z"/>
      <path class="cls-38" d="M128.71,304.51c.51-3.05,1.07-6.1,1.69-9.13.99-4.83,4.26-20.72,8.32-23.39l2.55.98,2.91,2.15c.48,3.35-8.72,17.2-10.92,20.71-.64,1.9-3.46,6.69-4.56,8.67Z"/>
      <path class="cls-51" d="M141.27,272.97l2.91,2.15c.48,3.35-8.72,17.2-10.92,20.71-.73-4.88,5.61-18.25,8.01-22.87Z"/>
      <path class="cls-28" d="M168.48,164.16c.82.46,8.32,12.33,10.38,14.89l-4.77,6.97-.88.74c-3.7-1.29-7.13-11.31-8.2-15.02.93-2.89,2.06-4.89,3.46-7.58Z"/>
      <path class="cls-26" d="M37.7,269.52l2.55-.16c2.17,2.88,3.44,17.16,3.17,21.07-2.17-.15-5.7.24-7.98.42-.56-6.74-2.81-16.42,2.27-21.33Z"/>
      <path class="cls-34" d="M35.44,290.85c-.56-6.74-2.81-16.42,2.27-21.33.26,5.62.3,15.08,2.59,19.88,1.41.84,1.48.84,3.13,1.04-2.17-.15-5.7.24-7.98.42Z"/>
      <path class="cls-19" d="M233.32,337.06c-6.06-11.25-6.98-5.28-12.93-8.61,7.78-10.12,19.04,2.23,18.13,14.28-.73,1.98-1.06,2.43-2.27,4.19-2.34.99-1.54,1.08-3.39.34-.72-1.92.39-7,.46-10.2Z"/>
      <path class="cls-3" d="M233.32,337.06c2.58,3.97,2.41,2.87,5.19,5.67-.73,1.98-1.06,2.43-2.27,4.19-2.34.99-1.54,1.08-3.39.34-.72-1.92.39-7,.46-10.2Z"/>
      <path class="cls-50" d="M310.56,295.9c2.84,1.54,5.57,3.12,8.61,4.22-2.88,2.41-4.15,4.73-6.56,7.5-6.38,7.35-12.76,9.27-21.58,12.04,11.65-7.74,16.54-9.64,19.52-23.76Z"/>
      <path class="cls-30" d="M185.02,181.74c0,1.36-.86,6.1-1.19,7.64-2.12,10.11-.85,23.49-7.97,31.59-.17-.6-.28-.91-.1-1.54,4.16-15.1-1.22-25.23,9.26-37.7Z"/>
      <path class="cls-30" d="M266.23,240.48c.89.76,1.63,2.26,2.03,3.37,5.3,14.63-1.26,28.14-6.98,41.11-1.16.77-.67.79-1.61.62,6.31-18.56,7.09-25.95,6.56-45.1Z"/>
      <path class="cls-43" d="M108.74,371.39c2.27.69,3.72,1.52,5.81,2.6-7.1,3.91-12.95,7.14-19.74,11.63-1.39-.17-4.37-2.76-5.75-3.79,6.27-3.98,13.02-7.15,19.67-10.45Z"/>
      <path class="cls-29" d="M152.95,326.05c1.7.11,6.61,6.48,8.67,8.64l-9.8,1.79-9.07,2.16c3.01-7.09,1.92-10.31,10.2-12.59Z"/>
      <path class="cls-26" d="M36.74,305.19c2.25.93,3.63,1.79,5.71,3.02,6.93,4.9,7.39,9.78,7.49,17.88l-5.32-5.74-6.53-4.59-1.34-10.57Z"/>
      <path class="cls-34" d="M36.74,305.19c2.25.93,3.63,1.79,5.71,3.02-.01,3.96,1.23,8.24,2.16,12.14l-6.53-4.59-1.34-10.57Z"/>
      <path class="cls-14" d="M36.48,240.9c.73.19,1.65.58,2.37.85,1.63,2.91,2.62,21.52.97,23.21l-3.88.8c-1.77-2.59.01-20.74.55-24.85Z"/>
      <path class="cls-15" d="M343.33,335.59c4.57-.79,8.66.35,13.18-.08-4.27,3.7-9.06,7.4-14.9,8.06-3.53.41-7.07-.61-9.83-2.84,2.31-2.22,8.62-1.27,11.75-3.94l-.19-1.19Z"/>
      <path class="cls-29" d="M310.89,196.94c9.56,2.61,17.8,7.27,25.7,13.14-9.37-3.04-14.83-4.28-24.58-5.7l-.73-3.58-.39-3.86Z"/>
      <path class="cls-48" d="M329.7,336.4c8.01-6.47,17.8-9.44,26.35-2.04l.46,1.15c-4.52.43-8.61-.7-13.18.08-5.42-.1-8.24.17-13.63.81Z"/>
      <path class="cls-42" d="M326.86,168.27c9.37,8.65,13.82,15.1,17.67,27.41-8.01-12.88-10.68-16.17-22.9-25.05,1.72-.71,3.53-1.58,5.24-2.35Z"/>
      <path class="cls-19" d="M190.24,328.96c10.65-1.12,14.83,11.61,10.21,20.25l-1.85.09c-1.57-2.53-.19-9.25-1.28-12.28-1.26-3.49-5.88-5.66-7.07-8.06Z"/>
      <path class="cls-15" d="M37.91,319.73c4.88,3.47,8.51,8.65,11.78,13.57l.27,8.2c-4.26-3.1-11.86-16.06-12.05-21.77Z"/>
      <path class="cls-14" d="M42.14,294.47l2.01.15c1.27,2.43,2.96,7,2.57,9.75l-.78.95c-1.3-.7-1.75-.96-2.92-1.85-3.36-1.48-7.91-2.97-6.7-7.33,1.7-1.6,3.4-1.44,5.82-1.67Z"/>
      <path class="cls-26" d="M42.14,294.47l2.01.15c1.27,2.43,2.96,7,2.57,9.75l-.78.95c-1.3-.7-1.75-.96-2.92-1.85-.54-2.4-1.8-6.95-.88-9Z"/>
      <path class="cls-19" d="M236.9,326.46c9.71,1.14,11.65,10.77,8.33,18.75l-1.29.4-.57-.13c-1.34-.3-1.04-10.21-2.11-12.21-1.34-2.52-2.73-4.51-4.37-6.81Z"/>
      <path class="cls-2" d="M191.13,109.7c9.26-3.33,13.94-2.94,23.44-1.3l-2.13,3.09-.27.12c-2.66-1.34-6.75-1.31-9.66-1.37-3.8-.03-7.63.06-11.38-.54Z"/>
      <path class="cls-37" d="M43.39,240.33c2.22,5.32,4.12,10.06,6.04,15.49-2.32.94-3.87.93-4.84,3.34-.46-2.14-1.02-15.82-1.2-18.83Z"/>
      <path class="cls-51" d="M5.65,222.08c2.7-.01,11.74.12,14.06,1.19l-.13.77-2.9,1.24c-2.29,1.03-7.38,5.2-9.59,6.57l-1.42-9.77Z"/>
      <path class="cls-48" d="M325.66,356.96c-3.04-2.69-4.89-4.38-7.64-7.46,5.82,1.53,8.59,2.18,13.38,5.85-1.05,2.06-.49,1.75-2.17,2.44l-3.57-.83Z"/>
      <path class="cls-41" d="M65,187.58c.81,2.04-.17,6.31-.54,8.72l-7.38,3.27c-.07-1.47,6.43-9.83,7.92-11.99Z"/>
      <path class="cls-48" d="M343.3,298.46c2.69.26,4.79.29,7.27,1.38l.73,1.07-4.9,1.27-2.52-1.68-.58-2.04Z"/>
      <path class="cls-23" d="M349.04,253.08c2.4-1.98,4.74-13.81,6.46-17.89l6.35,18.58c-1.83.32-7.02,1.34-8.61,1.39l-13.49,2.54c2.53-5.27,4.08-10.83,5.77-16.42,1.24,3.2,2.55,8.38,3.53,11.81Z"/>
      <path class="cls-27" d="M374.27,218.07c1.3,7.71-5.78,9.33-11.71,11.58l-.11-.42c2.06-3.46,8.57-8.65,11.82-11.15Z"/>
      <path class="cls-35" d="M399.52,177.07c6.3,5.38,17.29,15.05,23.65,19.87.4,3.45,1.32,5.52,1.46,9,.94,5.48.15,28.82-.68,34.27-3.85,1.09-9.91,1.98-13.62,3.55-2.8-7.19-6.58-14.11-9.49-21.57-3.03,7.03-10.58,22.37-12.66,28.26-2.38.18-5.7.17-7.65,1.3-.82-1.21-2.87-7.61-3.48-9.37,4.73-9.09,8.14-10.63,14.95-17.96.96-1.04.57-2.5.35-3.73-5.08-4.75-4.04-5.6-1.84-11.55,1.26-1.48,5.74-5.29,7.41-6.78.69-.71,2.19-2.61,1.99-3.56-1.57-7.55-.43-14.22-.4-21.73Z"/>
      <text class="cls-11" transform="translate(59.36 162.52) rotate(-67.5)"><tspan x="0" y="0">T</tspan></text>
      <text class="cls-11" transform="translate(66.31 143.74) rotate(-57.83)"><tspan x="0" y="0">O</tspan></text>
      <text class="cls-11" transform="translate(85.4 113.55) rotate(-46.25)"><tspan x="0" y="0">U</tspan></text>
      <text class="cls-11" transform="translate(106.82 90.68) rotate(-34.69)"><tspan x="0" y="0">Q</tspan></text>
      <text class="cls-11" transform="translate(136.21 70.44) rotate(-23.05)"><tspan x="0" y="0">U</tspan></text>
      <text class="cls-11" transform="translate(165.3 58.4) rotate(-13.74)"><tspan x="0" y="0">E</tspan></text>
      <text class="cls-11" transform="translate(186.77 53.36) rotate(-7.64)"><tspan x="0" y="0"> </tspan></text>
      <text class="cls-11" transform="translate(199.33 50.71) rotate(.93)"><tspan x="0" y="0">&amp;</tspan></text>
      <text class="cls-11" transform="translate(232.5 51.7) rotate(8.18)"><tspan x="0" y="0"> </tspan></text>
      <text class="cls-11" transform="translate(245.33 53.31) rotate(14.05)"><tspan x="0" y="0">T</tspan></text>
      <text class="cls-11" transform="translate(264.93 57.41) rotate(23.76)"><tspan x="0" y="0">O</tspan></text>
      <text class="cls-11" transform="translate(297.55 71.88) rotate(35.4)"><tspan x="0" y="0">U</tspan></text>
      <text class="cls-11" transform="translate(323.11 90.23) rotate(45.25)"><tspan x="0" y="0">C</tspan></text>
      <text class="cls-11" transform="translate(341.8 108.7) rotate(55.25)"><tspan x="0" y="0">A</tspan></text>
      <text class="cls-11" transform="translate(359.65 133.81) rotate(66.7)"><tspan x="0" y="0">N</tspan></text>
      <path class="cls-5" d="M115.7,402.18C49.21,366.5,4,296.33,4,215.6,4,98.74,98.74,4,215.6,4s211.6,94.74,211.6,211.6-94.74,211.6-211.6,211.6c-20.54,0-40.4-2.93-59.18-8.39"/>
      <path class="cls-6" d="M63.74,199.12c8.22-76.38,72.89-135.85,151.45-135.85,82.72,0,150.03,65.93,152.27,148.1"/>
      <path class="cls-31" d="M367.87,207.18c1.96-1.34,6.89-6.64,7.93-7.19,4.06-2.14,21.72-22.15,23.72-22.92-.03,7.51-1.17,14.18.4,21.73.2.95-1.3,2.85-1.99,3.56-1.67,1.49-6.15,5.3-7.41,6.78l-6.01,4.8,2.98-12.13c-20.13,11.74-27.81,25.01-46.71,36.89l-.27-2.42c9.54-8.41,12.62-11.26,20.3-21.54,2.04-2.4,4.87-5.23,7.08-7.56Z"/>
      <path class="cls-15" d="M63.82,175.09c2.22-.56,2.32-.2,4.61.08l1.86-.78-3.26,3.49c-8.83,11.07-7.66,6.22-13.36,11.29,1.23.46,2.44.93,3.66,1.42-.15,1.33-14.37,19.84-16.49,22.99-.03-3.36-.27-9.76.14-12.87,2.65-13.49,6.72-19.92,19.76-25.31l3.09-.3Z"/>
      <path class="cls-48" d="M60.73,175.4l2.85.02c-11.18,6.77-16.85,12.76-20.68,26.12-.36,1.27.1.65-.99,1.52l-.94-2.34c2.65-13.49,6.72-19.92,19.76-25.31Z"/>
      <path class="cls-44" d="M69.46,174.93l-1.04.24c-2.29-.28-2.62-.32-4.85.24l-2.85-.02c3.82-1.1,4.68-.9,8.07-1.15l1.49.14"/>
    </g>
  </g>
</svg>