<?xml version="1.0" encoding="UTF-8"?>
<svg id="Layer_2" data-name="Layer 2" xmlns="http://www.w3.org/2000/svg" viewBox="0 0 703.69 151.85">
  <defs>
    <style>
      .cls-1 {
        letter-spacing: 0em;
      }

      .cls-2 {
        fill: #fff;
      }

      .cls-3 {
        letter-spacing: -.02em;
      }

      .cls-4 {
        letter-spacing: -.02em;
      }

      .cls-5 {
        font-family: TiltWarp-Regular, 'Tilt Warp';
        font-size: 77.94px;
        font-variation-settings: 'XROT' 0, 'YROT' 0;
      }

      .cls-6 {
        letter-spacing: .02em;
      }
    </style>
  </defs>
  <g id="Vintage">
    <g id="Layer_20" data-name="Layer 20">
      <g>
        <text class="cls-5" transform="translate(17.11 118.96)"><tspan class="cls-3" x="0" y="0">T</tspan><tspan class="cls-1" x="40.69" y="0">OUQU</tspan><tspan class="cls-6" x="260.32" y="0">E</tspan><tspan x="303.04" y="0" xml:space="preserve"> &amp; </tspan><tspan class="cls-4" x="385.18" y="0">T</tspan><tspan x="425.87" y="0">OUCAN</tspan></text>
        <path d="M31.25,18.43c1.17-.48,2.5.06,3,1.22.49,1.16-.04,2.5-1.19,3.01-.76.33-1.64.24-2.3-.26s-1.01-1.31-.91-2.13c.1-.82.64-1.53,1.4-1.84Z"/>
        <path d="M56.9,68.44v-2.38l-15.83-.21c-1.46-3-3.3-3.17-6.47-3.27,5.31-3.32,9.07-6.79,10.57-13.18.88-3.9.64-7.96-.69-11.73-.92-2.68-1.46-3.54-1.95-6.34,7.95-.11,16.03-2.6,23.55.74.76.34,1.6.59,2.36.93.2-.17.37-.32.52-.45.55-1.18.47-2.53.33-3.8-1.45-13.18-17.25-17.12-28.27-16.43-.44-1.62-1.63-4.52-3.1-5.5-.57-.38-2.08-.29-2.81-.75-3.85-2.42-6.54-2.7-11.2-2.1.18-2.75-2.19-4.96-5.21-3.5-1.01.47-1.96,1.31-2.33,2.36-.74,2.18-.28,4.29,2.29,5.01-2.67,3.4-2.57,4.78-1.91,9.33,0,.82-1.13,1.36-.85,2.26,0,1.4,2.39,4.54,2.97,5.22.17,2.85.41,5.9.3,8.76-.14,2.18-4.47,5.82-5.88,7.6-5.18,6.55-8.09,15.67-7.43,23.99,5.42-2.07,10.16-6.82,13.64-11.37,1.41-1.84,2.51-3.99,4.08-5.84-1.78,6.23-7.06,11.59-11.88,15.64,4.07-1.47,6.5-2.49,9.92-5.17,5.68-4.47,11.81-15.61,3.95-20.84-1.26-1.12-4.77-.15-5.37-.38,1.44-2.43,6.07-1.31,7.7.2,1.7,1.58,2.67,3.84,2.7,6.16.16,12.18-11.46,20.5-22.45,22.31C6.73,68.35-.09,79.73,0,82.06c.72,1.04,2.58,1.38,3.44.52,3.52-3.5,5.01-10.62,8.03-14.3-1.19,3.65-6.8,15.56-7,17.78,1.19,1.89,4.4.12,5.25-1.51,1.97-3.78,3.02-8.02,4.5-12.04l.7-.36c-.5,1.85-3,9.91-2.7,11.18,2.98,1.28,4.67-3.07,5.18-5.28.73-3.19,1.57-6.43,2.21-9.64,1.57-.02,5.91-.04,7.29.14.97,1.13-.31,1.66,1.56,2.25.45.09,1.14-.55,1.6-.53.4.02.71.29,1.43.34.67.05,1.15-1.09,1.5-1.6.53-.79.75-.58,1.18-.58.56-.04.77.3,1.13.56.47.35.67,1.29,1.21,1.39.54.1,1.13-.41,1.67-.49.34-.04.64.26,1.11.14.37-.09.78-.31,1.15-.63.16-.1.57-.68.72-.91M15.13,46.82l.04.41c-.81,2.2-4.54,6.25-6.14,7.99-.38-1.93,4.62-7.14,6.1-8.4ZM8.12,61.08c-.15-.81-.2-1.53.41-2.15,1.53-1.59,3.51-2.91,4.99-4.54,1.92-2.11,3.45-4.58,5.38-6.7.04.14.04.49.04.66-2.31,4.87-6.68,9.36-10.82,12.73ZM62.39,29.2c-3.71-.85-8.76-.5-12.52-.06-4.94.59-8.4,1.04-11.6-3.59l.75-.18c6.11-.35,11.83-.24,17.81,1.06,1.47.32,6.19,1.76,7.08,2.91-.46.25-.87,0-1.53-.15ZM57.17,16.57c5.28,2.17,7.87,4.88,10.03,10-1.96-2.68-2.6-3.58-5.16-5.59-.1-.06-.21-.12-.32-.17-1.1-.56-2.61-.69-3.15.74-.58,1.54-.14,2.5.54,3.92-8.05-2.14-13.4-2.14-21.65-1.53,1.57-4.03.21-4.85,1.3-8.48.23-.76,1.3-1.16,2.05-1.4,5.71-.28,11.04.33,16.35,2.51ZM39.39,12.33c-2.45.38-2.83-2.23-3.75-4.26,2.6.07,2.93,2.12,3.75,4.26ZM36.34,12.81l-.72.47c-.25,0-.75.04-.9-.13-.82-.89-1.82-2.96-1.98-4.07l.55-.54c.15,0,.62-.01.73.02,1.28.38,2.5,3.11,2.32,4.24ZM26.7,11.66c.35-.5,1.07-.76,1.66-1.05.77.46,1.89,3.17,2.15,4.08-.2.53-.96.77-1.6,1.11-.55-.27-1.98-3.4-2.22-4.14ZM27.56,16.12c-.25.81-.28.62-1.17,1.21l-.19-.04c-.87-1.05-1.77-2.58-2-3.94.22-.79.25-.61,1.1-1.21.89.24,2.14,3.01,2.26,3.97ZM29.96,9.98l.91-.55c.4.02.27.02.66.18,1.1,1.56,1.48,1.92,1.7,3.77-.32.72-.33.53-1.26.95-.08.01-.31-.09-.4-.13-.59-1.05-1.89-3.06-1.62-4.23ZM25.97,5.27c3.29-.3,4.91.29,7.74,1.74-3.95.97-7.5,2.8-10.94,4.9-1.71,1.22-3.27,2.22-4.85,3.61-.76-4.48,2.5-9.02,8.05-10.26ZM19.56,22.98c-2.76-3.43-2.53-3.66-1.4-5.12.62.72,2.13,3.13,2.39,4.06.12.42-.99,1.06-.99,1.06ZM21.7,21.06c-.64-.82-2.23-3.01-2.14-4.03.06-.63.44-.8.95-1.29.74.79,2.18,3.06,2.15,4.19,0,.41-.64.85-.96,1.13ZM24.05,19.01c-.82-.34-2.39-3.03-2.27-3.99.07-.53.66-.91,1.05-1.26.63.77,2.3,3.3,2.2,4.37-.03.31-.64.63-.98.88ZM31.84,67.63c-.12.64-.36,1.13-.89,1.47-.17.02-.3-.09-.37-.23-.34-.72.08-1.52-.72-2.74l-.21-.06c-.58.63,0,1.84-.48,2.96-.05.11-.41.37-.53.37-.12,0-.4-.37-.4-.48-.05-1.65.01-2.68-1.77-3.37-1.02-.39-2.08.42-3,.1.2-.65.47-.78,1-1.31,1.99-.36,5.56-.25,6.98,1.63.36.47.5,1.07.39,1.66ZM31.72,35.28c-1.46-2.12-5.47-3.59-6.13-6.2-1.68-6.59,2.44-11.4,8.04-13.52,5.7-.26.51,8.88,2.52,11.92,1.67,2.54,2.12,2.59,4.91,3.61-.13,4.36,2.66,7.91,2.67,12.28,0,4.09-3.62,3.37-6.08,1.93-4.09-3.5-2.91-6.06-5.93-10.02ZM39.6,67.87c-.08.51,0,.33-.41.63l-.32-.19-.24-1.57c-.21-.31-.56-.64-.83-.92-.76.45.46,2.25-.86,2.86-.65-.54-.64-1.98-1.04-2.44-1.56-1.82-2.4.19-3.88-2.12,2.77-.04,8.3-.71,7.58,3.74Z"/>
        <circle class="cls-2" cx="32.9" cy="19.84" r=".77"/>
        <path class="cls-2" d="M25.4,63.88c2.06.09,3.9,0,5.42,1.65.98,1.06,1.63,2.48.34,3.54l-.35-.06c-.17-1.36-.1-2.7-1.6-2.95.33,1.24.8,2.6-.45,3.33-.75-.67-.41-2.09-1.35-3.35-1.3-.83-2.37-.8-3.82-.42-.17-.54-.17-.31.08-.91.66-.58.9-.61,1.73-.83Z"/>
        <path class="cls-2" d="M31.88,64.05c2.05-.06,5.3-.49,7,.91.8.66,1.1,2.8.34,3.59l-.4-.28-.25-1.75c-.21-.22-.54-.51-.77-.73l-.33.05c.02.29.04.59.05.88.05,1.01.09,1.28-.5,1.95l-.37-.02c-.32-.72-.41-1.47-.54-2.25-1.46-2.05-2.68-.07-4.23-2.35Z"/>
      </g>
    </g>
  </g>
</svg>