<?xml version="1.0" encoding="UTF-8"?>
<svg id="Layer_2" data-name="Layer 2" xmlns="http://www.w3.org/2000/svg" viewBox="0 0 316.26 316.19">
  <defs>
    <style>
      .cls-1 {
        fill: #e9b933;
      }

      .cls-2 {
        fill: #3e3817;
      }

      .cls-3 {
        fill: #619685;
      }

      .cls-4 {
        fill: #df723f;
      }

      .cls-5 {
        fill: #595c57;
      }

      .cls-6, .cls-7 {
        fill: #332f1f;
      }

      .cls-8 {
        fill: #fff;
      }

      .cls-7 {
        font-family: TiltWarp-Regular, 'Tilt Warp';
        font-size: 38px;
        font-variation-settings: 'XROT' 0, 'YROT' 0;
      }

      .cls-9 {
        fill: #eae5d2;
      }

      .cls-10 {
        fill: #61716d;
      }
    </style>
  </defs>
  <g id="Vintage">
    <g id="Layer_9" data-name="Layer 9">
      <g>
        <path class="cls-6" d="M158.81,0C71.39-.37.25,70.24,0,157.65c-.25,87.4,70.49,158.42,157.92,158.54,87.24.12,158.09-70.43,158.34-157.65C316.51,71.32,246.05.38,158.81,0ZM168.46,307.94c-82.76,5.7-154.45-56.81-160.05-139.56C2.82,85.63,65.44,14.04,148.22,8.56c82.62-5.48,154.07,56.99,159.66,139.59,5.58,82.6-56.8,154.11-139.41,159.8Z"/>
        <path class="cls-6" d="M89.18,239.25c-22.57-20.57-35.43-44.8-36.8-75.69-1.2-27.97,8.71-55.28,27.57-75.98,19.07-20.99,45.84-33.36,74.19-34.27,28.12-1.14,55.53,8.95,76.19,28.05,20.76,19.24,32.9,46.03,33.67,74.33,1,28.04-9.28,55.31-28.55,75.71-19.47,20.75-46.47,32.81-74.92,33.46-7.14.17-28.32-1.03-33.64-5.65-.9-1.9-.78-2.52.76-4.2,1.55-.07,2.78.36,4.24.77,31.66,8.91,61.3,1.86,87.52-17.31-13.27.14-26.77,0-39.98.22-2.43,3.19-3.51,4.02-7.69,4.83-4.44,1.36-8.41-7.65-11.96-3.84-2.35,2.52-1.8,4.51-6.07,4.79-5.8.39-7.33.68-9.75-4.82-2.74-1.7-13.81-1.14-17.61-1.1-2.02,9.11-5.24,40.67-19,36.98-.72-.53-1.99-.74-2.91-.97-2.46,5.48-7.46,10.81-14.05,9.41-3.42-2.61-1.73-4.92-.25-8.37-.48-.55-1.44-1.37-2.01-1.9-2.74,1.54-6.81,3.01-9.4.75-3.6-7.37,16.01-32.54,18.4-40.83-3.11-2.76-4.29,1.73-4.65-6.26-1.26-27.91,11.14-50.17,30.41-69.38,4.13-4.11,2.1-19.74,3.16-27.37-5.35-3.94-10.57-11.96-6.81-17.61,1.74-2.61.45-9.27,1.36-13.74.52-4.09,2.99-7.8,2.72-9.47-5.92-3.88-8.9-10.85-2.17-17.22,5.18-3.69,9.68-5.05,14.41-.27,2.59,1.95,3.03,6.78,4.8,6.45,12.28-2.33,23.81,5.48,34.18,10.87,1.1.57,4.46,9,5.1,10.74,28.32-.26,67.65,7.4,69.53,43.28.13,2.55-.13,5.37-1.85,7.36-1.76.47-13.21-5.02-16.91-5.51-12.48-1.64-24-.15-36.41,1.08-2.8.28-8.38.23-10.48,1.04-1.36,3.13,4.79,16.61,5.82,21.78,4.81,24.09-5.71,42.78-26.11,54.97,8.14.73,11.85.41,15.93,8.17l47.32.05c20.39-20.02,32-43.75,32.2-72.72.24-26.93-10.32-52.83-29.31-71.92-18.64-18.7-43.93-29.27-70.34-29.4-27.41-.02-52.64,9.96-72.06,29.42-18.81,19.03-29.33,44.73-29.27,71.48.07,27.55,11.33,52.41,30.79,71.66,1.12,1.12,2.26,2.22,3.42,3.29l-2.73,4.84Z"/>
        <path class="cls-10" d="M88.13,273.7c.52-1.57,14.14-27.28,14.78-28.04l-.48.5,1-.64c-.71,3.65-11.35,27.81-13.28,30.08-.48-.55-1.44-1.37-2.01-1.9Z"/>
        <path class="cls-10" d="M112.65,251.11l.89,1.46c-1.12,3.91-6.06,20.03-6.18,22.97-.72-.53-1.99-.74-2.91-.97,2.46-7.91,5.2-15.74,8.21-23.46Z"/>
        <path class="cls-5" d="M115.37,243.56c-.21,3.18-1.03,5.93-1.83,9l-.89-1.46c.78-3.08,1.48-4.67,2.72-7.55Z"/>
        <path class="cls-9" d="M144.41,121.06c3.58-5.75,7.75-10.29,14.55-12.12,11.43-3.07,10.39,13.02,7.05,18.74-1.93,10.99,3.31,15.02,12.63,18.67.53,12.51,9.1,22.14,6.95,34.39-.72,4.1-9.91,3.89-12.99,2.17-9.3-5.16-9.66-15.97-15.04-24.17-4.35-6.62-13.58-9.11-16.5-16.62-2.37-7,.36-14.79,3.35-21.08Z"/>
        <path class="cls-1" d="M144.41,121.06c3.58-5.75,7.75-10.29,14.55-12.12,11.43-3.07,10.39,13.02,7.05,18.74-9.08,8.35-19.07,5.7-21.6-6.63Z"/>
        <path class="cls-6" d="M155.6,115.43c2.91-.98,6.06.6,7.02,3.51.96,2.92-.65,6.06-3.58,6.99-2.89.92-5.98-.67-6.92-3.55-.94-2.88.61-5.98,3.48-6.95Z"/>
        <path class="cls-1" d="M173.18,108.36c2.16-2.77,3.77-3.69,7.39-3.93,15.57-1.01,38.47,3.2,50.96,13.13-1.05.54-2.87,1.56-3.94,1.8l-.3.4c-4.79,2.3-5.34,3.63-5.23,8.89l3.02,4.88c-18.91-6.04-35.45-5.68-54.86-4.5,1.76-4.69,2.4-7.21,2.4-12.2-.47-3.37-.65-5.31.57-8.47Z"/>
        <path class="cls-4" d="M172.61,116.83c14.07-.36,24.62.07,37.87,6.05,3.95,1.78,7.76,4.15,11.57,5.78l3.02,4.88c-18.91-6.04-35.45-5.68-54.86-4.5,1.76-4.69,2.4-7.21,2.4-12.2Z"/>
        <path class="cls-9" d="M173.18,108.36c2.01-2.77,3.77-3.69,7.39-3.93,15.57-1.01,38.47,3.2,50.96,13.13-1.05.54-2.87,1.56-3.94,1.8-6.81-7.51-28.78-10.86-38.4-11.31-5.11-.24-10.84.29-16.01.31Z"/>
        <path class="cls-4" d="M187.06,131.99c18.11-.22,36.22,2.34,51.86,11.84-5.18-1.21-8.67-1.91-13.93-2.59-12.6-.49-23.07.72-35.51,1.74-7.4.61-13.15-4.98-18.01-9.98,4.68-.7,10.75-.8,15.59-1Z"/>
        <path class="cls-10" d="M151.08,174.26c1.65,1.33,2,4.11,2.03,6.13.27,20.49-17.46,38.73-36.11,44.74-6.31,2.03-12.67,2.57-19.24,2.85,13.14-9.52,20.32-14.59,30.15-27.9,2.49-3.72,4.77-6.83,7.48-10.4-5.23,15.12-15.42,25.43-27.43,35.53,10.66-2.73,20.42-8.24,28.26-15.96,10.16-10.05,14.81-20.74,14.85-34.98Z"/>
        <path class="cls-9" d="M141.36,82.97c8.14-.89,12.62.48,19.65,4.16-11.54,3.98-16.24,5.84-26.41,12.46-3.97,2.52-7.95,5.87-11.41,9.05.37-13.11,4.79-21.94,18.17-25.67Z"/>
        <path class="cls-4" d="M166.37,90.29c1.57-.16,2.49-.6,3.86.56,2.07,1.75,5.67,6.53,4.29,9.51-.78.34-1.54.68-2.35.95-1.14.08-2.32.15-3.45.29-1.05.3-4.18,1.13-5.05,1.55l-2.4.85c-1.34.38-3.67,1.36-5.06,1.91-1.47-3.92-4.17-7.15-4.36-10.46,1.12-1.93,1.57-1.6,4.09-2.7.81,0,1.81-.52,2.6-.85,2.14-.58,3.14-.95,5.36-.83,1,.04,1.56-.34,2.47-.76Z"/>
        <path class="cls-4" d="M166.37,90.29c1.57-.16,2.49-.6,3.86.56,2.07,1.75,5.67,6.53,4.29,9.51-.78.34-1.54.68-2.35.95-1.14.08-2.32.15-3.45.29-1.51-3.55-3.12-7.07-4.81-10.54,1,.04,1.56-.34,2.47-.76Z"/>
        <path class="cls-2" d="M163.9,91.05c1,.04,1.56-.34,2.47-.76,1.04,2.13,4.47,9.83,5.8,11.01-1.14.08-2.32.15-3.45.29-1.51-3.55-3.12-7.07-4.81-10.54Z"/>
        <path class="cls-4" d="M158.54,91.88c2.14-.58,3.14-.95,5.36-.83,1.7,3.47,3.3,6.98,4.81,10.54-1.05.3-4.18,1.13-5.05,1.55l-5.13-11.25Z"/>
        <path class="cls-2" d="M155.94,92.73c.81,0,1.81-.52,2.6-.85l5.13,11.25-2.4.85c-1.73-3.78-3.5-7.53-5.33-11.25Z"/>
        <path class="cls-4" d="M143.9,98.7c1.83-1.21,2.97-1.94,4.93-2.92l5.26,10.89-4.62,2.78c-.86.68-1.08.95-2.16,1.23-1.22.35-3.25,1.75-4.41,2.48l-5.99-10.66c2.22-1.4,2.96-2.19,5.28-1.95l1.49-.54.21-1.31Z"/>
        <path class="cls-4" d="M136.91,102.5c2.22-1.4,2.96-2.19,5.28-1.95,1.67,3.39,3.38,6.77,5.11,10.14-1.22.35-3.25,1.75-4.41,2.48l-5.99-10.66Z"/>
        <path class="cls-2" d="M142.19,100.55l1.06-1.04.64-.8c1.55,3,3.9,7.96,5.57,10.75-.86.68-1.08.95-2.16,1.23-1.73-3.36-3.44-6.74-5.11-10.14Z"/>
        <path class="cls-4" d="M125.84,112c.66-1.45.74-1.85,2.12-2.58,3.2,1.06,5.45,6.52,6.67,9.48-.92,1.57-1.54,2.05-2.84,3.25-.64.59-1.39,1.34-2.07,1.84l-1.7,1.54c-4.12.46-5.75-5.64-6.23-8.78.65-2,.19-1.26,1.99-2.74,1.14-.59,1.27-.94,2.06-2.01Z"/>
        <path class="cls-4" d="M123.79,114.01c1.81,3.16,3.92,7.05,5.94,9.98l-1.7,1.54c-4.12.46-5.75-5.64-6.23-8.78.65-2,.19-1.26,1.99-2.74Z"/>
        <path class="cls-2" d="M125.84,112c1.54,2.68,4.28,7.79,5.95,10.15-.64.59-1.39,1.34-2.07,1.84-2.01-2.93-4.12-6.82-5.94-9.98,1.14-.59,1.27-.94,2.06-2.01Z"/>
        <path class="cls-4" d="M128.66,72.45h1.06c2.01.4,3.21,1.74,4.54,3.38,4.37,5.3.43,4.36-3.5,7.93,0,0-4.25,4.27-5.47,3.47-8-5.31-5.06-13.85,3.37-14.77Z"/>
        <path class="cls-3" d="M140.76,227.97c5.05.22,9.57,0,13.29,3.91,2.4,2.52,3.99,5.88.82,8.37l-.86-.15c-.41-3.21-.24-6.38-3.92-6.98.8,2.94,1.95,6.15-1.1,7.89-1.83-1.58-1.01-4.95-3.31-7.93-3.18-1.97-5.81-1.89-9.36-.99-.43-1.27-.42-.72.19-2.16,1.62-1.38,2.2-1.43,4.24-1.96Z"/>
        <path class="cls-4" d="M123.54,227.82c.23-.05,1.63-.65,1.9-.62-.65,5.02-12.03,12.37-16.01,12.37-1.46-.32-1.96-1.16-2.23-1.59-1.07-1.7-1.37-3.7-.91-4.96,2.72-2.01,12.8-3.86,17.25-5.21Z"/>
        <path class="cls-10" d="M123.05,190.05l.13.08.18.74c-6.14,12.2-14.13,20.25-24.56,28.66-2.73-2.46,2.32-7,4.27-8.22,8.73-5.47,12.98-14.54,19.98-21.25Z"/>
        <path class="cls-3" d="M156.64,228.36c5.04-.15,13-1.15,17.16,2.16,1.96,1.56,2.7,6.63.82,8.49l-.98-.67-.62-4.13c-.51-.51-1.33-1.21-1.89-1.72l-.8.12c.05.69.09,1.39.13,2.08.12,2.4.21,3.03-1.21,4.61l-.91-.06c-.79-1.71-1-3.47-1.32-5.33-3.58-4.86-6.58-.17-10.38-5.56Z"/>
        <path class="cls-4" d="M134.75,103.83c1.71,1.4,5.29,8.19,5.05,10.63-.13,1.24-1.73,2.06-2.7,2.8-1.72-1.75-5.32-7.81-5.05-10.46.12-1.22,1.77-2.2,2.7-2.97Z"/>
        <path class="cls-4" d="M231.53,117.56c6.7,5.41,9.81,10.57,12.93,18.58-5.21-7.35-8.57-12.64-17.17-16.38l.3-.4c1.07-.24,2.89-1.26,3.94-1.8Z"/>
        <path class="cls-10" d="M113.61,187.79l.38.43c-1.25,4.91-10.15,13.64-13.89,17.44-.48-.5-.27-.31-.42-1.22,1.32-4.22,10.46-13.24,13.94-16.64Z"/>
        <circle class="cls-8" cx="159.11" cy="118.91" r="1.73"/>
        <text class="cls-7" transform="translate(45.52 143.76) rotate(-77.6)"><tspan x="0" y="0">T</tspan></text>
        <text class="cls-7" transform="translate(48.99 125.39) rotate(-66.24)"><tspan x="0" y="0">O</tspan></text>
        <text class="cls-7" transform="translate(59.72 101) rotate(-53.38)"><tspan x="0" y="0">U</tspan></text>
        <text class="cls-7" transform="translate(73.99 81.33) rotate(-40.6)"><tspan x="0" y="0">Q</tspan></text>
        <text class="cls-7" transform="translate(94.2 63.98) rotate(-27.78)"><tspan x="0" y="0">U</tspan></text>
        <text class="cls-7" transform="translate(115.85 52.75) rotate(-16.78)"><tspan x="0" y="0">E</tspan></text>
        <text class="cls-7" transform="translate(134.43 47.47) rotate(-10)"><tspan x="0" y="0"> </tspan></text>
        <text class="cls-7" transform="translate(141.41 45.64) rotate(-2.34)"><tspan x="0" y="0">&amp;</tspan></text>
        <text class="cls-7" transform="translate(164.64 45.17) rotate(5.26)"><tspan x="0" y="0"> </tspan></text>
        <text class="cls-7" transform="translate(171.9 45.41) rotate(12.11)"><tspan x="0" y="0">T</tspan></text>
        <text class="cls-7" transform="translate(190.29 48.79) rotate(23.47)"><tspan x="0" y="0">O</tspan></text>
        <text class="cls-7" transform="translate(214.73 59.39) rotate(36.33)"><tspan x="0" y="0">U</tspan></text>
        <text class="cls-7" transform="translate(234.34 73.88) rotate(47.75)"><tspan x="0" y="0">C</tspan></text>
        <text class="cls-7" transform="translate(248.71 89.32) rotate(59.04)"><tspan x="0" y="0">A</tspan></text>
        <text class="cls-7" transform="translate(261.08 109.52) rotate(71.39)"><tspan x="0" y="0">N</tspan></text>
      </g>
    </g>
  </g>
</svg>