<?xml version="1.0" encoding="UTF-8" standalone="no"?><!DOCTYPE svg PUBLIC "-//W3C//DTD SVG 1.1//EN" "http://www.w3.org/Graphics/SVG/1.1/DTD/svg11.dtd"><svg width="100%" height="100%" viewBox="0 0 797 797" version="1.1" xmlns="http://www.w3.org/2000/svg" xmlns:xlink="http://www.w3.org/1999/xlink" xml:space="preserve" xmlns:serif="http://www.serif.com/" style="fill-rule:evenodd;clip-rule:evenodd;stroke-linejoin:round;stroke-miterlimit:2;"><g><circle cx="398.195" cy="398.101" r="398.031" style="fill:#fff;"/><path d="M421.85,775.37c-208.349,13.046 -387.777,-145.318 -400.669,-353.619c-12.892,-208.301 145.636,-387.571 354.004,-400.307c208.147,-12.723 387.216,145.573 400.108,353.652c12.869,208.085 -145.318,387.244 -353.443,400.274m-13.481,-775.238c-220.181,-5.628 -403.106,168.515 -408.258,388.656c-5.152,220.138 169.431,402.645 389.635,407.322c219.532,4.664 401.387,-169.227 406.532,-388.694c5.142,-219.469 -168.397,-401.676 -387.908,-407.284" style="fill-rule:nonzero;"/><g><path d="M123.572,313.355c-7.152,-2.419 -36.178,-12.237 -43.33,-14.657c-0.713,2.107 -3.62,10.701 -4.332,12.808c-2.162,-0.731 -11.061,-3.742 -13.224,-4.473c2.232,-6.598 11.328,-33.489 13.56,-40.087c2.162,0.731 11.061,3.742 13.224,4.473c-0.694,2.051 -3.592,10.618 -4.304,12.725c7.152,2.419 36.178,12.237 43.33,14.657c-0.806,2.384 -4.098,12.115 -4.923,14.554Z" style="fill-rule:nonzero;"/><path d="M149.393,257.371c-2.108,3.716 -4.732,6.77 -7.872,9.161c-3.14,2.391 -6.581,4.039 -10.324,4.944c-3.743,0.905 -7.643,1.048 -11.7,0.429c-4.057,-0.619 -8.045,-2.04 -11.965,-4.264c-3.92,-2.224 -7.174,-4.911 -9.761,-8.061c-2.587,-3.15 -4.44,-6.556 -5.559,-10.219c-1.119,-3.663 -1.457,-7.455 -1.016,-11.377c0.441,-3.922 1.716,-7.741 3.825,-11.457c2.108,-3.716 4.725,-6.757 7.85,-9.123c3.125,-2.366 6.554,-4.021 10.286,-4.965c3.732,-0.945 7.614,-1.115 11.645,-0.51c4.031,0.604 8.007,2.019 11.927,4.242c3.92,2.224 7.186,4.918 9.799,8.082c2.613,3.164 4.484,6.598 5.613,10.301c1.13,3.703 1.481,7.502 1.054,11.398c-0.427,3.896 -1.695,7.703 -3.803,11.419Zm-12.371,-7.018c1.415,-2.495 2.004,-4.987 1.768,-7.476c-0.236,-2.489 -1.193,-4.866 -2.87,-7.129c-1.677,-2.263 -3.992,-4.233 -6.944,-5.908c-2.953,-1.675 -5.805,-2.637 -8.558,-2.886c-2.752,-0.249 -5.257,0.163 -7.516,1.238c-2.258,1.074 -4.095,2.859 -5.51,5.353c-1.386,2.444 -1.981,4.916 -1.784,7.416c0.197,2.5 1.121,4.875 2.772,7.124c1.651,2.249 3.954,4.211 6.906,5.886c2.953,1.675 5.831,2.652 8.634,2.93c2.803,0.278 5.341,-0.133 7.614,-1.233c2.273,-1.1 4.102,-2.871 5.488,-5.315Z" style="fill-rule:nonzero;"/><path d="M183.947,172.924c2.745,2.462 4.798,5.148 6.158,8.058c1.36,2.91 2.073,5.908 2.137,8.992c0.064,3.084 -0.496,6.12 -1.681,9.107c-1.185,2.987 -2.949,5.787 -5.294,8.402c-2.384,2.658 -4.986,4.727 -7.807,6.207c-2.821,1.48 -5.738,2.343 -8.75,2.59c-3.012,0.247 -6.018,-0.149 -9.018,-1.188c-2.999,-1.039 -5.872,-2.789 -8.617,-5.251c-4.575,-4.103 -23.138,-20.75 -27.714,-24.854c1.719,-1.917 8.578,-9.565 10.258,-11.438c4.488,4.025 22.572,20.242 27.06,24.267c2.353,2.11 4.835,3.156 7.445,3.139c2.61,-0.018 4.834,-1.051 6.67,-3.099c1.837,-2.048 2.612,-4.36 2.327,-6.935c-0.285,-2.575 -1.604,-4.918 -3.957,-7.028c-4.488,-4.025 -22.572,-20.242 -27.06,-24.267c1.719,-1.917 8.578,-9.565 10.258,-11.438c4.532,4.064 23.051,20.672 27.583,24.736Z" style="fill-rule:nonzero;"/><path d="M231.027,166.28c-3.463,2.503 -7.119,4.188 -10.969,5.057c-3.85,0.868 -7.665,0.936 -11.445,0.201c-3.78,-0.734 -7.386,-2.227 -10.818,-4.477c-3.432,-2.25 -6.467,-5.202 -9.107,-8.854c-2.64,-3.653 -4.481,-7.45 -5.524,-11.39c-1.042,-3.941 -1.311,-7.809 -0.804,-11.605c0.506,-3.796 1.776,-7.386 3.808,-10.768c2.033,-3.383 4.781,-6.325 8.244,-8.828c3.463,-2.503 7.108,-4.18 10.934,-5.031c3.826,-0.851 7.633,-0.93 11.42,-0.237c3.787,0.693 7.388,2.153 10.802,4.38c3.414,2.226 6.442,5.166 9.081,8.819c2.846,3.937 4.772,8.052 5.779,12.343c1.007,4.291 1.124,8.45 0.35,12.475c1.453,0.611 2.955,1.241 4.506,1.889c1.552,0.648 3.054,1.278 4.506,1.889c-0.927,2.114 -1.849,4.261 -2.766,6.44c-0.917,2.179 -1.839,4.326 -2.766,6.44c-1.569,-0.672 -3.158,-1.347 -4.767,-2.025c-1.61,-0.678 -3.199,-1.353 -4.767,-2.025c-0.825,0.957 -1.708,1.884 -2.648,2.781c-0.941,0.897 -1.957,1.739 -3.048,2.528Zm-29.602,-17.278c1.954,2.704 4.124,4.783 6.51,6.236c2.386,1.453 4.838,2.173 7.355,2.159c2.517,-0.014 4.908,-0.803 7.172,-2.367c-1.65,-0.685 -3.289,-1.378 -4.916,-2.08c-1.627,-0.702 -3.248,-1.372 -4.864,-2.009c0.927,-2.114 1.849,-4.261 2.766,-6.44c0.917,-2.179 1.839,-4.326 2.766,-6.44c1.616,0.637 3.238,1.307 4.864,2.009c1.627,0.702 3.265,1.395 4.916,2.08c-0.219,-1.503 -0.672,-3.053 -1.358,-4.652c-0.686,-1.599 -1.595,-3.181 -2.726,-4.746c-1.988,-2.751 -4.182,-4.813 -6.582,-6.184c-2.399,-1.371 -4.849,-2.038 -7.349,-2.001c-2.5,0.038 -4.913,0.896 -7.237,2.576c-2.277,1.646 -3.846,3.646 -4.708,6.002c-0.861,2.356 -1.009,4.9 -0.442,7.632c0.566,2.732 1.844,5.474 3.832,8.225Z" style="fill-rule:nonzero;"/><path d="M297.447,103.936c1.471,3.381 2.219,6.678 2.244,9.891c0.025,3.212 -0.575,6.234 -1.801,9.065c-1.226,2.831 -2.999,5.358 -5.319,7.58c-2.32,2.222 -5.091,4.034 -8.311,5.435c-3.274,1.424 -6.501,2.222 -9.682,2.393c-3.181,0.171 -6.192,-0.258 -9.034,-1.288c-2.842,-1.03 -5.41,-2.641 -7.704,-4.834c-2.295,-2.193 -4.177,-4.981 -5.648,-8.362c-2.452,-5.636 -12.399,-28.5 -14.85,-34.135c2.362,-1.027 11.781,-5.125 14.089,-6.129c2.405,5.528 12.095,27.802 14.5,33.33c1.261,2.898 3.082,4.883 5.462,5.953c2.381,1.071 4.832,1.057 7.355,-0.04c2.523,-1.097 4.19,-2.876 5.003,-5.336c0.813,-2.46 0.589,-5.139 -0.672,-8.037c-2.405,-5.528 -12.095,-27.802 -14.5,-33.33c2.362,-1.027 11.781,-5.125 14.089,-6.129c2.428,5.582 12.352,28.392 14.78,33.974Z" style="fill-rule:nonzero;"/><path d="M316.763,121.998c-2.184,-9.588 -11.076,-48.623 -13.26,-58.21c5.764,-1.313 29.162,-6.643 34.926,-7.956c0.494,2.169 2.548,11.186 3.042,13.354c-3.31,0.754 -16.636,3.789 -19.946,4.543c0.325,1.427 1.605,7.048 1.93,8.475c3.025,-0.689 15.266,-3.477 18.234,-4.153c0.481,2.112 2.45,10.758 2.944,12.926c-2.968,0.676 -15.209,3.464 -18.234,4.153c0.377,1.655 1.924,8.446 2.301,10.101c3.31,-0.754 16.636,-3.789 19.946,-4.543c0.494,2.169 2.548,11.186 3.042,13.354c-5.764,1.313 -29.162,6.643 -34.926,7.956Z" style="fill-rule:nonzero;"/><path d="M423.807,93.635c-0.073,3.921 -1.117,7.297 -3.13,10.128c-2.014,2.831 -4.762,4.99 -8.243,6.476c-3.482,1.486 -7.505,2.187 -12.069,2.102c-4.272,-0.08 -8.048,-0.838 -11.329,-2.275c-3.281,-1.437 -5.848,-3.475 -7.701,-6.115c-1.853,-2.64 -2.747,-5.744 -2.68,-9.314c0.055,-2.926 0.763,-5.606 2.126,-8.039c1.363,-2.433 3.406,-4.503 6.131,-6.208c-2.135,-1.679 -3.694,-3.625 -4.677,-5.839c-0.983,-2.214 -1.45,-4.637 -1.401,-7.271c0.072,-3.862 1.171,-7.062 3.296,-9.598c2.125,-2.536 4.956,-4.415 8.491,-5.637c3.535,-1.222 7.44,-1.837 11.713,-1.845c4.274,-0.008 8.595,0.585 12.963,1.778c-0.044,2.341 -0.222,11.909 -0.267,14.308c-2.445,-0.748 -4.908,-1.292 -7.39,-1.63c-2.482,-0.339 -4.749,-0.41 -6.801,-0.215c-2.053,0.196 -3.715,0.663 -4.987,1.4c-1.272,0.737 -1.922,1.808 -1.948,3.213c-0.034,1.814 1.172,3.081 3.617,3.799c2.445,0.719 5.833,1.119 10.164,1.199c0.02,-1.053 0.1,-5.355 0.119,-6.408c2.399,0.045 12.143,0.226 14.484,0.27c-0.02,1.053 -0.1,5.355 -0.119,6.408c0.878,0.016 4.565,0.085 5.442,0.101c-0.04,2.165 -0.202,10.826 -0.242,12.992c-0.878,-0.016 -4.565,-0.085 -5.442,-0.101c-0.02,1.053 -0.098,5.267 -0.118,6.32Zm-29.751,-0.906c-0.032,1.697 0.571,3.128 1.808,4.293c1.237,1.165 2.997,1.768 5.279,1.811c2.458,0.046 4.429,-0.518 5.915,-1.69c1.485,-1.172 2.248,-2.841 2.289,-5.007c0.015,-0.819 0.08,-4.272 0.095,-5.091c-4.799,-0.089 -8.551,0.192 -11.256,0.844c-2.705,0.652 -4.082,2.266 -4.13,4.841Z" style="fill-rule:nonzero;"/><path d="M464.495,118.456c1.934,-7.299 9.784,-36.917 11.719,-44.215c-2.15,-0.57 -10.919,-2.894 -13.069,-3.464c0.585,-2.207 2.992,-11.287 3.576,-13.494c6.733,1.784 34.173,9.057 40.906,10.841c-0.585,2.207 -2.992,11.287 -3.576,13.494c-2.093,-0.555 -10.835,-2.872 -12.985,-3.441c-1.934,7.299 -9.784,36.917 -11.719,44.215c-2.433,-0.645 -12.362,-3.276 -14.852,-3.936Z" style="fill-rule:nonzero;"/><path d="M522.167,140.514c-3.848,-1.857 -7.069,-4.273 -9.663,-7.247c-2.594,-2.974 -4.467,-6.299 -5.617,-9.974c-1.151,-3.675 -1.552,-7.557 -1.204,-11.646c0.349,-4.089 1.502,-8.163 3.461,-12.221c1.959,-4.059 4.424,-7.484 7.396,-10.274c2.971,-2.79 6.247,-4.865 9.828,-6.224c3.58,-1.359 7.342,-1.948 11.284,-1.768c3.942,0.18 7.838,1.199 11.686,3.056c3.848,1.857 7.056,4.266 9.624,7.228c2.568,2.961 4.447,6.273 5.637,9.934c1.19,3.661 1.617,7.523 1.281,11.586c-0.336,4.062 -1.483,8.123 -3.442,12.182c-1.959,4.059 -4.43,7.497 -7.415,10.313c-2.984,2.817 -6.286,4.911 -9.906,6.284c-3.62,1.373 -7.387,1.975 -11.303,1.808c-3.916,-0.168 -7.798,-1.18 -11.646,-3.037Zm6.182,-12.809c2.583,1.247 5.109,1.669 7.577,1.268c2.468,-0.401 4.776,-1.513 6.923,-3.337c2.147,-1.823 3.959,-4.264 5.434,-7.321c1.476,-3.057 2.246,-5.967 2.312,-8.73c0.066,-2.763 -0.512,-5.235 -1.733,-7.417c-1.222,-2.182 -3.124,-3.896 -5.707,-5.143c-2.53,-1.221 -5.036,-1.651 -7.518,-1.289c-2.482,0.362 -4.79,1.441 -6.925,3.238c-2.135,1.797 -3.94,4.224 -5.415,7.281c-1.476,3.057 -2.259,5.994 -2.351,8.809c-0.091,2.815 0.487,5.32 1.735,7.515c1.248,2.195 3.137,3.902 5.667,5.124Z" style="fill-rule:nonzero;"/><path d="M608.575,169.304c-2.274,2.902 -4.818,5.129 -7.632,6.679c-2.814,1.55 -5.757,2.46 -8.831,2.729c-3.073,0.269 -6.139,-0.089 -9.198,-1.073c-3.059,-0.984 -5.97,-2.559 -8.734,-4.725c-2.81,-2.202 -5.047,-4.662 -6.711,-7.378c-1.664,-2.717 -2.719,-5.569 -3.165,-8.559c-0.446,-2.989 -0.25,-6.015 0.587,-9.077c0.838,-3.062 2.394,-6.044 4.668,-8.946c3.791,-4.837 19.17,-24.464 22.961,-29.301c2.027,1.588 10.113,7.924 12.094,9.477c-3.719,4.745 -18.701,23.865 -22.419,28.61c-1.95,2.488 -2.829,5.033 -2.638,7.637c0.191,2.603 1.369,4.753 3.534,6.45c2.165,1.697 4.523,2.318 7.074,1.862c2.55,-0.455 4.8,-1.927 6.75,-4.415c3.719,-4.745 18.701,-23.865 22.419,-28.61c2.027,1.588 10.113,7.924 12.094,9.477c-3.755,4.791 -19.098,24.371 -22.853,29.163Z" style="fill-rule:nonzero;"/><path d="M622.56,173.021c3.395,-2.964 6.965,-5.128 10.708,-6.491c3.743,-1.364 7.517,-1.958 11.321,-1.783c3.805,0.175 7.492,1.151 11.064,2.929c3.571,1.777 6.873,4.314 9.906,7.61c3.033,3.296 5.65,7.363 7.852,12.2c-1.852,1.617 -9.326,8.141 -11.178,9.757c-1.036,-3.679 -2.582,-6.875 -4.638,-9.586c-2.056,-2.711 -4.43,-4.719 -7.12,-6.021c-2.691,-1.303 -5.534,-1.734 -8.53,-1.295c-2.996,0.44 -5.993,1.968 -8.991,4.585c-2.998,2.617 -4.918,5.38 -5.758,8.289c-0.84,2.909 -0.797,5.785 0.13,8.627c0.927,2.842 2.595,5.465 5.004,7.869c2.409,2.404 5.366,4.367 8.872,5.891c-1.852,1.617 -9.326,8.141 -11.178,9.757c-4.495,-2.836 -8.171,-5.978 -11.027,-9.429c-2.856,-3.45 -4.924,-7.065 -6.202,-10.843c-1.278,-3.779 -1.747,-7.565 -1.407,-11.358c0.34,-3.793 1.439,-7.452 3.296,-10.977c1.857,-3.524 4.483,-6.769 7.879,-9.732Z" style="fill-rule:nonzero;"/><path d="M632.339,229.288c10.032,-2.303 20.174,-4.652 30.423,-7.048c10.25,-2.395 20.391,-4.745 30.423,-7.048c1.733,2.987 8.799,15.162 10.532,18.149c-6.977,7.568 -14.048,15.207 -21.213,22.918c-7.165,7.711 -14.236,15.35 -21.213,22.918c-1.263,-2.177 -6.463,-11.137 -7.756,-13.365c1.326,-1.446 2.68,-2.875 4.061,-4.285c1.381,-1.41 2.734,-2.839 4.061,-4.285c-1.675,-2.886 -8.417,-14.504 -10.092,-17.389c-1.914,0.434 -3.825,0.9 -5.735,1.4c-1.91,0.499 -3.821,0.966 -5.735,1.4c-1.263,-2.177 -6.463,-11.137 -7.756,-13.365Zm32.48,7.341c1.028,1.772 5.185,8.935 6.214,10.707c2.487,-2.594 4.985,-5.228 7.494,-7.902c2.509,-2.674 5.007,-5.308 7.494,-7.902c-3.486,0.873 -7.02,1.722 -10.601,2.548c-3.581,0.826 -7.115,1.676 -10.601,2.548Z" style="fill-rule:nonzero;"/><path d="M663.373,284.838c9.34,-3.075 47.367,-15.595 56.707,-18.67c0.805,2.446 4.045,12.287 4.832,14.677c-4.311,4.685 -8.665,9.431 -13.06,14.236c-4.395,4.805 -8.748,9.551 -13.06,14.236c5.282,-1.739 26.741,-8.804 32.023,-10.543c0.787,2.391 3.935,11.953 4.722,14.344c-9.34,3.075 -47.367,15.595 -56.707,18.67c-0.787,-2.391 -4.027,-12.231 -4.832,-14.677c4.311,-4.685 8.665,-9.431 13.06,-14.236c4.395,-4.805 8.748,-9.551 13.06,-14.236c-5.282,1.739 -26.741,8.804 -32.023,10.543c-0.787,-2.391 -3.935,-11.953 -4.722,-14.344Z" style="fill-rule:nonzero;"/></g><g><path d="M390.762,290.79c7.239,-2.995 15.535,0.385 18.626,7.584c3.071,7.199 -0.224,15.532 -7.382,18.694c-4.697,2.077 -10.166,1.465 -14.294,-1.603c-4.128,-3.068 -6.303,-8.122 -5.671,-13.229c0.649,-5.104 3.964,-9.476 8.721,-11.445" style="fill-rule:nonzero;"/><path d="M442.59,597.896c-0.508,3.144 0.06,2.034 -2.522,3.924l-1.991,-1.175l-1.505,-9.748c-1.321,-1.938 -3.476,-3.987 -5.165,-5.714c-4.737,2.799 2.847,13.984 -5.369,17.735c-4.065,-3.338 -4.005,-12.273 -6.443,-15.125c-9.7,-11.329 -14.885,1.16 -24.095,-13.146c17.181,-0.247 51.543,-4.427 47.09,23.249m-48.9,-202.394c-9.069,-13.149 -33.997,-22.303 -38.105,-38.482c-10.41,-40.939 15.13,-70.836 49.917,-83.974c35.399,-1.591 3.194,55.125 15.638,74.042c10.367,15.794 13.194,16.063 30.518,22.409c-0.813,27.083 16.529,49.154 16.592,76.265c0.06,25.401 -22.489,20.956 -37.76,12.004c-25.374,-21.734 -18.075,-37.644 -36.801,-62.263m0.753,200.871c-0.753,3.992 -2.238,7.027 -5.53,9.122c-1.077,0.098 -1.875,-0.556 -2.27,-1.399c-2.094,-4.478 0.486,-9.461 -4.493,-16.995l-1.331,-0.385c-3.577,3.889 -0.025,11.442 -3.01,18.389c-0.289,0.677 -2.532,2.275 -3.27,2.275c-0.727,-0.003 -2.467,-2.28 -2.489,-3.008c-0.294,-10.244 0.068,-16.675 -10.972,-20.909c-6.365,-2.444 -12.912,2.587 -18.626,0.619c1.264,-4.035 2.922,-4.83 6.214,-8.13c12.351,-2.263 34.553,-1.543 43.378,10.138c2.235,2.927 3.111,6.668 2.399,10.282m-48.432,-301.976c-5.104,-2.104 -14.843,-18.83 -14.07,-24.752c0.425,-3.317 4.105,-5.62 6.527,-7.82c3.924,4.777 14.294,20.511 13.642,27.133c-0.184,1.918 -4.005,3.934 -6.099,5.439m-14.538,12.774c-4.007,-5.122 -13.846,-18.671 -13.297,-25.021c0.345,-3.886 2.744,-4.953 5.895,-8.004c4.596,4.908 13.562,19.021 13.38,26.016c-0.063,2.562 -4.007,5.268 -5.978,7.01m-13.32,11.918c-17.131,-21.286 -15.703,-22.744 -8.714,-31.832c3.821,4.49 13.229,19.469 14.835,25.23c0.753,2.613 -6.121,6.602 -6.121,6.602m39.791,-109.997c20.456,-1.86 30.501,1.777 48.087,10.795c-24.521,6.021 -46.582,17.402 -67.951,30.463c-10.594,7.556 -20.322,13.811 -30.121,22.441c-4.719,-27.84 15.502,-56.018 49.985,-63.7m24.787,29.24l5.673,-3.408c2.459,0.118 1.707,0.098 4.085,1.145c6.813,9.721 9.192,11.928 10.574,23.418c-1.973,4.465 -2.034,3.32 -7.808,5.895c-0.468,0.073 -1.91,-0.574 -2.482,-0.78c-3.68,-6.522 -11.732,-19.021 -10.043,-26.27m-14.863,38.137c-1.525,5.036 -1.749,3.854 -7.259,7.526l-1.18,-0.264c-5.429,-6.529 -10.979,-16.006 -12.404,-24.448c1.344,-4.936 1.568,-3.778 6.834,-7.498c5.53,1.462 13.277,18.686 14.01,24.684m-5.389,-27.672c2.195,-3.121 6.67,-4.742 10.31,-6.529c4.797,2.837 11.712,19.706 13.378,25.356c-1.261,3.287 -5.978,4.757 -9.922,6.874c-3.395,-1.646 -12.28,-21.123 -13.765,-25.701m59.899,7.095l-4.453,2.912c-1.545,-0.015 -4.677,0.244 -5.613,-0.778c-5.102,-5.535 -11.284,-18.382 -12.301,-25.255l3.416,-3.36c0.956,-0.003 3.823,-0.073 4.556,0.141c7.929,2.338 15.515,19.348 14.395,26.34m18.91,-2.973c-15.23,2.368 -17.589,-13.841 -23.322,-26.446c16.164,0.448 18.198,13.169 23.322,26.446m110.448,26.328c32.776,13.453 48.88,30.312 62.298,62.137c-12.18,-16.625 -16.124,-22.243 -32.064,-34.739c-0.652,-0.365 -1.301,-0.717 -1.973,-1.057c-6.811,-3.456 -16.204,-4.309 -19.56,4.621c-3.599,9.585 -0.873,15.535 3.375,24.367c-50.018,-13.28 -83.222,-13.285 -134.44,-9.499c9.741,-25.052 1.281,-30.126 8.052,-52.696c1.425,-4.745 8.052,-7.234 12.728,-8.719c35.459,-1.719 68.543,2.026 101.583,15.585m32.409,78.455c-23.015,-5.286 -54.43,-3.134 -77.752,-0.352c-30.682,3.657 -52.172,6.454 -72.079,-22.278l4.677,-1.118c37.921,-2.195 73.504,-1.467 110.629,6.584c9.132,1.981 38.45,10.959 44.002,18.08c-2.869,1.568 -5.429,0.055 -9.476,-0.916m-337.075,198.042c-0.914,-5.034 -1.261,-9.529 2.562,-13.37c9.476,-9.887 21.777,-18.095 30.967,-28.175c11.936,-13.076 21.452,-28.47 33.408,-41.613c0.221,0.891 0.221,3.048 0.242,4.083c-14.375,30.264 -41.518,58.158 -67.178,79.076m43.574,-88.611l0.264,2.572c-5.044,13.665 -28.203,38.837 -38.165,49.625c-2.338,-11.961 28.669,-44.357 37.901,-52.197m344.07,-191.15c-33.285,-62.897 -90.237,-109.965 -158.291,-130.815c-65.938,-19.851 -141.779,-13.33 -202.512,19.439c-62.525,32.993 -109.351,89.507 -130.131,157.07c-20.78,67.818 -13.765,141.107 19.479,203.763c14.926,27.584 37.413,56.61 61.709,76.688l6.73,-11.611c-54.614,-55.386 -86.373,-111.777 -85.721,-192.177c0.486,-67.264 27.772,-131.561 75.819,-178.643c48.452,-47.475 113.944,-73.511 181.774,-72.258c66.182,1.226 129.255,28.402 175.573,75.671c47.254,48.226 73.32,113.285 72.467,180.78c-1.14,69.922 -30.093,132.477 -80.174,180.753l-0.894,0.876l-118.804,-0.159c-9.089,-18.638 -20.476,-19.693 -40.156,-20.297c33,-20.649 56.36,-42.197 65.633,-81.858c5.469,-24.203 3.984,-49.459 -4.289,-72.852c-5.714,-16.642 -9.069,-22.009 -12.119,-39.376c49.368,-0.692 99.549,-16.146 146.292,4.583c4.719,2.097 9.924,3.67 14.682,5.769c1.218,-1.072 2.298,-2.006 3.212,-2.799c3.436,-7.319 2.95,-15.739 2.074,-23.629c-9.006,-81.86 -107.133,-106.348 -175.573,-102.051c-2.703,-10.086 -10.126,-28.054 -19.255,-34.158c-3.536,-2.346 -12.91,-1.817 -17.425,-4.654c-23.932,-15.057 -40.639,-16.761 -69.552,-13.063c1.1,-17.058 -13.587,-30.79 -32.376,-21.767c-6.242,2.95 -12.177,8.155 -14.453,14.674c-4.596,13.551 -1.747,26.65 14.249,31.102c-16.607,21.102 -15.96,29.668 -11.832,57.941c-0.06,5.12 -7.04,8.477 -5.271,14.032c-0.06,8.669 14.868,28.205 18.422,32.444c1.057,17.715 2.565,36.617 1.855,54.427c-0.856,13.546 -27.775,36.157 -36.499,47.199c-32.165,40.672 -50.242,97.355 -46.154,148.998c33.65,-12.862 63.093,-42.368 84.727,-70.627c8.762,-11.452 15.595,-24.77 25.313,-36.28c-11.082,38.714 -43.836,71.986 -73.808,97.138c25.273,-9.134 40.403,-15.447 61.608,-32.129c35.278,-27.737 73.38,-96.934 24.541,-129.434c-7.856,-6.98 -29.62,-0.946 -33.37,-2.333c8.968,-15.079 37.722,-8.142 47.828,1.248c10.534,9.809 16.592,23.851 16.796,38.278c1.017,75.625 -71.165,127.34 -139.464,138.543c-8.905,16.428 -51.258,87.113 -50.707,101.603c4.493,6.486 16.001,8.54 21.369,3.207c21.878,-21.719 31.107,-65.958 49.894,-88.814c-7.36,22.663 -42.25,96.667 -43.491,110.448c7.362,11.764 27.307,0.73 32.595,-9.406c12.26,-23.486 18.747,-49.811 27.976,-74.802l4.352,-2.215c-3.131,11.505 -18.606,61.54 -16.776,69.436c18.482,7.936 29.036,-19.089 32.187,-32.776c4.556,-19.836 9.761,-39.957 13.745,-59.904c9.781,-0.133 36.703,-0.249 45.268,0.873c6.018,7.035 -1.92,10.284 9.706,13.982c2.806,0.549 7.1,-3.443 9.94,-3.305c2.482,0.121 4.392,1.797 8.885,2.119c4.188,0.302 7.168,-6.786 9.293,-9.945c3.3,-4.908 4.636,-3.572 7.357,-3.587c3.471,-0.262 4.797,1.873 7.01,3.506c2.922,2.157 4.153,7.986 7.498,8.641c3.343,0.652 7.007,-2.57 10.355,-3.018c2.082,-0.277 3.957,1.616 6.879,0.891c2.275,-0.564 4.818,-1.951 7.128,-3.904c0.997,-0.642 3.519,-4.203 4.495,-5.625l99.708,-0.458c-36.519,25.13 -65.94,40.322 -110.468,48.422c-45.87,8.344 -75.638,1.407 -119.778,-8.238c-2.665,3.733 -2.867,4.221 -2.726,8.797c1.545,3.053 1.79,4.533 5.613,5.683c67.199,20.149 136.511,12.65 197.674,-19.517c62.134,-32.723 108.963,-88.517 130.393,-155.386c21.369,-68.077 14.883,-141.847 -18.034,-205.155" style="fill-rule:nonzero;"/><path d="M405.749,299.547c0,2.628 -2.129,4.757 -4.757,4.757c-2.628,0 -4.76,-2.129 -4.76,-4.757c0,-2.628 2.132,-4.757 4.76,-4.757c2.628,0 4.757,2.129 4.757,4.757" style="fill:#fff;fill-rule:nonzero;"/></g></g></svg>