<?xml version="1.0" encoding="UTF-8"?>
<svg id="Layer_2" data-name="Layer 2" xmlns="http://www.w3.org/2000/svg" xmlns:xlink="http://www.w3.org/1999/xlink" viewBox="0 0 316.54 316.46">
  <defs>
    <style>
      .cls-1 {
        fill: #e9b933;
      }

      .cls-2 {
        fill: #3e3817;
      }

      .cls-3 {
        fill: #89894c;
      }

      .cls-4 {
        fill: #5d697b;
      }

      .cls-5 {
        fill: #619685;
      }

      .cls-6 {
        fill: url(#linear-gradient-4);
      }

      .cls-7 {
        fill: url(#linear-gradient-3);
      }

      .cls-8 {
        fill: url(#linear-gradient-2);
      }

      .cls-9 {
        fill: #df723f;
      }

      .cls-10 {
        fill: #7c8966;
      }

      .cls-11 {
        fill: #b3b450;
      }

      .cls-12 {
        fill: url(#linear-gradient);
      }

      .cls-13 {
        fill: #a6bfbb;
      }

      .cls-14 {
        fill: #27291f;
      }

      .cls-15, .cls-16 {
        fill: #332f1f;
      }

      .cls-17 {
        fill: #bbcdca;
      }

      .cls-18 {
        fill: #b8743f;
      }

      .cls-19 {
        fill: #53542c;
      }

      .cls-20 {
        fill: #736d34;
      }

      .cls-21 {
        fill: #fff;
      }

      .cls-22 {
        fill: #b07b46;
      }

      .cls-16 {
        font-family: TiltWarp-Regular, 'Tilt Warp';
        font-size: 38px;
        font-variation-settings: 'XROT' 0, 'YROT' 0;
      }

      .cls-23 {
        fill: #798e88;
      }

      .cls-24 {
        fill: #eae5d2;
      }

      .cls-25 {
        fill: #fafbf7;
      }

      .cls-26 {
        fill: #a2984d;
      }

      .cls-27 {
        fill: #61716d;
      }
    </style>
    <linearGradient id="linear-gradient" x1="-312.33" y1="274.28" x2="-319.57" y2="281.09" gradientTransform="translate(665.91 626.27) scale(1.85 -1.85)" gradientUnits="userSpaceOnUse">
      <stop offset="0" stop-color="#424524"/>
      <stop offset="1" stop-color="#5f602e"/>
    </linearGradient>
    <linearGradient id="linear-gradient-2" x1="-339.74" y1="236.55" x2="-331.48" y2="233.96" gradientTransform="translate(665.91 626.27) scale(1.85 -1.85)" gradientUnits="userSpaceOnUse">
      <stop offset="0" stop-color="#78784b"/>
      <stop offset="1" stop-color="#969654"/>
    </linearGradient>
    <linearGradient id="linear-gradient-3" x1="-347.33" y1="249.83" x2="-350.2" y2="243.96" gradientTransform="translate(665.91 626.27) scale(1.85 -1.85)" gradientUnits="userSpaceOnUse">
      <stop offset="0" stop-color="#7c7f4b"/>
      <stop offset="1" stop-color="#95955d"/>
    </linearGradient>
    <linearGradient id="linear-gradient-4" x1="-300.92" y1="228.35" x2="-299.22" y2="227" gradientTransform="translate(665.91 626.27) scale(1.85 -1.85)" gradientUnits="userSpaceOnUse">
      <stop offset="0" stop-color="#5d605c"/>
      <stop offset="1" stop-color="#6b7b70"/>
    </linearGradient>
  </defs>
  <g id="Vintage">
    <g id="Layer_7" data-name="Layer 7">
      <g>
        <path class="cls-15" d="M161.88.04C74.27-1.96,1.71,67.59.03,155.19c-1.68,87.59,68.14,159.88,155.76,161.25,87.18,1.36,159.04-68.02,160.71-155.17C318.18,74.12,249.04,2.03,161.88.04ZM303.77,195.88c-1.97-3.21-3.98-6.47-5.9-9.69-4.93-8.27-1.01-3.92,1.17-6.18-.68-3.66-5.1-9.87-6.27-14.42-2.35-5.23-4.63-10.36-7.26-15.46-1.77,2.81-4.68,9.93-6.07,13.14-3.19.88-5.06,2.31-7.73,4.13l1.81-6.24c-1.66.92-5.39,3.35-7,3.19l.03-.96-1.73-1.02c-.47-4.87-.57-6.2-.4-11.04-1.78-27.76-14.64-53.64-35.7-71.83-21.29-18.62-49.12-28.02-77.34-26.12-28.31,1.71-54.74,14.74-73.34,36.15-13.82,16.02-22.69,35.71-25.55,56.67-6.89,3.68-10.54,6.46-14.16,13.84-5-13.72-14.34-20.44-29.38-18.04C20.09,54.32,97.03-3.99,184.66,10.86c35.7,6.05,69.96,26.04,92.08,54.89,20.42,26.11,31.52,58.31,31.54,91.45l-.04,4,.05,4.4c-.37,9.66-2.5,20.87-4.51,30.29Z"/>
        <path class="cls-13" d="M259.88,232.08c-2.46,1.77-5.52,3.86-7.87,5.69l-2.51,1.86c-2.54,1.05-3.58.56-5.36,1.04-7.58.07-17.71.56-25.16,2.21-3.58,1.23-5.28,1.77-8.59,3.7-2.89,1.43-3.79,2.76-6.54.64-7.18-5.51-15.1-7.12-23.75-8.49-8.27,10.54-14.37.5-19.15.42-2.02,1.47-1.5,1.32-2.63,3.93-5.72,3.96-12.05,2.68-14.5-3.32-.68-1.67-14.64-.94-17.03-.95l-2.71,10.47c-.31.97-.71,2.44-1.15,3.3-.15,1.67-.12,2.06.12,3.73l-.5.98c-1.11,2.12-1.26,3.2-1.76,5.53-1.06,3.74-1.89,7.82-4.54,10.71.82,1.22.99,1.32,2.26,2.06,1.24-1.11.9-1.77,1.13-3.86,1.03,1.08,2.5,2.56,3.43,3.66l.12-.88c4.82,4.96,10.27,5.83,13.5,9.62,1.36-.43,1.45-.35,2.88.04l-.56-2.05.17-.22c.69.89.77.93,1.59,1.62l.67-.51-.82-1.89.62-.79,1.2,2.14c1.54.74,1.79.9,3.49.92,1.29,2.56,10.26,24.99,10.42,25.14l1.77.34c3.96-.49,9.76-.6,14.05-1.01,10.71-.97,21.27-3.14,31.49-6.48-2.63-3.96-4.14-5.17-7.76-8-5.95,6.22-8.12-.09-14.24,6.6-2.52,2.75-13.18,3.94-16.12-.05-2.28-6.52,5.76-12.51,10.86-14.93-5.38-2.79-13.67-10.08-11.31-16.71,3.98-3.21,14.22.79,18.47,2.48.59.23,4.85-1.07,5.78-1.34-.03-9.25,4.64-14.27,12.91-17.26,4.87,8.83,4.79,13.86.12,22.48,3.98-2.17,8.76-3.96,13.08-3.43,13.59,1.65,4.65,14.12-3.33,16.26-4.95,1.33-5.65,1.07-10.34.54,1.3,5.11,2.77,7.98,5.03,12.68,8.82-3.51,18.09-7.63,26.3-12.32,2.02-5.93,3.58-12.32.11-18.31-3.18-5.49-11.37,1.36-14.51-4.13-2.1-3.68-1.69-9.21,2.8-11.3,10.08-3.06,9.34,3.37,10.52,10.16,0-.54,5.24,8.09,5.6,8.79,1.1-5.32,1.2-8.24,1.26-13.57-19.96-6.74,8.31-27.01,7.69-5.34,0,0,0,0,0,0-.91,2.43-2.34,3.04-4.89,4.8l-.08,7.41c5.96-5.17,6.57-2.21,6.13-8.94,0,0,.54-3.1.54-3.1,1.8-3.38,6.63-4.42,11.48-.66,3.01,2.34,1.41,8.45-1.68,10.65-4.89,3.48-7.32-2.53-11.78.96-5.85,5.19-7.99,12.91-9.06,20.17,21.7-12.07,42.23-35.22,53.76-57.08,1.21-2.22,2.71-4.79,3.6-7.11-13.78.65-22.78,3.45-34.74,10.29Z"/>
        <path class="cls-23" d="M288.03,138.96c3.87,4.04,8.36,8.86,12.44,12.59,3.28,2.99,4.19,1,7.81,5.66l-.04,4,.05,4.4c-.37,9.66-2.5,20.87-4.51,30.29-1.97-3.21-3.98-6.47-5.9-9.69-4.93-8.27-1.01-3.92,1.17-6.18-.68-3.66-5.1-9.87-6.27-14.42-2.35-5.23-4.63-10.36-7.26-15.46-1.77,2.81-4.68,9.93-6.07,13.14-3.19.88-5.06,2.31-7.73,4.13l1.81-6.24c-1.66.92-5.39,3.35-7,3.19l.03-.96-1.73-1.02c-.47-4.87-.57-6.2-.4-11.04.51,3.49.5,5.6.51,9.07,2.62-2.62,6.36-7.78,9.92-7.26,3.14-2.39,9.38-10.58,13.17-14.19Z"/>
        <path class="cls-23" d="M300.06,161.79c1.89,1.77,4.99,5.08,7.29,5.68.42-.71.67-1.07.94-1.87-.37,9.66-2.5,20.87-4.51,30.29-1.97-3.21-3.98-6.47-5.9-9.69-4.93-8.27-1.01-3.92,1.17-6.18-.68-3.66-5.1-9.87-6.27-14.42,1.81-.85,1.18-.3,2.22-2.54l.68-.22,2.68,2.43.74-.19.97-3.27Z"/>
        <path class="cls-25" d="M266.55,163.39c5.14-5.68,4.88-4.38,10.33-8.01,2.33-1.55,9.08-9.75,11.22-12.1.6,3.69,1.04,9.45,3.38,12.18,5.11,2.47,4.93,1.9,8.57,6.32l-.97,3.27-.74.19-2.68-2.43-.68.22c-1.03,2.24-.41,1.69-2.22,2.54-2.35-5.23-4.63-10.36-7.26-15.46-1.77,2.81-4.68,9.93-6.07,13.14-3.19.88-5.06,2.31-7.73,4.13l1.81-6.24c-1.66.92-5.39,3.35-7,3.19l.03-.96Z"/>
        <path class="cls-17" d="M288.1,143.28c4.13,3.78,7.99,7.82,11.58,12.12,4.91,1.19,5.44,1.77,8.56,5.8l.05,4.4c-.26.8-.52,1.16-.94,1.87-2.3-.6-5.4-3.91-7.29-5.68-3.64-4.43-3.46-3.85-8.57-6.32-2.35-2.73-2.79-8.49-3.38-12.18Z"/>
        <path class="cls-13" d="M158.14,58.41c2.14.03,4.29.05,6.43.04,21.69,1.88,45.04,10.18,60.99,25.38,4.17,3.52,7.48,7.07,10.9,11.34,17.58,20.11,24.42,46.53,22.66,72.85-.12,1.71-.27,3.43-.46,5.14l-.55,4.71-1.83,7.62c-1.46-3.42-3.34-8.17-5.05-11.32-1.29,2.85-11.14,23.36-10.71,24.71l2.36.46.38.79-.83,1.83-1.64,3.28c-2.04,0-5.51-.22-7.28.45-.58-.66-1.2-2.42-1.58-3.32-1.9-3.99-3.5-7.93-5.19-12.01-2.18,4.01-3.93,8.95-5.59,13.26-.64,1.32-1.01,2.38-2.08,3.36.7,4.77-3.73,10.46-3.25,11.96.55,1.72,2.31.68,1.34,3.52-.9,2.65-3.2,5.37-4.8,7.68.82.66,2.68.8,3.81.98.15,1.91-4.59,9.6-5.73,11.53-13.41-7.19-15.82-8.48-30.88-10.21-4.61-7.6-8.52-7.15-16.84-7.81,7.34-3.96,9.36-5.64,15.43-11.45l3.06-3.6c5.61-7.56,7.86-14.65,9.35-23.74.15-6.89.32-11.71-1.58-18.48-2.02-7.2-4.92-12.48-5.53-19.95,17.13-.22,33.7-4.72,50.6-.74,2.86.67,11.83,5.12,13.86,4.45,1.81-2.15,1.55-4.28,1.5-6.89-.59-35.08-41.75-44.63-69.33-43.64-5.21-14.38-8.56-12.87-22.16-19.85.5-6.85.25-15.35.22-22.33Z"/>
        <path class="cls-23" d="M213.61,179.57c3.31-3.41,19.27-21.53,21.7-22.02,4.08,4.11,22.13,16.52,22.81,20.34l-1.83,7.62c-1.46-3.42-3.34-8.17-5.05-11.32-1.29,2.85-11.14,23.36-10.71,24.71l2.36.46.38.79-.83,1.83-1.64,3.28c-2.04,0-5.51-.22-7.28.45-.58-.66-1.2-2.42-1.58-3.32-1.9-3.99-3.5-7.93-5.19-12.01-2.18,4.01-3.93,8.95-5.59,13.26-.64,1.32-1.01,2.38-2.08,3.36.7,4.77-3.73,10.46-3.25,11.96.55,1.72,2.31.68,1.34,3.52-.9,2.65-3.2,5.37-4.8,7.68.82.66,2.68.8,3.81.98.15,1.91-4.59,9.6-5.73,11.53-13.41-7.19-15.82-8.48-30.88-10.21-4.61-7.6-8.52-7.15-16.84-7.81,7.34-3.96,9.36-5.64,15.43-11.45l3.06-3.6c5.61-7.56,7.86-14.65,9.35-23.74l.8-.28c1.47.44,2.13.54,3.66.73,1.7-2.57,8.83-9.45,11.35-11.96,2.37,1.89,4.75,3.51,7.24,5.23Z"/>
        <path class="cls-25" d="M181.21,209.59c8.15,6,30.22-4.15,39.95-5.96-.64,1.32-1.01,2.38-2.08,3.36.7,4.77-3.73,10.46-3.25,11.96.55,1.72,2.31.68,1.34,3.52-.9,2.65-3.2,5.37-4.8,7.68.82.66,2.68.8,3.81.98.15,1.91-4.59,9.6-5.73,11.53-13.41-7.19-15.82-8.48-30.88-10.21-4.61-7.6-8.52-7.15-16.84-7.81,7.34-3.96,9.36-5.64,15.43-11.45l3.06-3.6Z"/>
        <path class="cls-17" d="M178.16,213.19l1.61.69-.53.77c1.18,2.17,1.16,3.55.87,5.97,8.85.69,17.35,1.63,25.86,4.48-3.52.77-7.79,1.59-11.21,2.52,3.02.88,15.21,3.68,17.61,2.53.82.66,2.68.8,3.81.98.15,1.91-4.59,9.6-5.73,11.53-13.41-7.19-15.82-8.48-30.88-10.21-4.61-7.6-8.52-7.15-16.84-7.81,7.34-3.96,9.36-5.64,15.43-11.45Z"/>
        <path class="cls-27" d="M181.21,209.59c8.15,6,30.22-4.15,39.95-5.96-.64,1.32-1.01,2.38-2.08,3.36-6.81,1.06-17.54,4.77-25.04,6.5,4.95,1.79,11.17,3.69,15.62,6.21-9.99-1.14-20.28-4.46-29.89-5.82l-1.61-.69,3.06-3.6Z"/>
        <path class="cls-25" d="M213.61,179.57c3.31-3.41,19.27-21.53,21.7-22.02.09,3.01-.06,9.12.93,11.5,2.03,1.24,4.41,2.47,5.76,4.38l.12,1.1-1.07,1.14c-2.09-.49-3.53-2.8-4.81-4.58-2.22,4.72-3.94,7.7-6.66,12.17-.27-3.34-.66-7.09-.82-10.4-5.49,6.46-9.15,7.8-15.74,13.06-4.32,3.46-8.96,8.11-12.94,12.06,2.19-3.12,9.17-12.19,9.25-15.47l-.75-.48c-3.28.93-3.61,3.25-5.44,2.81l-1.03-1.65c-2.32-.12-3.85,2.26-7.09,3.13,1.7-2.57,8.83-9.45,11.35-11.96,2.37,1.89,4.75,3.51,7.24,5.23Z"/>
        <path class="cls-27" d="M231.94,202.38l10.5-.41-1.64,3.28c-2.04,0-5.51-.22-7.28.45-.58-.66-1.2-2.42-1.58-3.32Z"/>
        <path class="cls-27" d="M234.54,153.01c5.59,5.04,11.27,9.27,17.12,13.96,2.51,2.01,4.3,4.1,7.01,6.2l-.55,4.71c-.68-3.82-18.73-16.23-22.81-20.34-2.43.49-18.39,18.61-21.7,22.02-2.49-1.72-4.87-3.33-7.24-5.23-2.52,2.51-9.65,9.4-11.35,11.96-1.53-.19-2.19-.29-3.66-.73,4.32-5.51,9.86-10.45,14.96-15.27,2.51,2.09,4.32,3.32,7,5.1,7.04-6.78,14-15.24,21.21-22.39Z"/>
        <path class="cls-25" d="M214.73,90.33c3.79-4.33,5.18-5.8,10.84-6.49,4.17,3.52,7.48,7.07,10.9,11.34-1.84.5-30.18.39-31.37-.16.32-5.34,5.88-4.91,9.63-4.69Z"/>
        <path class="cls-25" d="M181.72,72.01c1.06-.06,3.47-.09,4.22.45,2.78,2,10.11,4.12,11.21,7.13-2.02,1.96-8.61,1-11.4.81-3.45,0-14.2.36-16.58-1.15.93-1.4,3.69-2.67,6.61-4.04,2.11-.99,4.3-2.03,5.94-3.2Z"/>
        <path class="cls-25" d="M202.12,155.08c1.38.15,5.69,2.47,6.43,3.85-1.08,1.02-1.62.67-3.47.7l-9.61.04c2.13-1.79,4.31-3.1,6.65-4.59Z"/>
        <path class="cls-3" d="M126.8,238.81c2.39.01,16.34-.72,17.02.95,2.45,6,8.78,7.28,14.5,3.32-.16,5.49-.17,10.99-.01,16.48l-.04.39-.05,3.58c.05,12.17.76,33.72-.1,45.34l-1.77-.34c-.16-.14-9.13-22.58-10.41-25.14-1.7-.02-1.95-.18-3.5-.92l-1.2-2.13-.61.78.82,1.9-.67.51c-.83-.69-.91-.73-1.6-1.62l-.17.22.56,2.05c-1.43-.39-1.52-.47-2.88-.04-3.23-3.79-8.68-4.66-13.5-9.62l-.12.87c-.92-1.1-2.4-2.58-3.42-3.66-.23,2.1.11,2.75-1.13,3.86-1.27-.74-1.44-.84-2.26-2.06,2.65-2.89,3.47-6.97,4.54-10.71.5-2.33.64-3.41,1.76-5.52l.5-.99c-.24-1.67-.27-2.05-.12-3.73.43-.86.84-2.33,1.15-3.3l2.71-10.47Z"/>
        <path class="cls-26" d="M126.8,238.81c2.39.01,16.34-.72,17.02.95.93,2.29,2.43,3.89,4.25,4.78,1.13.55,2.37-1.13,3.68-1.14,1.06,0,2.15,1.76,3.26,1.38s2.22-.94,3.31-1.7c-.16,5.49-.17,10.99-.01,16.48l-.04.39-6.52-2.33-2.96-.62c-4.47,1.79-8.5-.71-13.14-1.69-4.26-.89-8.42-1.89-12.71-2.73.43-.86.84-2.33,1.15-3.3l2.71-10.47Z"/>
        <path class="cls-20" d="M136.16,244.35l.58,2.54c2.79,1.67,2.97-.3,7.14,3.5,3.22,2.26,6.06,3.76,7.87,7.23l-2.96-.62c-4.47,1.79-8.5-.71-13.14-1.69-4.26-.89-8.42-1.89-12.71-2.73.43-.86.84-2.33,1.15-3.3l.26.46.66.16c3.57-4.06,6.07-4.93,11.16-5.55Z"/>
        <path class="cls-3" d="M136.16,244.35l.58,2.54c2.79,1.67,2.97-.3,7.14,3.5-5.84,4.18-8-.62-7.72-6.03Z"/>
        <path class="cls-2" d="M122.93,252.58c4.28.84,8.45,1.84,12.71,2.73,4.64.97,8.67,3.47,13.14,1.69l2.96.62,6.52,2.33-.05,3.58c-2.5-1.02-5.34-2.26-7.83-3.16.83,3.71,3.11,13.77-2.16,15.82-.94.37-1.3-.1-2.12-.58-6.23-8.9,2.73-14.1-14.36-17.72-1.93,3.95-6.25,10.65-5.65,14.34,1.86,4.17,8.8,6,12.91,9.89l.56,2.05c-1.43-.39-1.52-.47-2.88-.04-3.23-3.79-8.68-4.66-13.5-9.62l-.12.87c-.92-1.1-2.4-2.58-3.42-3.66-.23,2.1.11,2.75-1.13,3.86-1.27-.74-1.44-.84-2.26-2.06,2.65-2.89,3.47-6.97,4.54-10.71.5-2.33.64-3.41,1.76-5.52l.5-.99c-.24-1.67-.27-2.05-.12-3.73Z"/>
        <path class="cls-26" d="M120.79,262.82c1.52.52,3.05.83,4.06,1.98-2.06,4.38-2.47,5.06-1.67,9.72l-.12.87c-.92-1.1-2.4-2.58-3.42-3.66-.23,2.1.11,2.75-1.13,3.86-1.27-.74-1.44-.84-2.26-2.06,2.65-2.89,3.47-6.97,4.54-10.71Z"/>
        <path class="cls-3" d="M122.55,257.3c2.67.53,2.75.09,4.33,1.72.37,2.54-.53,3.52-2.03,5.79-1.01-1.15-2.54-1.46-4.06-1.98.5-2.33.64-3.41,1.76-5.52Z"/>
        <path class="cls-26" d="M144.81,262.01c1.56.12,1.79.04,2.98.94,1.69,2.86.98,5.42.56,8.71l-.58.08c-.72-.62-2.45-7.99-2.95-9.73Z"/>
        <path class="cls-2" d="M133.13,265.75c5.77,5.69,8.74,10.56,12.8,17.64-1.7-.02-1.95-.18-3.5-.92l-1.2-2.13c-2.43-5.63-6.16-8.88-8.11-14.59Z"/>
        <path class="cls-25" d="M158.32,243.08c.62-2.77.61-2.46,2.63-3.93,2.35.04,5.02,2.49,8.12,3.71,1.03.41,2.16-1.38,3.29-1.38.89,0,1.76,1.89,2.71,1.49,1.59-.67,3.26-1.98,5.04-4.25,8.64,1.37,16.56,2.98,23.74,8.49-4.85.77-12.38.38-15.85,2.98-1.45,3.09.85,1.68-.77,4.31-1.29-1.92.02-2.46-1.71-4.25l-1.06.39c-1.8,4.51-2.02,9.02-3.49,13.55l-2.64-13.97c-7.67,1.12-8.82,1.11-15.36,6.19-1.45,1.13-2.93,2.49-4.65,3.14-.16-5.49-1.18-11.11.01-16.48Z"/>
        <path class="cls-25" d="M259.88,232.09c11.97-6.84,20.97-9.64,34.75-10.29-.89,2.32-2.39,4.89-3.6,7.11l-8.95,1.68c-.95,4.35-1.91,9.22-3.12,13.46-1.14-4.45-1.89-9.68-3-13.63-3.19,6.53-3.15,12.76-4.99,19.57-.91-5.44-1.74-10.55-3-15.93-4.41,1.18-12.34,4.51-15.95,3.73,2.35-1.83,5.41-3.92,7.86-5.69Z"/>
        <path class="cls-25" d="M218.98,242.88c7.45-1.65,17.59-2.14,25.16-2.21-2.71,3.04-19.58,5.18-24.36,5.95l-1.22-.47c-.06-1.41.11-1.88.42-3.27Z"/>
        <path class="cls-17" d="M210.39,246.59c3.31-1.93,5.02-2.47,8.59-3.7-.31,1.39-.48,1.87-.42,3.27l1.22.47c-1.31.55-7.82.11-9.39-.04Z"/>
        <path class="cls-25" d="M229.12,270.91l1.03.16.75,1.1c.12,2.74-1.54,7.8-2.39,10.59-.58-2.12-1.4-3.99-2.02-6.07-1.2-3.98-.26-4.16,2.63-5.77Z"/>
        <path class="cls-26" d="M84.76,129.83c2.46-1.28,10.66-7.55,11.75-7.43l.14,2.27,3.91,1.67.03,8.72-.18,7.88,5.23-.96c3.87-.93,5.62-2.48,8.51-5.11,4.22-4.36,5.21-5.82,7.67-11.28l2.57,3.3c.87.72,2.45,1.71,2.23,2.96-1.36,7.69,1.31,24.3-5.57,29.85-19.8,15.99-28.83,40.8-28.68,65.79.02,3.66,1.31,4.89,4.59,6.47-.13,1.76-1.11,2.67-2.19,4.34-8-7.51-17.68-17.26-23-26.89-3.98-5.22-7.35-13.12-9.34-19.35-1.34-3.87-5.15-11.45-1.96-14.58,3.69-.93,5.78.53,8.95,2.27,2.48,1.06,4.28,1.71,6.4,3.42l3.81,2.76c-.21-3.67-.59-5.67-1.28-9.23-3.76-10.58-9.64-14.2-20.24-15.79,7.33-2.58,15.14-3.11,22.96-4.34-4.24-5.37-7.11-7.77-13.2-10.45-4.37-1.16-5.18-1.32-9.61-1.51l2.08-11.79c5.86,1.51,9.47,1.29,15.18.21,2.14-.58,3.99-1.28,6.07-2.04,1.08-.42,2.08-.78,3.17-1.16Z"/>
        <path class="cls-20" d="M78.36,176.7c.92-1.72,1.73-3.78,3.4-4.65,1.73,1.41.32,8.51.04,10.82,5.14-7,8.56-8.43,16.33-11.67-3.71,8.65-7.59,13.49-16.19,17.82,5.97-.99,11.05-1.72,17.13-1.55-7.6,6.29-10.65,6.18-20.29,6.24,3.28.87,11.68,2.67,13.44,5.09-1.35,1.45-6.73,1.38-8.73,1.25l-1.29,1.18c2.3.68,5.25,1.29,6.94,2.88l.21,1c-2.2,1.83-6.55,1.35-9.37,1.11-.57-.05-1.13-.13-1.69-.23l-1.21,1.22c3.75,2.29,6.46,4.36,9.42,7.71-7.17-.35-13.29-3.47-14.74-3.49-3.98-5.22-7.35-13.12-9.34-19.35-1.34-3.87-5.15-11.45-1.96-14.58,3.69-.93,5.78.53,8.95,2.27,2.48,1.06,4.28,1.71,6.4,3.42l3.81,2.76c-.21-3.67-.59-5.67-1.28-9.23Z"/>
        <path class="cls-11" d="M62.43,192.06c-1.34-3.87-5.15-11.45-1.96-14.58,3.69-.93,5.78.53,8.95,2.27-.29,1.56-.67,4.37-.17,5.88l.1,3.24-.45.27c-1.67-1.69-3.28-5.37-5.29-7.99-.42,3.64-.81,7.28-1.18,10.92Z"/>
        <path class="cls-20" d="M69.43,179.75c2.48,1.06,4.28,1.71,6.4,3.42l-.7,2.1c-2.26.45-4.51-3.29-5.87.36-.5-1.51-.13-4.32.17-5.88Z"/>
        <path class="cls-3" d="M77.09,207.19c-2.02-.91-5.02-1.68-6.21-3.2,1.73-.42,5.58,1.31,7.42,1.98l-1.21,1.22Z"/>
        <path class="cls-3" d="M82.21,201.21c-2.78-.75-4.72-1.19-7.34-2.49,1.12-.54,6.96.94,8.63,1.31l-1.29,1.18Z"/>
        <path class="cls-2" d="M84.76,129.83c2.46-1.28,10.66-7.55,11.75-7.43l.14,2.27,3.91,1.67.03,8.72-.18,7.88v3.54c.49,5.17-.5,18.91-6.77,19.97-11.8,2.01-9.66-19.3-11.29-25.42l-2.31-1.98c-1.48-1.59-3.22-4.2-4.53-6.03,2.14-.58,3.99-1.28,6.07-2.04,1.08-.42,2.08-.78,3.17-1.16Z"/>
        <path class="cls-26" d="M84.76,129.83c2.46-1.28,10.66-7.55,11.75-7.43l.14,2.27,3.91,1.67.03,8.72c-1.87.19-2.12.18-3.92-.35v7.92s0,3.93,0,3.93c-3.78-.4-6.17-2.02-9.71-2.56l-.62,1.07c-.17-.28-1.22-7.38-1.38-8.34l.71-.73-.89-6.18Z"/>
        <path class="cls-19" d="M85.65,136c1.63,4.77,6.22,6.29,11.01,6.63v3.93c-3.78-.4-6.17-2.02-9.71-2.56l-.62,1.07c-.17-.28-1.22-7.38-1.38-8.34l.71-.73Z"/>
        <path class="cls-15" d="M96.65,124.66l3.91,1.67.03,8.72c-1.87.19-2.12.18-3.92-.35v-10.05Z"/>
        <path class="cls-26" d="M86.32,145.07l.62-1.07c3.55.54,5.93,2.16,9.71,2.56-.01,4.21-.21,12.93-3.23,15.93-5.23,1.1-6.59-13.78-7.11-17.42Z"/>
        <path class="cls-19" d="M75.52,133.02c2.14-.58,3.99-1.28,6.07-2.04,1.37,3.67.52,6.38.77,10.05l-2.31-1.98c-1.48-1.59-3.22-4.2-4.53-6.03Z"/>
        <path class="cls-3" d="M60.34,132.81c5.86,1.51,9.47,1.29,15.18.21,1.31,1.83,3.05,4.45,4.53,6.03-1.89,2.9-1.32,5.36-5.14,6.3-1.95.48-5.68-.13-7.04.76-4.37-1.16-5.18-1.32-9.61-1.51l2.08-11.79Z"/>
        <path class="cls-19" d="M121.82,125.59l2.57,3.3c-6.14,11.71-10.22,15.98-23.99,17.59v-3.54s5.25-.96,5.25-.96c3.87-.93,5.62-2.48,8.51-5.11,4.22-4.36,5.21-5.82,7.67-11.28Z"/>
        <path class="cls-24" d="M144.14,122.39c1.91-3.34,3.52-5.91,6.57-8.39,15.66-12.77,22.35.03,15.41,14.65-.59,10.88,3.2,14.87,13.26,18.02-.21,12.41,8.75,22.28,6.51,34.06-.46,1.24-1.96,2.6-3.15,2.95-16.11,4.77-19.58-14.57-25.05-24.64-3.91-7.22-13.17-9.02-16.1-16.21-2.75-6.75-.2-14.38,2.55-20.43Z"/>
        <path class="cls-1" d="M144.14,122.39c1.91-3.34,3.52-5.91,6.57-8.39,15.66-12.77,22.35.03,15.41,14.65-10.28,8.29-16.83,4.63-21.98-6.26Z"/>
        <path class="cls-2" d="M155.4,115.71c1.86-.82,4.02-.57,5.64.65,1.62,1.23,2.45,3.24,2.16,5.25-.29,2.01-1.64,3.71-3.54,4.44-2.83,1.08-6.01-.29-7.17-3.1-1.16-2.8.13-6.02,2.91-7.25Z"/>
        <path class="cls-26" d="M113.84,68.65c12.39-6.03,37.55-12.95,50.74-10.19-2.14,0-4.29,0-6.43-.04.03,6.98.28,15.48-.22,22.33-2.1-.68-4.21-1.34-6.32-1.65-1.5-.23-10.84.02-11.25-.69-7.52-13.02-14.87-9.07-18-7.11-4.59,3.29-5.59,16.35,1.79,18.28.3,2.18-3.49,7.81-3.78,10.39-.43,3.74-.17,8.05.29,11.73-3.74,5.82-2.24,8.36,1.16,13.91-2.46,5.46-3.45,6.92-7.67,11.28-2.88,2.63-4.64,4.18-8.51,5.11l-5.23.96.18-7.88-.03-8.72-.06-9.84c11.23-17.19,12.29-28.19,13.33-47.84Z"/>
        <path class="cls-20" d="M105.64,141.99c-1.4-7.2,3-8.48,8.51-5.11-2.88,2.63-4.64,4.18-8.51,5.11Z"/>
        <path class="cls-1" d="M173.34,108.86c7.76-11.78,46.89.94,57.2,7.89.53.36,1.05.75,1.55,1.16l-3.16,1.34-1.35.55c-4.52,2.56-5.26,3.59-5.34,8.87l2.52,4.67c-21.14-5.6-32.59-5.15-54.04-4.06,1.76-4.72,2.31-7.2,2.35-12.23-.54-2.71-.45-5.51.28-8.18Z"/>
        <path class="cls-9" d="M173.07,117.04c13.41-.24,24.07.03,36.8,5.59,2.54,1.11,10.7,5.67,12.37,6.03l2.52,4.67c-21.14-5.6-32.59-5.15-54.04-4.06,1.76-4.72,2.31-7.2,2.35-12.23Z"/>
        <path class="cls-24" d="M173.34,108.86c7.76-11.78,46.89.94,57.2,7.89.53.36,1.05.75,1.55,1.16l-3.16,1.34c-18.09-9.91-35.11-12.58-55.59-10.38Z"/>
        <path class="cls-5" d="M56.09,224.72c.45-10.25,2.41-9.92,11.76-11.42l5.12,9.97c-2.58,3.52-10.95,9.61-8.45,14.39,3.34,1.27,11.02-4.56,13.79-6.46l.65.19c.64,1.52,1,2.07.53,3.65-4.19,5.74-16.13,6.18-18.07,11.84l.56,1.09c5.14,4.15,12.88-2.54,17.36-2.23l.35.93c-3.42,9.23-16.44,5.14-19.71,10.37.76,5.36,9.04,4.35,13.06,4.29-7.04,5.12-9.39,5.76-17.81,5.51-1.91-1.18-3.52-2.7-5.2-4.18,3.39-17.76,12.12-30.1,15.46-45.36-1.78,2.68-2.68,4.31-4.12,7.17-5.26,12.12-10.51,22.07-14.14,34.82-3.83-4.37-8.16-8.94-11.45-13.74-4.97-7.26-3.83-11.83.19-19.11.77,4.65,3.2,17.77,9.41,16.96,5.34-4.36-5.14-17.37-.36-23.14.7-.85,2.12-1.78,3.2-1.74.35,3.94.21,10.39,2.88,12.8,1.72.58,1,.59,2.68,0,1.51-1.67,1.81-4.33,2.3-6.6Z"/>
        <path class="cls-23" d="M278.02,173.55l7.45-16.1c2.56,5.34,5.86,11.78,8.04,17.18l.89,1.61-.36.58c-1.77-.21-2.23-.59-3.57.16-.3,2.9,3.53,6.15,3,8.69-2.8,1.23-6.2-2.27-8.47-1.92.33,8.8,12.41.1,13.15,9.09-1.46,1.89-3.87,1.42-3.57,2.77,1.33,5.93,9.41,10.61,3.29,16.78-3.92-.87-3.19-4.02-7.52-2.54-2.27-.25-4.28-2.78-6.29-4.32,1.2,2.07,3.75,6.83,5.76,8.14,1.63,1.05,4.43-.19,6.84,1.23.29,1.69.31,1-.3,2.77-1.53,1.07-2.02,1.25-3.97,1.22-10.24-.18-19.6,3.24-28.75,7.48,2.75-4.56,5.53-10.12,9.82-13.11l.8.08.61,2.44.82.43c1.82-.96,3.4-2.74,2.46-4.89l-1.21.17-.92-1.28c-1.02-.17-7.73,2.89-9.61,3.6l4.11-5.95c3.3-5.35,5.55-8.18,6.65-14.37-1.13-1.62-1.68.81-3.85-.11.47-4.14,7.51-12.24,6.99-16.11-1.24-.48-1.85-.64-3.15-.95-.32-1.44-.16-1.05.82-2.77Z"/>
        <path class="cls-25" d="M278.02,173.55l7.45-16.1c2.56,5.34,5.86,11.78,8.04,17.18l-.59.24c-1.97-.7-3.94-2.91-5.5-4.43-.25,3.09-.29,7.01-.41,10.17l-3.67-11.18c-1.6,1.83-2.39,2.71-4.25,4.25l-1.07-.13Z"/>
        <path class="cls-25" d="M270.55,207.85c2.17-.57,5.22-1.87,7.11-1.57,2.07,2.48.75,2.27.52,5.03l-1.21.17-.92-1.28c-1.02-.17-7.73,2.89-9.61,3.6l4.11-5.95Z"/>
        <path class="cls-14" d="M285.25,192.98l.37.34c0,2.91-3.53,4.74-6.12,5.06-.04-1.67-.31-1.68.38-2.92,2.4-.58,2.87-.73,4.91-2.16l.47-.33Z"/>
        <path class="cls-26" d="M63.51,247.18c4.83-2.82,10.58-4.38,15.34-7.54,2.9-1.92,2.03-2.41,3.8-5.03,1.15-.08,8.25,6.46,9.93,7.85-4.37,8.77-10.71,17.77-14.45,26.89-.83,2.03-.62,2.88.21,4.56,1.67,1.41,3.04,1.53,5.18,1.99,2.75.37,3.94.29,6.74.13-.75,2-1.82,4.11-1.36,6.11,4.08,5.96,13.01-.86,15.07-6.18.81.04,2.31-.06,3.18-.09l1.71.49c1.75,1.4,3.32,1.33,4.35,3.02l-.2,1.33c-1.17,7.73.15,14.47,2.53,21.78-21.45-6.56-41.23-17.7-57.94-32.67,9.35-.35,17.1-3.56,20.91-12.61l-.51-.46c-3.29.99-10.06,2.6-13.23,1.59l-.32-.76c7.05-2.11,9.41-1.28,16.28-5.54,2.01-4.48,2.37-8.02,2.85-12.78-8.74,4.84-10.21,5.63-20.07,7.91Z"/>
        <path class="cls-23" d="M251.26,181.4l3.92,8.73c1.32,2.29,2.1,2.77,2.13,5.07l-1.56,1.13c-.14,4.77,6.95,11.54,5.66,13.13l-2.26.55c-.27,1.89,4.86,7.79,4.9,8.71.08,2.31-4.81,10.22-7.08,11.4l-.55.66,2.98.28c.15.29.42.72.48,1.01-2.46,1.77-5.52,3.86-7.86,5.69l-2.51,1.85c-.7-.64-1.65-1.68-2.33-2.39-3.91-.01-8.21.19-12.15.3,5.33-10,8.12-2.68,17.94-11.31-3.73,1.21-12.72,2.25-17.38,3.16,1.99-3.21,10.16-15.42,9.02-18.85-.98-.29-1.42-.43-2.36-.84.4-4.69,8.75-10.66,3.3-14.22l-.4-.26.73-1.01c1.16-3.62,3.8-9.18,5.39-12.82Z"/>
        <path class="cls-25" d="M251.26,181.4l3.92,8.73c-1.45-.48-1.61-.55-3.11-.63-1.08,1.6-.19,2.09-1.96,3.97l-.57-.28-.44-2.16c-1.24,1.7-1.25,2.24-3.22,3.18,1.16-3.62,3.8-9.18,5.39-12.82Z"/>
        <path class="cls-14" d="M247.17,237.24c3.11-2.3,5.94-4.43,9.25-6.45l2.98.28c.15.29.42.72.48,1.01-2.46,1.77-5.52,3.86-7.86,5.69l-2.51,1.85c-.7-.64-1.65-1.68-2.33-2.39Z"/>
        <path class="cls-14" d="M248.65,207.78c2,2.36,1.07,1.68,4.37,2.49l.28.65-1.64,1.93c-.92.85-1.6,1.32-2.62,2.05l-.95-.17c-.64-1.88.17-4.85.55-6.96Z"/>
        <path class="cls-26" d="M85.73,89c3.81-3.79,6.7-6.23,10.89-9.63l-.08,34.37c-4.21,5.11-6.38,7.33-12.04,10.91-.92.54-2.27,1.4-3.19,1.84-1.58.62-2.37,1.04-4.1.97-3.15-3.01-4.99-15.42-5.81-20.11,1.92-3.07,4.46-6.38,6.62-9.34l.65-.09c.77,1.88.37,1.69,1.77,2.71,1.34-.23,1.08.01,1.99-.76-1.23-3.34-1.44-4.99.67-7.89l1.31-1.43,1.33-1.53Z"/>
        <path class="cls-26" d="M78.02,97.99l.65-.09c.77,1.88.37,1.69,1.77,2.71,1.34-.23,1.08.01,1.99-.76l.88.98c-2.26,1.72-2.41,5.33-1,7.63,1.33,5.86,1.19,10.83,2.18,16.17-.92.54-2.27,1.4-3.19,1.84-1.58.62-2.37,1.04-4.1.97-3.15-3.01-4.99-15.42-5.81-20.11,1.92-3.07,4.46-6.38,6.62-9.34Z"/>
        <path class="cls-12" d="M78.02,97.99l.65-.09c.77,1.88.37,1.69,1.77,2.71,1.34-.23,1.08.01,1.99-.76l.88.98c-2.26,1.72-2.41,5.33-1,7.63,1.33,5.86,1.19,10.83,2.18,16.17-.92.54-2.27,1.4-3.19,1.84-2.03-9.55-1.58-19.37-3.28-28.48Z"/>
        <path class="cls-20" d="M85.73,89c2.1,1.39,6.51,3.78,5.23,6.74,2.83,2.64,1.93,10.52.08,13.09-1.93.61-6.48-.13-8.73-.36-1.41-2.3-1.26-5.91,1-7.63l-.88-.98c-1.23-3.34-1.44-4.99.67-7.89l1.31-1.43,1.33-1.53Z"/>
        <path class="cls-3" d="M83.1,91.96c1.67,1.66,2.02,6.57,1.79,8.89l-.53.47-1.05-.49-.88-.98c-1.23-3.34-1.44-4.99.67-7.89Z"/>
        <path class="cls-10" d="M116.25,273.53c.82,1.22.99,1.32,2.26,2.06,1.24-1.11.9-1.77,1.13-3.86,1.02,1.08,2.5,2.56,3.42,3.66l.12-.87c4.82,4.95,10.27,5.83,13.5,9.62,1.36-.43,1.45-.35,2.88.04l-.56-2.05.17-.22c.69.89.77.94,1.6,1.62l.67-.51-.82-1.9.61-.78,1.2,2.13c4.7,10.16,6.98,15.32,9.55,26.13-10.91-1.08-22.52-1.85-32.89-5.34-1.77-3.75-2.29-5.31-2.94-9.41,5.5,3.17,11.73,7.28,18,8.33,3.01.5,7.62-1.31,7.83-4.81-2.52-5.04-13.94-5.74-18.39-7.98-2.76-1.38-8.1-6.42-10.59-8.67l.2-1.33c-1.04-1.69-2.61-1.62-4.35-3.02,2.69.03,5.17-1.54,7.41-2.84Z"/>
        <path class="cls-15" d="M119.65,271.73c1.02,1.08,2.5,2.56,3.42,3.66l.12-.87c4.82,4.95,10.27,5.83,13.5,9.62,1.36-.43,1.45-.35,2.88.04-3.4,9.63-19.48-3.02-19.92-12.44Z"/>
        <path class="cls-3" d="M123.19,274.52c4.82,4.95,10.27,5.83,13.5,9.62-6.48.75-9.8-4.33-13.62-8.74l.12-.87Z"/>
        <path class="cls-23" d="M273.52,161.16l-1.81,6.24c2.67-1.83,4.54-3.26,7.73-4.13-1.3,3.2-8.04,15.08-6.66,17.39l2.92.19c1.07,3.57-9.34,13.02-7.73,16.71,1.42-.1,2.39-.3,3.72.18.39,3.07-3.92,8.42-5.88,11.33-1.42-2.18-5.42-7.84-5.8-9.91,1.19-.6,1.27-.61,2.09-1.63.15-1.84-1.52-4.1-2.53-5.77,3.54-10.71,4.32-18.37,5.26-29.41l1.73,1.02-.03.96c1.61.16,5.33-2.27,7-3.19Z"/>
        <path class="cls-9" d="M185.32,132.2c14.82-1.15,40.33,2.56,52.94,11.65-4.37-1.08-7.62-1.68-12.07-2.37-5.55-.2-10.92-.2-16.47.03-14.91.62-27.46,6.28-37.56-8.57,3.86-.45,9.18-.56,13.17-.75Z"/>
        <path class="cls-23" d="M226.61,198.3c5.45,5.14,3.96,19.75,8.1,26.22-1.12,1.85-1.88,3.2-2.84,5.14.19,2.24.16,1.62,1.57,3.64.13,1.99-.73,2.62-1.91,4.63-2.46.39-5.56.53-8.09.72-2.43.33-5.7,1.4-8.12,2.1,1.69-4.08,4.04-7.54,5.41-11.91-.53-2.24-.84-.13-2.46-1.92.54-2.72,3.25-5.55,4.19-8.26.87-2.48-.39-.98-1.85-2.56,1.56-6.07,3.57-12.02,5.99-17.8Z"/>
        <path class="cls-24" d="M141.39,83.18c8.95-.72,12.84.15,20.63,4.33-11.12,3.13-16.79,5.84-26.57,11.77-4.71,3.22-7.65,5.72-11.62,9.75-.22-12.84,4.81-22.15,17.56-25.85Z"/>
        <path class="cls-27" d="M151.08,173.85c1.72,1.3,2.13,3.52,2.15,5.61.14,11.68-4.72,22.08-12.6,30.49-12.01,12.81-25.48,17.67-42.72,18.29,12.92-9.74,20.03-14.62,30.11-28.13,2.38-3.57,4.65-7.2,7.49-10.41-6.12,15.76-15.53,26.17-28.85,36.36,25.63-7.46,44-24.49,44.42-52.2Z"/>
        <path class="cls-26" d="M39.36,185.06c.41,3.04.8,5.88,2.87,8.26l-.28,1.04c.38,7.04,1.39,13.01,4.04,19.63,2.89-2.58,4.74-4.48,6.64-7.94,3.1,3.96,4.82,1.84,9.09,5.53-10.16.79-7.83,11.03-9.18,19.11-2.19-7.27-1.21-10.05.13-17.5-4.69,1.87-7.49,2.87-11.28,6.37-.09,10.81,1.63,12.46,3.23,22.58-6.78-12.06-7.55-32.76-6.45-46.43.12-3.75.65-6.94,1.2-10.64Z"/>
        <path class="cls-11" d="M39.36,185.06c.41,3.04.8,5.88,2.87,8.26l-.28,1.04c-.43,2.99-.06,3.4-1.86,5.51-1.99-.54-1.79-2.35-1.93-4.17.12-3.75.65-6.94,1.2-10.64Z"/>
        <path class="cls-3" d="M57.67,148.2c.59-.05,1.19-.08,1.79-.09,5.47-.12,10.88,2.5,14.79,6.22-2.75.29-5.5.53-8.26.72-1.66-1.01-4.21-3-6.05-2.22-.72,2.8-.65,3.29-2.7,4.75-2.21.43-4.66-.17-6.91-.57l1.4,3.59c-1.22,1.44-3.96,1.42-6.21,2.76-2.4,1.42-4.42,2.79-6.71,4.36,3.41-9.98,8.07-17.07,18.87-19.52Z"/>
        <path class="cls-26" d="M29.15,186.76c.39,1.23-.54,6.26-.85,7.84-2.17,11.33-2.54,22.17-2.37,33.71-1.21-2.09-2.45-4.59-3.58-6.75-2.09-4-4.08-8.97-5.69-13.18,4.33-8.74,7.68-13.52,12.48-21.62Z"/>
        <path class="cls-10" d="M55,164.33c11.45-.72,17.22,4.9,21.1,14.85-3.52-1.62-7-3.33-10.43-5.13l-2.83-4.98-1.3,1.19c-.45,2.33-.33,2.66-2.29,3.74-2.95-.01-5.11-2.6-7.2-4.62l-.95.19-.91,2.13c-1.83.82-8.05-.09-10.49-.34,5.8-4.57,7.96-5.97,15.3-7.02Z"/>
        <path class="cls-8" d="M39.4,174.17c15.62,3.9,15.79,20.54,8.96,32.49l-.76.41c-1.14-2.29-1.99-6.96-2.59-9.62.75-2.25,2.65-5.75,2.5-7.77-1.36-1.3-1.26-.87-3.71-.91-.92-1.74-3.49-11.71-4.41-14.6Z"/>
        <path class="cls-9" d="M156.44,93.16c2.26,4.05,3.45,6.33,5.15,10.62l-4.73,2.1-1.98.84-4.88,2.52-2.33,1.2-5.49-10.35c1.59-.22.99.05,2.18-1.19,1.04-.85,3.64-2.15,4.95-2.85l2.31-1.2,4.84-1.69Z"/>
        <path class="cls-9" d="M156.44,93.16c2.26,4.05,3.45,6.33,5.15,10.62l-4.73,2.1-1.98.84c-1.73-2.82-3.55-7.23-5.58-10.67l2.31-1.2,4.84-1.69Z"/>
        <path class="cls-2" d="M149.29,96.05l2.31-1.2c1.63,3.34,3.91,7.68,5.25,11.03l-1.98.84c-1.73-2.82-3.55-7.23-5.58-10.67Z"/>
        <path class="cls-2" d="M144.34,98.9c1.78,3.41,3.59,7.12,5.65,10.35l-2.33,1.2-5.49-10.35c1.59-.22.99.05,2.18-1.19Z"/>
        <path class="cls-3" d="M11.01,145.51c9.88-1.04,18.89,2.12,23.17,11.98,1,2.3,2.34,7.33,1.29,9.66l-.81-.31c-3.25-3.37-7.17-6.19-10.09-9.57.52-1.13.96-1.97,1.57-3.05l-.35-1.13c-1.57-.51-4.33.28-6.09.64-2.33-2.3-5.93-4.8-8.66-7.33l-.02-.88Z"/>
        <path class="cls-3" d="M31.89,174.09c.27.02,1.17.27,1.49.35-.55,1.89-2.9,3.9-4.17,5.63-1.87,2.55-4.12,8.42-6.83,9.77-.91-.93-1.03-1.15-2.2-1.65-3.14,2.75.83,5.14-2.95,12.14-.56,1.02-.51,1.09-1.56,1.68-.42-.38-.83-.71-.94-1.3-2.82-14.57,4.38-22.53,17.15-26.63Z"/>
        <path class="cls-9" d="M164.03,90.99l2.81-.9c5.45.36,8.1,4.29,8.31,9.55-.96,1.63-.48,1.07-2.69,1.99-1.47-.28-1.69-.31-3.17-.08l-4.98,1.55-2.72.67c-1.7-4.29-2.89-6.57-5.15-10.62l2.44-.88c1.44-.47,3.61-.93,5.15-1.29Z"/>
        <path class="cls-9" d="M164.03,90.99l2.81-.9c5.45.36,8.1,4.29,8.31,9.55-.96,1.63-.48,1.07-2.69,1.99-1.47-.28-1.69-.31-3.17-.08-1.69-3.79-3.3-6.9-5.26-10.57Z"/>
        <path class="cls-2" d="M164.03,90.99l2.81-.9c1.17,2.49,4.31,9.56,5.62,11.54-1.47-.28-1.69-.31-3.17-.08-1.69-3.79-3.3-6.9-5.26-10.57Z"/>
        <path class="cls-2" d="M156.44,93.16l2.44-.88c1.86,3.58,3.67,7.19,5.42,10.83l-2.72.67c-1.7-4.29-2.89-6.57-5.15-10.62Z"/>
        <path class="cls-7" d="M9.51,162.74c11.22-1.37,16.8.14,24.92,7.94l-7.32-.11c-2.97.03-8.38.8-10.9.04-.61-1.4-.62-1.88-.85-3.4-2.25-.4-3.5,4.52-6.3,5.13-.85-1.17-.8-4.31-.84-5.94-.06-2.42-.05-2.28,1.29-3.66Z"/>
        <path class="cls-9" d="M131.61,107.57c1.47,2.6,4.58,7.77,5.7,10.3l-1.81,1.37-3.24,2.64-1.19.17c-.54.85-.68.92-.79,1.94-1.77,1.71-1.23,1.75-3.15,1.79-3.08-2.11-3.41-4-4.4-7.57-.62-2.23.16-2.8,1.31-4.61.24-.32,1.53-1.59,1.89-1.95.68-.51,2.63-2.39,3.35-3.05,1-.16,1.43-.53,2.35-1.04Z"/>
        <path class="cls-9" d="M124.03,113.6c.24-.32,1.53-1.59,1.89-1.95,2.04,3.47,4,6.94,6.34,10.23l-1.19.17c-.54.85-.68.92-.79,1.94-1.77,1.71-1.23,1.75-3.15,1.79-3.08-2.11-3.41-4-4.4-7.57-.62-2.23.16-2.8,1.31-4.61Z"/>
        <path class="cls-2" d="M124.03,113.6c.24-.32,1.53-1.59,1.89-1.95,2.04,3.47,4,6.94,6.34,10.23l-1.19.17c-.54.85-.68.92-.79,1.94-2.26-3.26-3.74-6.89-6.24-10.39Z"/>
        <path class="cls-2" d="M131.61,107.57c1.47,2.6,4.58,7.77,5.7,10.3l-1.81,1.37c-1.6-2.92-4.32-8.22-6.23-10.64,1-.16,1.43-.53,2.35-1.04Z"/>
        <path class="cls-9" d="M137.51,102.68c1.98-1.55,2.29-1.76,4.66-2.6l5.49,10.35-4.33,2.84-1.91,1.43-4.11,3.16c-1.11-2.53-4.22-7.7-5.7-10.3.84-1.39,2.41-2.55,3.67-3.64l2.23-1.24Z"/>
        <path class="cls-9" d="M137.51,102.68c1.98-1.55,2.29-1.76,4.66-2.6l5.49,10.35-4.33,2.84c-1.48-2.23-4.41-8.01-5.81-10.6Z"/>
        <path class="cls-2" d="M135.28,103.93l2.23-1.24c1.4,2.59,4.33,8.37,5.81,10.6l-1.91,1.43c-2.02-3.27-4.2-7.39-6.13-10.79Z"/>
        <path class="cls-26" d="M100.55,76.39c2.94-1.91,5.87-3.85,8.88-5.64-.47,7.66-.84,15.23-3.33,22.59l-.47-.19c-2.61-.09-3.01-.68-5.17-2.16l-.11-1.42c.2-4.54.23-8.63.2-13.18Z"/>
        <path class="cls-20" d="M100.35,89.57c2.08.38,2.74.38,4.44,1.66.41.69.73,1.11.84,1.91-2.61-.09-3.01-.68-5.17-2.16l-.11-1.42Z"/>
        <path class="cls-9" d="M128.98,72.38c2.99-.24,6.26,3.18,7.08,6.02-.8,3.91-4.05,4.52-7.97,7.7l-2.17.64c-6.41-2.61-6.43-13.31,3.06-14.36Z"/>
        <path class="cls-10" d="M200.41,255.61c5.1,3.96,3.57,14.28-2.59,17.44l-.76-.31c.66-3.71,2.18-7.9,2.3-11.53-4.4,1.27-3.45,8.88-5.49,11.04-1.49-1.03-2.12-4.67-1.73-6.41,1.07-4.84,4.44-7.53,8.27-10.23Z"/>
        <path class="cls-5" d="M138.48,228.69c4.81-.79,12.63-.61,16.09,3.31,2.03,2.3,2.78,6.82.27,8.8-1.88-1.61,0-3.6-3.16-7.38l-.84.53c.2,2.02.78,5.84-.93,7.18-2.03-2.11-2.87-6.85-4.89-8.5-1.57-1.29-7.21-.06-8.76-1.19.57-1.64.83-1.5,2.22-2.74Z"/>
        <path class="cls-10" d="M180.18,286.85c.75-.08,1.07.21,1.76.59-.02,3.63-7.94,4.46-9.42,8.06,3.13.34,7.42-3.58,10.8-2.1.05,1.71.15,1.04-.83,2.77-5.75,3.88-8.57,3.19-15.42,2.69,3.36-7.84,5.12-9.55,13.1-12.01Z"/>
        <path class="cls-6" d="M123.23,190.16c.08,7.81-19.16,25.09-24.84,30.17-.08-1.02-.43-4.14.36-4.72,9.83-7.23,16.34-17.06,24.48-25.45Z"/>
        <path class="cls-11" d="M52.62,206.05c2.86-5.7,3.19-8.21,3.77-14.51,1.86,4.88,7.12,15.55,8.18,19.01-1.1,1.06-1.01.74-2.87,1.03-4.27-3.68-5.98-1.56-9.09-5.53Z"/>
        <path class="cls-5" d="M157.45,228.28c6.66-.22,21.09-1.24,18.31,10.33-.11.46-.64.5-1.13.72l-.75-.54-.69-4.63-1.66-1.45-.67.26c.13,2.66.64,4.58-1.33,6.52-2.47-1.37-2.57-8-6.31-7.89-1.77.05-2.61.11-4.36-.32-1.36-1.48-.94-.79-1.42-3Z"/>
        <path class="cls-10" d="M210.1,274.17c4.67-.31,6.12.19,10.49,1.75-3.76,5.74-7.88,10.57-15.34,9.63,1.42-4.49,4.43-3.89,8.71-6.74l.14-.83c-2.59-.97-6.7,2.16-9.01.28.42-2.93,2.41-3.07,5.02-4.09Z"/>
        <path class="cls-10" d="M167.78,270.41c3.44-.3,10.99-.72,12.97,2.76-.05,1.95.22,1.28-.85,2.66-2.67.06-4.61-3.28-6.88-2.64l-.23,1.15c.89,1.47,2.58,2.07,4.18,2.9,2.88,1.36,4,3.54,5.74,6.13-7.47-1.44-14.26-4.29-14.95-12.96Z"/>
        <path class="cls-18" d="M30.1,207.92l2.83-.52c1.5,1.51.14,2.13,1.87,4.69.18,3.74.65,6.95,1.17,10.65-2.7,2.62-3.33,5.04-5.56,6.96l-.53-.53c-.15-2.94-.66-8.96-.3-11.98.07-.56,1.94-1.15,2.74-1.49-1.07-3.45-3.68-.2-2.23-7.77Z"/>
        <path class="cls-22" d="M33.88,195.16l.03-1.02-1.92-1.21c-.29-2.6,1.88-12.21,3.57-14.25,1.63,2.34-.06,13.27-.45,16.68-.32,5.5-.76,11.23-.29,16.71-1.73-2.55-.37-3.18-1.87-4.69l-2.83.52.15-.82c.87-.72.99-.74,2.08-1.15l.3-.11c-2.36-3.19-3.85-9.3,1.26-10.68Z"/>
        <path class="cls-26" d="M68.1,114.09c.65.86,4.39,12.62,5.01,14.47-1.4.98-2.79.72-4.76.85-8.68-.09-5.6-3.64-3.1-9.35.87-2,1.91-4,2.86-5.97Z"/>
        <path class="cls-27" d="M83.52,275.91c9.31-3.78,13.17-23.42,20.81-32.02-1.73,5.04-11.42,27.82-14.07,32.15-2.8.16-3.99.24-6.74-.13Z"/>
        <path class="cls-4" d="M196.99,276.59c2.68-.74,5.45.82,6.19,3.5.74,2.68-.82,5.45-3.5,6.19-2.68.74-5.45-.82-6.2-3.5-.74-2.68.82-5.45,3.5-6.19Z"/>
        <path class="cls-26" d="M12.93,174.21c3.98.33,5.1.28,9.15-.12-4.11,3.04-5.57,4.69-8.16,9.02l-2.94,6.4c-.52-3.68-2.08-9.14-1.61-12.46.22-1.55,2.1-2.1,3.56-2.84Z"/>
        <path class="cls-4" d="M187.31,284.98c2.37-1.14,5.21-.13,6.33,2.25,1.12,2.38.09,5.21-2.3,6.31-2.36,1.09-5.16.07-6.27-2.28-1.11-2.35-.11-5.16,2.23-6.28Z"/>
        <path class="cls-4" d="M222.67,257.19c1.56-.76,3.41-.6,4.82.42,1.4,1.02,2.13,2.73,1.89,4.45-.24,1.72-1.42,3.16-3.05,3.75-2.34.84-4.93-.29-5.9-2.58-.97-2.29.02-4.94,2.25-6.04Z"/>
        <path class="cls-4" d="M186.02,272.93c7.38.12,6.98,4.3,3.84,9.46-7.12-.5-9.37-4.51-3.84-9.46Z"/>
        <path class="cls-26" d="M115.39,287.7c1.09.38,3.07,1.84,4.14,2.52,5.25,3.3,11.37,4.12,17.14,6.06,1.54.52,1.69,1.08,2.55,2.34-6.97,2.07-21.45-4.57-23.82-10.91Z"/>
        <path class="cls-4" d="M237.22,248.28c1.47-.83,3.27-.79,4.7.1,1.43.9,2.24,2.51,2.12,4.19-.12,1.68-1.16,3.16-2.69,3.85-2.23,1-4.84.07-5.95-2.11-1.1-2.18-.3-4.83,1.82-6.04Z"/>
        <path class="cls-26" d="M8.38,149.31c1.6.67,11.48,8.39,11.82,9.86-4.92-.52-7.37-.41-12.16.72l.34-10.58Z"/>
        <path class="cls-27" d="M103.96,275.97c2.02-6.21,7.81-24.44,10.56-29.66.72,2.17-6.41,25.05-7.38,29.57-.87.03-2.37.13-3.18.09Z"/>
        <path class="cls-4" d="M252.52,254.44c1.49-.65,3.21-.43,4.49.57,1.28.99,1.92,2.61,1.65,4.21-.26,1.6-1.37,2.93-2.91,3.47-2.25.79-4.72-.34-5.59-2.56-.87-2.22.17-4.73,2.36-5.68Z"/>
        <path class="cls-25" d="M233.52,205.7c1.77-.67,5.24-.45,7.28-.45-1.18,2.13-3.17,5.09-3.2,7.39,1.85,1.84,1.54-.53,2.98,1.52-.32,1.82-2.84,5.6-4.16,6.86l-.87-.4c.48-1.51,2.1-2.41,1.11-3.94-1.64-2.54-2.2-9.09-3.15-10.98Z"/>
        <path class="cls-27" d="M114.21,187.35l.1,1.25c-2.91,6.41-9.96,13.38-15.01,18.14-1.19-4.26,11.38-15.77,14.91-19.39Z"/>
        <path class="cls-9" d="M232.09,117.91c6.33,6.05,9.65,9.52,12.18,18.27-4.63-7.36-8.4-12.53-16.68-16.38l1.35-.55,3.16-1.34Z"/>
        <path class="cls-11" d="M100.46,90.98c2.16,1.48,2.56,2.06,5.17,2.16l.47.19c-.69,3.97-3.68,10.08-5.46,13.93-.22-5.14-.13-11.07-.18-16.28Z"/>
        <path class="cls-11" d="M74.59,225.79c3.9,4.41-2.32,6.41-6.01,8.52l-.99-.06c.33-1.95,5.3-6.67,7.01-8.46Z"/>
        <circle class="cls-21" cx="159.19" cy="119.25" r="1.93"/>
        <text class="cls-16" transform="translate(45.4 142.92) rotate(-77.26)"><tspan x="0" y="0">T</tspan></text>
        <text class="cls-16" transform="translate(48.98 124.55) rotate(-65.89)"><tspan x="0" y="0">O</tspan></text>
        <text class="cls-16" transform="translate(59.86 100.22) rotate(-53.04)"><tspan x="0" y="0">U</tspan></text>
        <text class="cls-16" transform="translate(74.23 80.66) rotate(-40.27)"><tspan x="0" y="0">Q</tspan></text>
        <text class="cls-16" transform="translate(94.54 63.43) rotate(-27.45)"><tspan x="0" y="0">U</tspan></text>
        <text class="cls-16" transform="translate(116.27 52.31) rotate(-16.43)"><tspan x="0" y="0">E</tspan></text>
        <text class="cls-16" transform="translate(134.87 47.15) rotate(-9.67)"><tspan x="0" y="0"> </tspan></text>
        <text class="cls-16" transform="translate(141.85 45.36) rotate(-2.01)"><tspan x="0" y="0">&amp;</tspan></text>
        <text class="cls-16" transform="translate(165.08 45.03) rotate(5.58)"><tspan x="0" y="0"> </tspan></text>
        <text class="cls-16" transform="translate(172.37 45.31) rotate(12.46)"><tspan x="0" y="0">T</tspan></text>
        <text class="cls-16" transform="translate(190.73 48.8) rotate(23.81)"><tspan x="0" y="0">O</tspan></text>
        <text class="cls-16" transform="translate(215.09 59.54) rotate(36.66)"><tspan x="0" y="0">U</tspan></text>
        <text class="cls-16" transform="translate(234.63 74.14) rotate(48.09)"><tspan x="0" y="0">C</tspan></text>
        <text class="cls-16" transform="translate(248.92 89.68) rotate(59.39)"><tspan x="0" y="0">A</tspan></text>
        <text class="cls-16" transform="translate(261.17 109.97) rotate(71.75)"><tspan x="0" y="0">N</tspan></text>
        <circle class="cls-15" cx="188.62" cy="288.89" r="1.28"/>
        <circle class="cls-15" cx="187.71" cy="275.96" r="1.32"/>
        <circle class="cls-15" cx="198.89" cy="281.79" r="1.31"/>
        <circle class="cls-15" cx="224.11" cy="259.8" r="1.29"/>
        <circle class="cls-15" cx="238.9" cy="250.64" r="1.34"/>
        <circle class="cls-15" cx="254.64" cy="257.65" r="1.31"/>
        <path class="cls-9" d="M123.31,227.66c.23-.05,1.63-.65,1.9-.62-.65,5.02-12.03,12.37-16.01,12.37-1.46-.32-1.96-1.16-2.23-1.59-1.07-1.7-1.37-3.7-.91-4.96,2.72-2.01,12.8-3.86,17.25-5.21Z"/>
      </g>
    </g>
  </g>
</svg>