<?xml version="1.0" encoding="UTF-8" standalone="no"?><!DOCTYPE svg PUBLIC "-//W3C//DTD SVG 1.1//EN" "http://www.w3.org/Graphics/SVG/1.1/DTD/svg11.dtd"><svg width="100%" height="100%" viewBox="0 0 795 795" version="1.1" xmlns="http://www.w3.org/2000/svg" xmlns:xlink="http://www.w3.org/1999/xlink" xml:space="preserve" xmlns:serif="http://www.serif.com/" style="fill-rule:evenodd;clip-rule:evenodd;stroke-linejoin:round;stroke-miterlimit:2;"><g><path d="M781.138,397.186c0,211.999 -171.859,383.858 -383.858,383.858c-211.999,0 -383.858,-171.859 -383.858,-383.858c0,-211.999 171.859,-383.858 383.858,-383.858c211.999,0 383.858,171.859 383.858,383.858" style="fill:#eae5d2;fill-rule:nonzero;"/><path d="M423.236,773.664c-207.928,14.325 -388.036,-142.727 -402.093,-350.625c-14.059,-207.898 143.267,-387.757 351.233,-401.543c207.581,-13.755 387.079,143.182 401.111,350.693c14.032,207.513 -142.707,387.174 -350.25,401.475m-24.244,-773.661c-219.64,-0.942 -398.37,176.473 -398.99,396.061c-0.618,219.59 177.109,398.013 396.749,398.307c219.181,0.291 397.191,-176.938 397.807,-396.066c0.621,-219.128 -176.388,-397.357 -395.566,-398.302" style="fill:#332f1f;fill-rule:nonzero;"/><path d="M224.044,601.092c-56.709,-51.682 -89.018,-112.546 -92.45,-190.163c-3.007,-70.276 21.893,-138.893 69.273,-190.894c47.906,-52.744 115.161,-83.807 186.387,-86.091c70.64,-2.872 139.519,22.483 191.427,70.469c52.167,48.343 82.657,115.651 84.586,186.739c2.507,70.441 -23.325,138.948 -71.718,190.203c-48.916,52.139 -116.742,82.43 -188.223,84.058c-17.936,0.435 -71.147,-2.578 -84.526,-14.19c-2.264,-4.771 -1.95,-6.326 1.907,-10.539c3.892,-0.178 6.984,0.909 10.655,1.942c79.544,22.378 154.008,4.67 219.882,-43.481c-33.334,0.342 -67.246,-0.018 -100.444,0.543c-6.113,8.009 -8.826,10.107 -19.323,12.13c-11.165,3.427 -21.141,-19.227 -30.055,-9.652c-5.904,6.344 -4.515,11.331 -15.24,12.047c-14.569,0.972 -18.421,1.716 -24.488,-12.112c-6.884,-4.266 -34.698,-2.854 -44.24,-2.774c-5.085,22.898 -13.16,102.185 -47.74,92.915c-1.814,-1.339 -4.997,-1.869 -7.316,-2.434c-6.185,13.763 -18.75,27.159 -35.296,23.631c-8.587,-6.56 -4.351,-12.363 -0.626,-21.021c-1.216,-1.389 -3.61,-3.449 -5.06,-4.773c-6.889,3.859 -17.104,7.572 -23.619,1.879c-9.037,-18.504 40.223,-81.762 46.232,-102.59c-7.821,-6.944 -10.788,4.354 -11.693,-15.72c-3.161,-70.117 27.98,-126.053 76.391,-174.307c10.366,-10.333 5.286,-49.601 7.934,-68.756c-13.441,-9.889 -26.548,-30.055 -17.102,-44.235c4.379,-6.567 1.128,-23.28 3.427,-34.517c1.299,-10.271 7.517,-19.596 6.831,-23.795c-14.883,-9.74 -22.365,-27.257 -5.444,-43.26c13.019,-9.278 24.327,-12.695 36.206,-0.671c6.51,4.899 7.622,17.044 12.057,16.202c30.847,-5.864 59.812,13.775 85.875,27.314c2.769,1.437 11.21,22.611 12.803,26.993c71.145,-0.653 169.964,18.581 174.692,108.747c0.337,6.396 -0.314,13.486 -4.635,18.501c-4.424,1.171 -33.178,-12.617 -42.494,-13.841c-31.362,-4.115 -60.297,-0.374 -91.472,2.706c-7.025,0.693 -21.046,0.575 -26.337,2.603c-3.409,7.869 12.024,41.723 14.617,54.714c12.084,60.53 -14.333,107.489 -65.585,138.099c20.453,1.829 29.774,1.033 40.019,20.531l118.89,0.133c51.214,-50.307 80.393,-109.916 80.9,-182.706c0.59,-67.648 -25.93,-132.718 -73.645,-180.686c-46.835,-46.994 -110.37,-73.547 -176.724,-73.853c-68.851,-0.045 -132.261,25.031 -181.035,73.924c-47.245,47.823 -73.677,112.37 -73.539,179.583c0.173,69.213 28.457,131.673 77.343,180.033c2.809,2.814 5.675,5.567 8.602,8.258l-6.866,12.165Z" style="fill:#332f1f;fill-rule:nonzero;"/><path d="M221.416,687.642c1.304,-3.952 35.522,-68.547 37.128,-70.436l-1.206,1.259l2.502,-1.618c-1.781,9.168 -28.51,69.881 -33.364,75.569c-1.216,-1.387 -3.61,-3.449 -5.06,-4.773" style="fill:#61716d;fill-rule:nonzero;"/><path d="M283.016,630.872l2.226,3.658c-2.811,9.813 -15.222,50.33 -15.529,57.709c-1.814,-1.337 -4.997,-1.867 -7.316,-2.432c6.193,-19.875 13.069,-39.532 20.619,-58.935" style="fill:#61716d;fill-rule:nonzero;"/><path d="M289.84,611.912c-0.538,7.999 -2.6,14.901 -4.598,22.619l-2.226,-3.658c1.957,-7.751 3.716,-11.745 6.824,-18.961" style="fill:#595c57;fill-rule:nonzero;"/><path d="M362.805,304.147c8.992,-14.444 19.463,-25.857 36.547,-30.442c28.724,-7.708 26.098,32.701 17.717,47.089c-4.859,27.616 8.306,37.738 31.726,46.918c1.337,31.417 22.857,55.611 17.468,86.397c-1.801,10.296 -24.89,9.768 -32.641,5.464c-23.375,-12.976 -24.267,-40.127 -37.778,-60.714c-10.921,-16.639 -34.113,-22.895 -41.454,-41.763c-5.947,-17.592 0.904,-37.148 8.414,-52.95" style="fill:#eae5d2;fill-rule:nonzero;"/><path d="M362.805,304.147c8.992,-14.444 19.463,-25.857 36.547,-30.442c28.724,-7.708 26.098,32.701 17.717,47.089c-22.812,20.976 -47.911,14.33 -54.264,-16.647" style="fill:#e9b933;fill-rule:nonzero;"/><path d="M390.928,289.99c7.313,-2.47 15.235,1.495 17.639,8.828c2.402,7.334 -1.638,15.217 -8.994,17.551c-7.261,2.301 -15.021,-1.673 -17.393,-8.911c-2.369,-7.236 1.533,-15.029 8.748,-17.468" style="fill:#332f1f;fill-rule:nonzero;"/><path d="M435.095,272.247c5.437,-6.964 9.472,-9.273 18.566,-9.864c39.105,-2.548 96.658,8.027 128.027,32.98c-2.638,1.344 -7.21,3.912 -9.896,4.512l-0.764,1.012c-12.044,5.781 -13.411,9.112 -13.145,22.345l7.585,12.26c-47.511,-15.187 -89.068,-14.273 -137.841,-11.313c4.417,-11.79 6.035,-18.112 6.042,-30.656c-1.178,-8.454 -1.62,-13.338 1.425,-21.277" style="fill:#e9b933;fill-rule:nonzero;"/><path d="M433.67,293.524c35.354,-0.902 61.854,0.186 95.151,15.19c9.911,4.467 19.506,10.414 29.063,14.519l7.585,12.26c-47.511,-15.185 -89.068,-14.273 -137.841,-11.313c4.417,-11.79 6.037,-18.112 6.042,-30.656" style="fill:#df723f;fill-rule:nonzero;"/><path d="M435.095,272.247c5.05,-6.962 9.472,-9.273 18.566,-9.864c39.105,-2.548 96.658,8.027 128.027,32.98c-2.638,1.344 -7.21,3.912 -9.896,4.512c-17.109,-18.873 -72.303,-27.274 -96.464,-28.407c-12.833,-0.603 -27.236,0.721 -40.233,0.779" style="fill:#eae5d2;fill-rule:nonzero;"/><path d="M469.958,331.602c45.489,-0.548 91.01,5.874 130.278,29.736c-13.019,-3.04 -21.777,-4.801 -35.002,-6.515c-31.648,-1.226 -57.97,1.811 -89.214,4.374c-18.581,1.52 -33.027,-12.507 -45.238,-25.071c11.763,-1.761 27.013,-2.01 39.175,-2.525" style="fill:#df723f;fill-rule:nonzero;"/><path d="M379.565,437.802c4.145,3.329 5.035,10.328 5.103,15.388c0.678,51.478 -43.853,97.299 -90.711,112.398c-15.861,5.113 -31.824,6.447 -48.345,7.148c33.022,-23.923 51.054,-36.658 75.75,-70.082c6.253,-9.354 11.979,-17.169 18.795,-26.129c-13.132,37.989 -38.751,63.887 -68.911,89.257c26.792,-6.869 51.29,-20.707 71.002,-40.105c25.538,-25.247 37.218,-52.114 37.319,-87.875" style="fill:#61716d;fill-rule:nonzero;"/><path d="M355.154,208.459c20.446,-2.226 31.698,1.206 49.368,10.444c-29,10.004 -40.811,14.68 -66.344,31.312c-9.984,6.326 -19.983,14.755 -28.679,22.727c0.937,-32.942 12.024,-55.131 45.655,-64.482" style="fill:#eae5d2;fill-rule:nonzero;"/><path d="M417.986,226.841c3.949,-0.397 6.253,-1.502 9.7,1.407c5.196,4.384 14.243,16.396 10.77,23.882c-1.97,0.847 -3.864,1.706 -5.904,2.379c-2.862,0.209 -5.836,0.369 -8.675,0.716c-2.64,0.754 -10.512,2.849 -12.68,3.889l-6.027,2.133c-3.369,0.965 -9.223,3.427 -12.718,4.791c-3.683,-9.861 -10.489,-17.971 -10.946,-26.284c2.806,-4.836 3.939,-4.02 10.263,-6.781c2.048,-0.005 4.555,-1.309 6.54,-2.133c5.364,-1.45 7.896,-2.392 13.474,-2.09c2.51,0.103 3.919,-0.844 6.203,-1.909" style="fill:#df723f;fill-rule:nonzero;"/><path d="M417.986,226.841c3.949,-0.397 6.253,-1.502 9.7,1.407c5.196,4.384 14.243,16.396 10.77,23.882c-1.97,0.847 -3.864,1.706 -5.904,2.379c-2.862,0.209 -5.836,0.369 -8.675,0.716c-3.801,-8.929 -7.834,-17.757 -12.094,-26.475c2.51,0.103 3.919,-0.844 6.203,-1.909" style="fill:#df723f;fill-rule:nonzero;"/><path d="M411.783,228.75c2.507,0.103 3.919,-0.844 6.203,-1.909c2.608,5.351 11.225,24.709 14.567,27.669c-2.862,0.209 -5.836,0.372 -8.675,0.716c-3.801,-8.929 -7.834,-17.757 -12.094,-26.475" style="fill:#3e3817;fill-rule:nonzero;"/><path d="M398.309,230.842c5.364,-1.45 7.894,-2.394 13.474,-2.093c4.261,8.72 8.293,17.546 12.094,26.475c-2.64,0.756 -10.514,2.852 -12.68,3.889l-12.888,-28.272Z" style="fill:#df723f;fill-rule:nonzero;"/><path d="M391.77,232.974c2.045,-0.005 4.555,-1.309 6.54,-2.133l12.886,28.274l-6.025,2.133c-4.336,-9.484 -8.803,-18.911 -13.401,-28.274" style="fill:#3e3817;fill-rule:nonzero;"/><path d="M361.518,247.978c4.608,-3.047 7.452,-4.871 12.391,-7.339l13.215,27.365l-11.612,6.972c-2.156,1.706 -2.721,2.389 -5.437,3.103c-3.065,0.887 -8.158,4.397 -11.074,6.223l-15.036,-26.787c5.575,-3.507 7.449,-5.495 13.273,-4.902l3.748,-1.352l0.533,-3.284Z" style="fill:#df723f;fill-rule:nonzero;"/><path d="M343.965,257.513c5.575,-3.507 7.449,-5.495 13.27,-4.899c4.203,8.527 8.484,17.016 12.841,25.463c-3.065,0.887 -8.158,4.397 -11.074,6.223l-15.036,-26.787Z" style="fill:#df723f;fill-rule:nonzero;"/><path d="M357.236,252.614l2.663,-2.623l1.618,-2.012c3.887,7.532 9.811,20.006 13.994,26.998c-2.156,1.706 -2.721,2.387 -5.437,3.103c-4.354,-8.449 -8.635,-16.938 -12.838,-25.465" style="fill:#3e3817;fill-rule:nonzero;"/><path d="M316.168,281.375c1.653,-3.645 1.862,-4.643 5.329,-6.489c8.032,2.661 13.7,16.381 16.757,23.807c-2.299,3.954 -3.869,5.155 -7.143,8.175c-1.603,1.492 -3.482,3.359 -5.196,4.628l-4.261,3.874c-10.351,1.153 -14.441,-14.172 -15.66,-22.066c1.623,-5.02 0.485,-3.173 5.01,-6.881c2.857,-1.472 3.193,-2.367 5.163,-5.047" style="fill:#df723f;fill-rule:nonzero;"/><path d="M311.005,286.423c4.557,7.932 9.858,17.707 14.911,25.073l-4.261,3.874c-10.348,1.153 -14.441,-14.172 -15.66,-22.069c1.625,-5.017 0.485,-3.173 5.01,-6.879" style="fill:#df723f;fill-rule:nonzero;"/><path d="M316.168,281.375c3.872,6.743 10.763,19.566 14.944,25.493c-1.603,1.492 -3.482,3.359 -5.196,4.628c-5.052,-7.366 -10.353,-17.142 -14.911,-25.073c2.857,-1.472 3.193,-2.367 5.163,-5.047" style="fill:#3e3817;fill-rule:nonzero;"/><path d="M323.25,182.014l2.666,0c5.042,1.01 8.06,4.382 11.411,8.482c10.984,13.323 1.075,10.964 -8.788,19.915c0,0 -10.69,10.738 -13.75,8.705c-20.096,-13.343 -12.702,-34.789 8.462,-37.103" style="fill:#df723f;fill-rule:nonzero;"/><path d="M353.646,572.748c12.69,0.555 24.043,0 33.399,9.828c6.02,6.321 10.017,14.77 2.068,21.031l-2.163,-0.369c-1.035,-8.062 -0.605,-16.036 -9.846,-17.529c2.002,7.376 4.899,15.438 -2.759,19.81c-4.6,-3.965 -2.527,-12.431 -8.326,-19.933c-7.987,-4.957 -14.599,-4.758 -23.523,-2.5c-1.078,-3.201 -1.045,-1.814 0.49,-5.414c4.065,-3.467 5.532,-3.598 10.66,-4.924" style="fill:#619685;fill-rule:nonzero;"/><path d="M310.366,572.365c0.57,-0.131 4.1,-1.623 4.776,-1.548c-1.641,12.62 -30.214,31.08 -40.223,31.08c-3.661,-0.814 -4.929,-2.907 -5.613,-3.987c-2.701,-4.258 -3.452,-9.301 -2.279,-12.449c6.834,-5.042 32.156,-9.708 43.338,-13.097" style="fill:#df723f;fill-rule:nonzero;"/><path d="M309.142,477.484l0.322,0.191l0.462,1.857c-15.416,30.651 -35.497,50.883 -61.701,72.004c-6.869,-6.19 5.816,-17.579 10.728,-20.654c21.938,-13.74 32.598,-36.517 50.189,-53.398" style="fill:#61716d;fill-rule:nonzero;"/><path d="M393.542,573.727c12.652,-0.384 32.663,-2.899 43.112,5.419c4.937,3.929 6.791,16.662 2.073,21.337l-2.45,-1.681l-1.555,-10.384c-1.271,-1.291 -3.346,-3.05 -4.756,-4.314l-2.015,0.304c0.128,1.741 0.236,3.482 0.329,5.228c0.301,6.025 0.53,7.62 -3.053,11.59l-2.299,-0.146c-1.992,-4.299 -2.502,-8.71 -3.319,-13.381c-9.007,-12.213 -16.534,-0.417 -26.068,-13.974" style="fill:#619685;fill-rule:nonzero;"/><path d="M338.546,260.847c4.301,3.515 13.3,20.579 12.687,26.711c-0.317,3.123 -4.339,5.186 -6.783,7.045c-4.319,-4.399 -13.366,-19.609 -12.685,-26.289c0.314,-3.065 4.449,-5.532 6.781,-7.467" style="fill:#df723f;fill-rule:nonzero;"/><path d="M581.687,295.362c16.843,13.592 24.654,26.548 32.49,46.69c-13.092,-18.466 -21.536,-31.756 -43.15,-41.165l0.764,-1.01c2.688,-0.6 7.261,-3.171 9.896,-4.515" style="fill:#df723f;fill-rule:nonzero;"/><path d="M285.427,471.8l0.945,1.08c-3.145,12.333 -25.493,34.256 -34.902,43.805c-1.213,-1.244 -0.681,-0.769 -1.065,-3.075c3.314,-10.605 26.277,-33.254 35.022,-41.811" style="fill:#61716d;fill-rule:nonzero;"/><path d="M404.09,298.753c0,2.407 -1.952,4.359 -4.359,4.359c-2.407,0 -4.356,-1.952 -4.356,-4.359c0,-2.407 1.95,-4.359 4.356,-4.359c2.407,0 4.359,1.952 4.359,4.359" style="fill:#fff;fill-rule:nonzero;"/><g><path d="M122.657,312.44c-7.152,-2.419 -36.178,-12.237 -43.33,-14.657c-0.713,2.107 -3.62,10.701 -4.332,12.808c-2.162,-0.731 -11.061,-3.742 -13.224,-4.473c2.232,-6.598 11.328,-33.489 13.56,-40.087c2.162,0.731 11.061,3.742 13.224,4.473c-0.694,2.051 -3.592,10.618 -4.304,12.725c7.152,2.419 36.178,12.237 43.33,14.657c-0.806,2.384 -4.098,12.115 -4.923,14.554Z" style="fill:#332f1f;fill-rule:nonzero;"/><path d="M148.478,256.456c-2.108,3.716 -4.732,6.77 -7.872,9.161c-3.14,2.391 -6.581,4.039 -10.324,4.944c-3.743,0.905 -7.643,1.048 -11.7,0.429c-4.057,-0.619 -8.045,-2.04 -11.965,-4.264c-3.92,-2.224 -7.174,-4.911 -9.761,-8.061c-2.587,-3.15 -4.44,-6.556 -5.559,-10.219c-1.119,-3.663 -1.457,-7.455 -1.016,-11.377c0.441,-3.922 1.716,-7.741 3.825,-11.457c2.108,-3.716 4.725,-6.757 7.85,-9.123c3.125,-2.366 6.554,-4.021 10.286,-4.965c3.732,-0.945 7.614,-1.115 11.645,-0.51c4.031,0.604 8.007,2.019 11.927,4.242c3.92,2.224 7.186,4.918 9.799,8.082c2.613,3.164 4.484,6.598 5.613,10.301c1.13,3.703 1.481,7.502 1.054,11.398c-0.427,3.896 -1.695,7.703 -3.803,11.419Zm-12.371,-7.018c1.415,-2.495 2.004,-4.987 1.768,-7.476c-0.236,-2.489 -1.193,-4.866 -2.87,-7.129c-1.677,-2.263 -3.992,-4.233 -6.944,-5.908c-2.953,-1.675 -5.805,-2.637 -8.558,-2.886c-2.752,-0.249 -5.257,0.163 -7.516,1.238c-2.258,1.074 -4.095,2.859 -5.51,5.353c-1.386,2.444 -1.981,4.916 -1.784,7.416c0.197,2.5 1.121,4.875 2.772,7.124c1.651,2.249 3.954,4.211 6.906,5.886c2.953,1.675 5.831,2.652 8.634,2.93c2.803,0.278 5.341,-0.133 7.614,-1.233c2.273,-1.1 4.102,-2.871 5.488,-5.315Z" style="fill:#332f1f;fill-rule:nonzero;"/><path d="M183.032,172.009c2.745,2.462 4.798,5.148 6.158,8.058c1.36,2.91 2.073,5.908 2.137,8.992c0.064,3.084 -0.496,6.12 -1.681,9.107c-1.185,2.987 -2.949,5.787 -5.294,8.402c-2.384,2.658 -4.986,4.727 -7.807,6.207c-2.821,1.48 -5.738,2.343 -8.75,2.59c-3.012,0.247 -6.018,-0.149 -9.018,-1.188c-2.999,-1.039 -5.872,-2.789 -8.617,-5.251c-4.575,-4.103 -23.138,-20.75 -27.714,-24.854c1.719,-1.917 8.578,-9.565 10.258,-11.438c4.488,4.025 22.572,20.242 27.06,24.267c2.353,2.11 4.835,3.156 7.445,3.139c2.61,-0.018 4.834,-1.051 6.67,-3.099c1.837,-2.048 2.612,-4.36 2.327,-6.935c-0.285,-2.575 -1.604,-4.918 -3.957,-7.028c-4.488,-4.025 -22.572,-20.242 -27.06,-24.267c1.719,-1.917 8.578,-9.565 10.258,-11.438c4.532,4.064 23.051,20.672 27.583,24.736Z" style="fill:#332f1f;fill-rule:nonzero;"/><path d="M230.112,165.364c-3.463,2.503 -7.119,4.188 -10.969,5.057c-3.85,0.868 -7.665,0.936 -11.445,0.201c-3.78,-0.734 -7.386,-2.227 -10.818,-4.477c-3.432,-2.25 -6.467,-5.202 -9.107,-8.854c-2.64,-3.653 -4.481,-7.45 -5.524,-11.39c-1.042,-3.941 -1.311,-7.809 -0.804,-11.605c0.506,-3.796 1.776,-7.386 3.808,-10.768c2.033,-3.383 4.781,-6.325 8.244,-8.828c3.463,-2.503 7.108,-4.18 10.934,-5.031c3.826,-0.851 7.633,-0.93 11.42,-0.237c3.787,0.693 7.388,2.153 10.802,4.38c3.414,2.226 6.442,5.166 9.081,8.819c2.846,3.937 4.772,8.052 5.779,12.343c1.007,4.291 1.124,8.45 0.35,12.475c1.453,0.611 2.955,1.241 4.506,1.889c1.552,0.648 3.054,1.278 4.506,1.889c-0.927,2.114 -1.849,4.261 -2.766,6.44c-0.917,2.179 -1.839,4.326 -2.766,6.44c-1.569,-0.672 -3.158,-1.347 -4.767,-2.025c-1.61,-0.678 -3.199,-1.353 -4.767,-2.025c-0.825,0.957 -1.708,1.884 -2.648,2.781c-0.941,0.897 -1.957,1.739 -3.048,2.528Zm-29.602,-17.278c1.954,2.704 4.124,4.783 6.51,6.236c2.386,1.453 4.838,2.173 7.355,2.159c2.517,-0.014 4.908,-0.803 7.172,-2.367c-1.65,-0.685 -3.289,-1.378 -4.916,-2.08c-1.627,-0.702 -3.248,-1.372 -4.864,-2.009c0.927,-2.114 1.849,-4.261 2.766,-6.44c0.917,-2.179 1.839,-4.326 2.766,-6.44c1.616,0.637 3.238,1.307 4.864,2.009c1.627,0.702 3.265,1.395 4.916,2.08c-0.219,-1.503 -0.672,-3.053 -1.358,-4.652c-0.686,-1.599 -1.595,-3.181 -2.726,-4.746c-1.988,-2.751 -4.182,-4.813 -6.582,-6.184c-2.399,-1.371 -4.849,-2.038 -7.349,-2.001c-2.5,0.038 -4.913,0.896 -7.237,2.576c-2.277,1.646 -3.846,3.646 -4.708,6.002c-0.861,2.356 -1.009,4.9 -0.442,7.632c0.566,2.732 1.844,5.474 3.832,8.225Z" style="fill:#332f1f;fill-rule:nonzero;"/><path d="M296.532,103.021c1.471,3.381 2.219,6.678 2.244,9.891c0.025,3.212 -0.575,6.234 -1.801,9.065c-1.226,2.831 -2.999,5.358 -5.319,7.58c-2.32,2.222 -5.091,4.034 -8.311,5.435c-3.274,1.424 -6.501,2.222 -9.682,2.393c-3.181,0.171 -6.192,-0.258 -9.034,-1.288c-2.842,-1.03 -5.41,-2.641 -7.704,-4.834c-2.295,-2.193 -4.177,-4.981 -5.648,-8.362c-2.452,-5.636 -12.399,-28.5 -14.85,-34.135c2.362,-1.027 11.781,-5.125 14.089,-6.129c2.405,5.528 12.095,27.802 14.5,33.33c1.261,2.898 3.082,4.883 5.462,5.953c2.381,1.071 4.832,1.057 7.355,-0.04c2.523,-1.097 4.19,-2.876 5.003,-5.336c0.813,-2.46 0.589,-5.139 -0.672,-8.037c-2.405,-5.528 -12.095,-27.802 -14.5,-33.33c2.362,-1.027 11.781,-5.125 14.089,-6.129c2.428,5.582 12.352,28.392 14.78,33.974Z" style="fill:#332f1f;fill-rule:nonzero;"/><path d="M315.848,121.083c-2.184,-9.588 -11.076,-48.623 -13.26,-58.21c5.764,-1.313 29.162,-6.643 34.926,-7.956c0.494,2.169 2.548,11.186 3.042,13.354c-3.31,0.754 -16.636,3.789 -19.946,4.543c0.325,1.427 1.605,7.048 1.93,8.475c3.025,-0.689 15.266,-3.477 18.234,-4.153c0.481,2.112 2.45,10.758 2.944,12.926c-2.968,0.676 -15.209,3.464 -18.234,4.153c0.377,1.655 1.924,8.446 2.301,10.101c3.31,-0.754 16.636,-3.789 19.946,-4.543c0.494,2.169 2.548,11.186 3.042,13.354c-5.764,1.313 -29.162,6.643 -34.926,7.956Z" style="fill:#332f1f;fill-rule:nonzero;"/><path d="M422.892,92.72c-0.073,3.921 -1.117,7.297 -3.13,10.128c-2.014,2.831 -4.762,4.99 -8.243,6.476c-3.482,1.486 -7.505,2.187 -12.069,2.102c-4.272,-0.08 -8.048,-0.838 -11.329,-2.275c-3.281,-1.437 -5.848,-3.475 -7.701,-6.115c-1.853,-2.64 -2.747,-5.744 -2.68,-9.314c0.055,-2.926 0.763,-5.606 2.126,-8.039c1.363,-2.433 3.406,-4.503 6.131,-6.208c-2.135,-1.679 -3.694,-3.625 -4.677,-5.839c-0.983,-2.214 -1.45,-4.637 -1.401,-7.271c0.072,-3.862 1.171,-7.062 3.296,-9.598c2.125,-2.536 4.956,-4.415 8.491,-5.637c3.535,-1.222 7.44,-1.837 11.713,-1.845c4.274,-0.008 8.595,0.585 12.963,1.778c-0.044,2.341 -0.222,11.909 -0.267,14.308c-2.445,-0.748 -4.908,-1.292 -7.39,-1.63c-2.482,-0.339 -4.749,-0.41 -6.801,-0.215c-2.053,0.196 -3.715,0.663 -4.987,1.4c-1.272,0.737 -1.922,1.808 -1.948,3.213c-0.034,1.814 1.172,3.081 3.617,3.799c2.445,0.719 5.833,1.119 10.164,1.199c0.02,-1.053 0.1,-5.355 0.119,-6.408c2.399,0.045 12.143,0.226 14.484,0.27c-0.02,1.053 -0.1,5.355 -0.119,6.408c0.878,0.016 4.565,0.085 5.442,0.101c-0.04,2.165 -0.202,10.826 -0.242,12.992c-0.878,-0.016 -4.565,-0.085 -5.442,-0.101c-0.02,1.053 -0.098,5.267 -0.118,6.32Zm-29.751,-0.906c-0.032,1.697 0.571,3.128 1.808,4.293c1.237,1.165 2.997,1.768 5.279,1.811c2.458,0.046 4.429,-0.518 5.915,-1.69c1.485,-1.172 2.248,-2.841 2.289,-5.007c0.015,-0.819 0.08,-4.272 0.095,-5.091c-4.799,-0.089 -8.551,0.192 -11.256,0.844c-2.705,0.652 -4.082,2.266 -4.13,4.841Z" style="fill:#332f1f;fill-rule:nonzero;"/><path d="M463.58,117.541c1.934,-7.299 9.784,-36.917 11.719,-44.215c-2.15,-0.57 -10.919,-2.894 -13.069,-3.464c0.585,-2.207 2.992,-11.287 3.576,-13.494c6.733,1.784 34.173,9.057 40.906,10.841c-0.585,2.207 -2.992,11.287 -3.576,13.494c-2.093,-0.555 -10.835,-2.872 -12.985,-3.441c-1.934,7.299 -9.784,36.917 -11.719,44.215c-2.433,-0.645 -12.362,-3.276 -14.852,-3.936Z" style="fill:#332f1f;fill-rule:nonzero;"/><path d="M521.252,139.599c-3.848,-1.857 -7.069,-4.273 -9.663,-7.247c-2.594,-2.974 -4.467,-6.299 -5.617,-9.974c-1.151,-3.675 -1.552,-7.557 -1.204,-11.646c0.349,-4.089 1.502,-8.163 3.461,-12.221c1.959,-4.059 4.424,-7.484 7.396,-10.274c2.971,-2.79 6.247,-4.865 9.828,-6.224c3.58,-1.359 7.342,-1.948 11.284,-1.768c3.942,0.18 7.838,1.199 11.686,3.056c3.848,1.857 7.056,4.266 9.624,7.228c2.568,2.961 4.447,6.273 5.637,9.934c1.19,3.661 1.617,7.523 1.281,11.586c-0.336,4.062 -1.483,8.123 -3.442,12.182c-1.959,4.059 -4.43,7.497 -7.415,10.313c-2.984,2.817 -6.286,4.911 -9.906,6.284c-3.62,1.373 -7.387,1.975 -11.303,1.808c-3.916,-0.168 -7.798,-1.18 -11.646,-3.037Zm6.182,-12.809c2.583,1.247 5.109,1.669 7.577,1.268c2.468,-0.401 4.776,-1.513 6.923,-3.337c2.147,-1.823 3.959,-4.264 5.434,-7.321c1.476,-3.057 2.246,-5.967 2.312,-8.73c0.066,-2.763 -0.512,-5.235 -1.733,-7.417c-1.222,-2.182 -3.124,-3.896 -5.707,-5.143c-2.53,-1.221 -5.036,-1.651 -7.518,-1.289c-2.482,0.362 -4.79,1.441 -6.925,3.238c-2.135,1.797 -3.94,4.224 -5.415,7.281c-1.476,3.057 -2.259,5.994 -2.351,8.809c-0.091,2.815 0.487,5.32 1.735,7.515c1.248,2.195 3.137,3.902 5.667,5.124Z" style="fill:#332f1f;fill-rule:nonzero;"/><path d="M607.66,168.389c-2.274,2.902 -4.818,5.129 -7.632,6.679c-2.814,1.55 -5.757,2.46 -8.831,2.729c-3.073,0.269 -6.139,-0.089 -9.198,-1.073c-3.059,-0.984 -5.97,-2.559 -8.734,-4.725c-2.81,-2.202 -5.047,-4.662 -6.711,-7.378c-1.664,-2.717 -2.719,-5.569 -3.165,-8.559c-0.446,-2.989 -0.25,-6.015 0.587,-9.077c0.838,-3.062 2.394,-6.044 4.668,-8.946c3.791,-4.837 19.17,-24.464 22.961,-29.301c2.027,1.588 10.113,7.924 12.094,9.477c-3.719,4.745 -18.701,23.865 -22.419,28.61c-1.95,2.488 -2.829,5.033 -2.638,7.637c0.191,2.603 1.369,4.753 3.534,6.45c2.165,1.697 4.523,2.318 7.074,1.862c2.55,-0.455 4.8,-1.927 6.75,-4.415c3.719,-4.745 18.701,-23.865 22.419,-28.61c2.027,1.588 10.113,7.924 12.094,9.477c-3.755,4.791 -19.098,24.371 -22.853,29.163Z" style="fill:#332f1f;fill-rule:nonzero;"/><path d="M621.645,172.106c3.395,-2.964 6.965,-5.128 10.708,-6.491c3.743,-1.364 7.517,-1.958 11.321,-1.783c3.805,0.175 7.492,1.151 11.064,2.929c3.571,1.777 6.873,4.314 9.906,7.61c3.033,3.296 5.65,7.363 7.852,12.2c-1.852,1.617 -9.326,8.141 -11.178,9.757c-1.036,-3.679 -2.582,-6.875 -4.638,-9.586c-2.056,-2.711 -4.43,-4.719 -7.12,-6.021c-2.691,-1.303 -5.534,-1.734 -8.53,-1.295c-2.996,0.44 -5.993,1.968 -8.991,4.585c-2.998,2.617 -4.918,5.38 -5.758,8.289c-0.84,2.909 -0.797,5.785 0.13,8.627c0.927,2.842 2.595,5.465 5.004,7.869c2.409,2.404 5.366,4.367 8.872,5.891c-1.852,1.617 -9.326,8.141 -11.178,9.757c-4.495,-2.836 -8.171,-5.978 -11.027,-9.429c-2.856,-3.45 -4.924,-7.065 -6.202,-10.843c-1.278,-3.779 -1.747,-7.565 -1.407,-11.358c0.34,-3.793 1.439,-7.452 3.296,-10.977c1.857,-3.524 4.483,-6.769 7.879,-9.732Z" style="fill:#332f1f;fill-rule:nonzero;"/><path d="M631.424,228.372c10.032,-2.303 20.174,-4.652 30.423,-7.048c10.25,-2.395 20.391,-4.745 30.423,-7.048c1.733,2.987 8.799,15.162 10.532,18.149c-6.977,7.568 -14.048,15.207 -21.213,22.918c-7.165,7.711 -14.236,15.35 -21.213,22.918c-1.263,-2.177 -6.463,-11.137 -7.756,-13.365c1.326,-1.446 2.68,-2.875 4.061,-4.285c1.381,-1.41 2.734,-2.839 4.061,-4.285c-1.675,-2.886 -8.417,-14.504 -10.092,-17.389c-1.914,0.434 -3.825,0.9 -5.735,1.4c-1.91,0.499 -3.821,0.966 -5.735,1.4c-1.263,-2.177 -6.463,-11.137 -7.756,-13.365Zm32.48,7.341c1.028,1.772 5.185,8.935 6.214,10.707c2.487,-2.594 4.985,-5.228 7.494,-7.902c2.509,-2.674 5.007,-5.308 7.494,-7.902c-3.486,0.873 -7.02,1.722 -10.601,2.548c-3.581,0.826 -7.115,1.676 -10.601,2.548Z" style="fill:#332f1f;fill-rule:nonzero;"/><path d="M662.458,283.923c9.34,-3.075 47.367,-15.595 56.707,-18.67c0.805,2.446 4.045,12.287 4.832,14.677c-4.311,4.685 -8.665,9.431 -13.06,14.236c-4.395,4.805 -8.748,9.551 -13.06,14.236c5.282,-1.739 26.741,-8.804 32.023,-10.543c0.787,2.391 3.935,11.953 4.722,14.344c-9.34,3.075 -47.367,15.595 -56.707,18.67c-0.787,-2.391 -4.027,-12.231 -4.832,-14.677c4.311,-4.685 8.665,-9.431 13.06,-14.236c4.395,-4.805 8.748,-9.551 13.06,-14.236c-5.282,1.739 -26.741,8.804 -32.023,10.543c-0.787,-2.391 -3.935,-11.953 -4.722,-14.344Z" style="fill:#332f1f;fill-rule:nonzero;"/></g></g></svg>