<?xml version="1.0" encoding="UTF-8"?>
<svg id="Layer_2" data-name="Layer 2" xmlns="http://www.w3.org/2000/svg" viewBox="0 0 316.41 316.33">
  <defs>
    <style>
      .cls-1 {
        fill: #bbcdca;
      }

      .cls-2 {
        fill: #fff;
      }

      .cls-3 {
        font-family: TiltWarp-Regular, 'Tilt Warp';
        font-size: 38px;
        font-variation-settings: 'XROT' 0, 'YROT' 0;
      }
    </style>
  </defs>
  <g id="Vintage">
    <g id="Layer_10" data-name="Layer 10">
      <g>
        <path d="M162.25.05C74.77-2.18,2.09,67,.04,154.47c-2.05,87.46,67.32,159.97,154.8,161.83,87.22,1.85,159.47-67.23,161.52-154.43C318.4,74.67,249.46,2.28,162.25.05ZM167.6,308.05c-82.78,5.18-154.06-57.73-159.19-140.49C3.29,84.8,66.28,13.58,149.06,8.52c82.7-5.05,153.84,57.84,158.96,140.51,5.11,82.67-57.73,153.85-140.42,159.03Z"/>
        <path class="cls-1" d="M113.24,248.97c.8-2.5,1.17-3.92,2.5-6.18.46,1.4-.37,3.72-.77,5.3l-1.73.88Z"/>
        <path d="M155.25,115.53c2.88-1.19,6.17.15,7.4,3.01,1.22,2.86-.09,6.17-2.93,7.43-1.87.83-4.04.58-5.68-.64s-2.5-3.23-2.25-5.26c.26-2.03,1.58-3.77,3.47-4.55Z"/>
        <path d="M252.17,109.65c-13.22-24.99-35.85-43.69-62.89-51.97-26.2-7.89-56.33-5.3-80.46,7.72-24.84,13.11-43.44,35.56-51.7,62.4-8.26,26.94-5.47,56.06,7.74,80.95,5.93,10.96,14.86,22.49,24.52,30.47l2.67-4.61c-21.7-22-34.32-44.41-34.06-76.35.19-26.72,11.03-52.27,30.12-70.97,19.25-18.86,45.27-29.21,72.22-28.71,26.29.49,51.35,11.28,69.75,30.06,18.77,19.16,29.13,45.01,28.79,71.82-.45,27.78-11.96,52.63-31.85,71.81l-.36.35-47.2-.06c-3.61-7.41-8.13-7.82-15.95-8.06,13.11-8.2,22.39-16.77,26.08-32.52,2.17-9.62,1.58-19.65-1.7-28.94-2.27-6.61-3.6-8.74-4.81-15.64,19.61-.27,39.55-6.42,58.12,1.82,1.87.83,3.94,1.46,5.83,2.29.48-.43.91-.8,1.28-1.11,1.37-2.91,1.17-6.25.82-9.39-3.58-32.52-42.56-42.25-69.76-40.55-1.07-4.01-4.02-11.15-7.65-13.57-1.41-.93-5.13-.72-6.92-1.85-9.51-5.98-16.15-6.66-27.63-5.19.44-6.78-5.4-12.23-12.86-8.65-2.48,1.17-4.84,3.24-5.74,5.83-1.83,5.38-.69,10.59,5.66,12.36-6.6,8.38-6.34,11.79-4.7,23.02-.02,2.03-2.8,3.37-2.09,5.58-.02,3.44,5.91,11.21,7.32,12.89.42,7.04,1.02,14.55.74,21.62-.34,5.38-11.03,14.36-14.5,18.75-12.78,16.16-19.96,38.68-18.34,59.2,13.37-5.11,25.07-16.83,33.66-28.06,3.48-4.55,6.2-9.84,10.06-14.41-4.4,15.38-17.42,28.6-29.32,38.59,10.04-3.63,16.05-6.14,24.48-12.76,14.02-11.02,29.15-38.51,9.75-51.42-3.12-2.77-11.77-.38-13.26-.93,3.56-5.99,14.99-3.24,19,.5,4.18,3.9,6.59,9.48,6.67,15.21.4,30.05-28.27,50.59-55.41,55.04-3.54,6.53-20.37,34.61-20.15,40.37,1.79,2.58,6.36,3.39,8.49,1.27,8.69-8.63,12.36-26.2,19.82-35.29-2.92,9-16.79,38.41-17.28,43.88,2.92,4.67,10.85.29,12.95-3.74,4.87-9.33,7.45-19.79,11.12-29.72l1.73-.88c-1.24,4.57-7.39,24.45-6.66,27.59,7.34,3.15,11.54-7.58,12.79-13.02,1.81-7.88,3.88-15.88,5.46-23.8,3.89-.05,14.58-.1,17.98.35,2.39,2.79-.76,4.09,3.86,5.56,1.11.22,2.82-1.37,3.95-1.31.99.05,1.75.71,3.53.84,1.66.12,2.85-2.7,3.69-3.95,1.31-1.95,1.84-1.42,2.92-1.42,1.38-.1,1.91.74,2.79,1.39,1.16.86,1.65,3.17,2.98,3.43,1.33.26,2.78-1.02,4.11-1.2.83-.11,1.57.64,2.73.35.9-.22,1.91-.77,2.83-1.55.4-.25,1.4-1.67,1.79-2.24l39.61-.18c-14.51,9.98-26.2,16.02-43.89,19.24-18.22,3.32-30.05.56-47.59-3.27-1.06,1.48-1.14,1.68-1.08,3.5.61,1.21.71,1.8,2.23,2.26,26.7,8,54.24,5.03,78.54-7.75,24.69-13,43.29-35.17,51.81-61.73,8.49-27.05,5.91-56.36-7.17-81.51ZM115.47,185.59l.11,1.02c-2,5.43-11.2,15.43-15.16,19.72-.93-4.75,11.39-17.62,15.06-20.74ZM98.16,220.8c-.36-2-.5-3.79,1.02-5.31,3.76-3.93,8.65-7.19,12.3-11.19,4.74-5.2,8.52-11.31,13.27-16.53.09.35.09,1.21.1,1.62-5.71,12.02-16.5,23.11-26.69,31.42ZM232.08,142.12c-9.14-2.1-21.63-1.25-30.89-.14-12.19,1.45-20.73,2.56-28.64-8.85l1.86-.44c15.07-.87,29.2-.58,43.95,2.62,3.63.79,15.28,4.35,17.48,7.18-1.14.62-2.16.02-3.76-.36ZM219.2,110.95c13.02,5.34,19.42,12.04,24.75,24.69-4.84-6.61-6.41-8.84-12.74-13.8-.26-.15-.52-.29-.78-.42-2.71-1.37-6.44-1.71-7.77,1.84-1.43,3.81-.35,6.17,1.34,9.68-19.87-5.28-33.06-5.28-53.41-3.77,3.87-9.95.51-11.97,3.2-20.94.57-1.88,3.2-2.87,5.06-3.46,14.09-.68,27.23.81,40.36,6.19ZM175.32,100.48c-6.05.94-6.99-5.5-9.27-10.51,6.42.18,7.23,5.23,9.27,10.51ZM167.81,101.67l-1.77,1.16c-.61,0-1.86.1-2.23-.31-2.03-2.2-4.48-7.3-4.89-10.03l1.36-1.33c.38,0,1.52-.03,1.81.06,3.15.93,6.16,7.69,5.72,10.47ZM144.01,98.85c.87-1.24,2.65-1.88,4.1-2.59,1.91,1.13,4.65,7.83,5.32,10.07-.5,1.31-2.38,1.89-3.94,2.73-1.35-.65-4.88-8.39-5.47-10.21ZM146.15,109.84c-.61,2-.69,1.53-2.88,2.99l-.47-.1c-2.16-2.59-4.36-6.36-4.93-9.71.53-1.96.62-1.5,2.71-2.98,2.2.58,5.28,7.42,5.57,9.81ZM152.06,94.69l2.25-1.35c.98.05.68.04,1.62.46,2.71,3.86,3.65,4.74,4.2,9.3-.78,1.77-.81,1.32-3.1,2.34-.19.03-.76-.23-.99-.31-1.46-2.59-4.66-7.56-3.99-10.44ZM142.21,83.07c8.13-.74,12.12.71,19.1,4.29-9.74,2.39-18.51,6.91-27,12.1-4.21,3-8.07,5.49-11.97,8.92-1.87-11.06,6.16-22.26,19.86-25.31ZM126.4,126.77c-6.81-8.46-6.24-9.04-3.46-12.65,1.52,1.78,5.26,7.73,5.89,10.02.3,1.04-2.43,2.62-2.43,2.62ZM131.69,122.04c-1.59-2.04-5.5-7.42-5.28-9.94.14-1.54,1.09-1.97,2.34-3.18,1.83,1.95,5.39,7.56,5.32,10.34-.02,1.02-1.59,2.09-2.38,2.78ZM137.47,116.96c-2.03-.84-5.9-7.48-5.59-9.83.17-1.32,1.63-2.23,2.59-3.11,1.56,1.9,5.68,8.15,5.42,10.78-.07.76-1.59,1.56-2.42,2.16ZM156.71,236.94c-.3,1.59-.89,2.79-2.2,3.62-.43.04-.74-.22-.9-.56-.83-1.78.19-3.76-1.79-6.75l-.53-.15c-1.42,1.55-.01,4.55-1.2,7.31-.12.27-1.01.9-1.3.9-.29,0-.98-.91-.99-1.2-.12-4.07.03-6.62-4.36-8.31-2.53-.97-5.13,1.03-7.4.25.5-1.6,1.16-1.92,2.47-3.23,4.91-.9,13.73-.61,17.23,4.03.89,1.16,1.24,2.65.95,4.09ZM156.41,157.13c-3.6-5.22-13.51-8.86-15.14-15.29-4.14-16.27,6.01-28.14,19.83-33.36,14.06-.63,1.27,21.9,6.21,29.42,4.12,6.27,5.24,6.38,12.13,8.9-.32,10.76,6.57,19.53,6.59,30.3.02,10.09-8.93,8.33-15,4.77-10.08-8.64-7.18-14.96-14.62-24.74ZM175.84,237.54c-.2,1.25.02.81-1,1.56l-.79-.47-.6-3.87c-.53-.77-1.38-1.58-2.05-2.27-1.88,1.11,1.13,5.56-2.13,7.05-1.62-1.33-1.59-4.88-2.56-6.01-3.85-4.5-5.91.46-9.57-5.22,6.83-.1,20.48-1.76,18.71,9.24Z"/>
        <circle class="cls-2" cx="159.31" cy="119.01" r="1.89"/>
        <text class="cls-3" transform="translate(45.59 143.83) rotate(-77.6)"><tspan x="0" y="0">T</tspan></text>
        <text class="cls-3" transform="translate(49.06 125.47) rotate(-66.24)"><tspan x="0" y="0">O</tspan></text>
        <text class="cls-3" transform="translate(59.79 101.07) rotate(-53.38)"><tspan x="0" y="0">U</tspan></text>
        <text class="cls-3" transform="translate(74.06 81.41) rotate(-40.6)"><tspan x="0" y="0">Q</tspan></text>
        <text class="cls-3" transform="translate(94.27 64.06) rotate(-27.78)"><tspan x="0" y="0">U</tspan></text>
        <text class="cls-3" transform="translate(115.92 52.82) rotate(-16.78)"><tspan x="0" y="0">E</tspan></text>
        <text class="cls-3" transform="translate(134.5 47.55) rotate(-10)"><tspan x="0" y="0"> </tspan></text>
        <text class="cls-3" transform="translate(141.48 45.72) rotate(-2.34)"><tspan x="0" y="0">&amp;</tspan></text>
        <text class="cls-3" transform="translate(164.72 45.24) rotate(5.26)"><tspan x="0" y="0"> </tspan></text>
        <text class="cls-3" transform="translate(171.97 45.49) rotate(12.11)"><tspan x="0" y="0">T</tspan></text>
        <text class="cls-3" transform="translate(190.36 48.87) rotate(23.47)"><tspan x="0" y="0">O</tspan></text>
        <text class="cls-3" transform="translate(214.8 59.47) rotate(36.33)"><tspan x="0" y="0">U</tspan></text>
        <text class="cls-3" transform="translate(234.42 73.95) rotate(47.75)"><tspan x="0" y="0">C</tspan></text>
        <text class="cls-3" transform="translate(248.78 89.39) rotate(59.04)"><tspan x="0" y="0">A</tspan></text>
        <text class="cls-3" transform="translate(261.15 109.6) rotate(71.39)"><tspan x="0" y="0">N</tspan></text>
      </g>
    </g>
  </g>
</svg>