<?xml version="1.0" encoding="UTF-8" standalone="no"?><!DOCTYPE svg PUBLIC "-//W3C//DTD SVG 1.1//EN" "http://www.w3.org/Graphics/SVG/1.1/DTD/svg11.dtd"><svg width="100%" height="100%" viewBox="0 0 1962 358" version="1.1" xmlns="http://www.w3.org/2000/svg" xmlns:xlink="http://www.w3.org/1999/xlink" xml:space="preserve" xmlns:serif="http://www.serif.com/" style="fill-rule:evenodd;clip-rule:evenodd;stroke-linejoin:round;stroke-miterlimit:2;"><g><path d="M110.831,185.185l49.245,-0l0,34.792l-33.479,0l0,114.004l-38.293,0l0,-114.004l-33.698,0l0,-34.792l21.987,-0l0.365,0.228c2.642,3.543 1.699,7.541 3.793,9.416c3.49,-2.066 6.729,-0.904 6.729,-0.904c3.159,-2.579 5.305,-5.941 3.186,-8.74l6.571,0c0.336,0.338 0.675,0.742 1.019,1.226c0.371,2.207 3.729,4.29 4.638,6.32l7.198,-0.281c1.459,-1.499 1.539,-4.75 0.737,-7.265Z"/><path d="M242.789,337.482c-10.649,0 -20.496,-1.933 -29.54,-5.799c-9.044,-3.866 -16.849,-9.3 -23.413,-16.302c-6.565,-7.002 -11.67,-15.281 -15.317,-24.836c-3.647,-9.555 -5.47,-19.949 -5.47,-31.181c0,-11.233 1.823,-21.59 5.47,-31.072c3.647,-9.482 8.753,-17.688 15.317,-24.617c6.565,-6.929 14.369,-12.327 23.413,-16.192c9.044,-3.866 18.891,-5.799 29.54,-5.799c10.649,0 20.459,1.933 29.431,5.799c8.971,3.866 16.776,9.263 23.413,16.192c6.637,6.929 11.78,15.135 15.427,24.617c3.647,9.482 5.47,19.839 5.47,31.072c0,11.233 -1.823,21.626 -5.47,31.181c-3.647,9.555 -8.789,17.834 -15.427,24.836c-6.637,7.002 -14.442,12.436 -23.413,16.302c-8.971,3.866 -18.782,5.799 -29.431,5.799Zm0,-35.448c7.148,0 13.275,-1.787 18.381,-5.361c5.106,-3.574 9.081,-8.57 11.926,-14.989c2.845,-6.419 4.267,-13.858 4.267,-22.319c0,-8.461 -1.422,-15.828 -4.267,-22.101c-2.845,-6.273 -6.82,-11.196 -11.926,-14.77c-5.106,-3.574 -11.233,-5.361 -18.381,-5.361c-7.002,0 -13.093,1.751 -18.271,5.252c-5.179,3.501 -9.19,8.424 -12.035,14.77c-2.845,6.346 -4.267,13.749 -4.267,22.21c0,8.461 1.422,15.901 4.267,22.319c2.845,6.419 6.856,11.415 12.035,14.989c5.179,3.574 11.269,5.361 18.271,5.361Z" style="fill-rule:nonzero;"/><path d="M458.542,277.526c0,9.19 -1.568,17.469 -4.705,24.836c-3.136,7.367 -7.513,13.676 -13.129,18.928c-5.616,5.252 -12.181,9.263 -19.694,12.035c-7.513,2.772 -15.645,4.158 -24.398,4.158c-8.899,0 -17.068,-1.386 -24.507,-4.158c-7.44,-2.772 -13.895,-6.747 -19.365,-11.926c-5.47,-5.179 -9.737,-11.415 -12.801,-18.709c-3.063,-7.294 -4.595,-15.536 -4.595,-24.726l0,-92.778l38.293,0l0,90.59c0,7.877 2.188,14.223 6.565,19.037c4.376,4.814 9.993,7.221 16.849,7.221c6.856,0 12.436,-2.407 16.739,-7.221c4.303,-4.814 6.455,-11.16 6.455,-19.037l0,-90.59l38.293,0l0,92.341Z" style="fill-rule:nonzero;"/><path d="M551.102,337.482c-10.649,0 -20.496,-1.933 -29.54,-5.799c-9.044,-3.866 -16.849,-9.3 -23.413,-16.302c-6.565,-7.002 -11.67,-15.281 -15.317,-24.836c-3.647,-9.555 -5.47,-19.949 -5.47,-31.181c0,-11.233 1.823,-21.59 5.47,-31.072c3.647,-9.482 8.753,-17.688 15.317,-24.617c6.565,-6.929 14.369,-12.327 23.413,-16.192c9.044,-3.866 18.891,-5.799 29.54,-5.799c10.649,0 20.459,1.933 29.431,5.799c8.971,3.866 16.776,9.263 23.413,16.192c6.637,6.929 11.78,15.135 15.427,24.617c3.647,9.482 5.47,19.839 5.47,31.072c0,12.108 -2.115,23.231 -6.346,33.37c-4.23,10.139 -10.066,18.709 -17.505,25.711c2.042,3.355 4.158,6.82 6.346,10.394c2.188,3.574 4.303,7.039 6.346,10.394c-4.96,2.918 -9.956,5.908 -14.989,8.971c-5.033,3.063 -10.029,6.054 -14.989,8.971c-2.188,-3.647 -4.413,-7.33 -6.674,-11.05c-2.261,-3.72 -4.486,-7.403 -6.674,-11.05c-3.063,0.729 -6.2,1.313 -9.409,1.751c-3.209,0.438 -6.492,0.656 -9.847,0.656Zm-34.573,-78.118c0,8.315 1.349,15.682 4.048,22.101c2.699,6.419 6.601,11.451 11.707,15.098c5.106,3.647 11.087,5.543 17.943,5.689c-2.334,-3.793 -4.632,-7.586 -6.893,-11.378c-2.261,-3.793 -4.559,-7.513 -6.893,-11.16c4.96,-2.918 9.956,-5.908 14.989,-8.971c5.033,-3.063 10.029,-6.054 14.989,-8.971c2.334,3.647 4.632,7.367 6.893,11.16c2.261,3.793 4.559,7.586 6.893,11.378c1.751,-3.355 3.1,-7.148 4.048,-11.378c0.948,-4.23 1.422,-8.753 1.422,-13.567c0,-8.461 -1.422,-15.828 -4.267,-22.101c-2.845,-6.273 -6.82,-11.196 -11.926,-14.77c-5.106,-3.574 -11.233,-5.361 -18.381,-5.361c-7.002,0 -13.093,1.751 -18.271,5.252c-5.179,3.501 -9.19,8.424 -12.035,14.77c-2.845,6.346 -4.267,13.749 -4.267,22.21Z" style="fill-rule:nonzero;"/><path d="M766.855,277.526c0,9.19 -1.568,17.469 -4.705,24.836c-3.136,7.367 -7.513,13.676 -13.129,18.928c-5.616,5.252 -12.181,9.263 -19.694,12.035c-7.513,2.772 -15.645,4.158 -24.398,4.158c-8.899,0 -17.068,-1.386 -24.507,-4.158c-7.44,-2.772 -13.895,-6.747 -19.365,-11.926c-5.47,-5.179 -9.737,-11.415 -12.801,-18.709c-3.063,-7.294 -4.595,-15.536 -4.595,-24.726l0,-92.778l38.293,0l0,90.59c0,7.877 2.188,14.223 6.565,19.037c4.376,4.814 9.993,7.221 16.849,7.221c6.856,0 12.436,-2.407 16.739,-7.221c4.303,-4.814 6.455,-11.16 6.455,-19.037l0,-90.59l38.293,0l0,92.341Z" style="fill-rule:nonzero;"/><path d="M793.113,333.981l0,-148.795l89.277,0l0,34.135l-50.984,0l0,21.663l46.608,0l0,33.041l-46.608,0l0,25.82l50.984,0l0,34.135l-89.277,0Z" style="fill-rule:nonzero;"/><path d="M1065.978,289.999c0,9.774 -2.443,18.235 -7.33,25.383c-4.887,7.148 -11.634,12.655 -20.241,16.521c-8.607,3.866 -18.599,5.799 -29.978,5.799c-10.649,0 -20.095,-1.714 -28.337,-5.142c-8.242,-3.428 -14.734,-8.388 -19.475,-14.88c-4.741,-6.492 -7.112,-14.187 -7.112,-23.085c0,-7.294 1.641,-14.004 4.923,-20.131c3.282,-6.127 8.279,-11.378 14.989,-15.755c-5.397,-4.085 -9.373,-8.862 -11.926,-14.333c-2.553,-5.47 -3.829,-11.488 -3.829,-18.052c0,-9.628 2.589,-17.651 7.768,-24.07c5.179,-6.419 12.144,-11.233 20.897,-14.442c8.753,-3.209 18.454,-4.923 29.103,-5.142c10.649,-0.219 21.444,1.058 32.385,3.829l0,35.667c-6.127,-1.751 -12.29,-2.99 -18.49,-3.72c-6.2,-0.729 -11.853,-0.802 -16.958,-0.219c-5.106,0.584 -9.227,1.823 -12.363,3.72c-3.136,1.896 -4.705,4.595 -4.705,8.096c0,4.522 3.063,7.622 9.19,9.3c6.127,1.678 14.588,2.516 25.383,2.516l0,-15.974l36.105,0l0,15.974l13.567,0l0,32.385l-13.567,0l0,15.755Zm-74.179,-0.875c0,4.23 1.568,7.768 4.705,10.613c3.136,2.845 7.549,4.267 13.238,4.267c6.127,0 11.014,-1.495 14.661,-4.486c3.647,-2.99 5.47,-7.184 5.47,-12.582l0,-12.691c-11.962,0 -21.298,0.875 -28.009,2.626c-6.71,1.751 -10.066,5.835 -10.066,12.254Z" style="fill-rule:nonzero;"/><path d="M1169.697,333.981l0,-114.004l-33.698,0l0,-34.792l105.47,0l0,34.792l-33.479,0l0,114.004l-38.293,0Z" style="fill-rule:nonzero;"/><path d="M1324.182,337.482c-10.649,0 -20.496,-1.933 -29.54,-5.799c-9.044,-3.866 -16.849,-9.3 -23.413,-16.302c-6.565,-7.002 -11.67,-15.281 -15.317,-24.836c-3.647,-9.555 -5.47,-19.949 -5.47,-31.181c0,-11.233 1.823,-21.59 5.47,-31.072c3.647,-9.482 8.753,-17.688 15.317,-24.617c6.565,-6.929 14.369,-12.327 23.413,-16.192c9.044,-3.866 18.891,-5.799 29.54,-5.799c10.649,0 20.459,1.933 29.431,5.799c8.971,3.866 16.776,9.263 23.413,16.192c6.637,6.929 11.78,15.135 15.427,24.617c3.647,9.482 5.47,19.839 5.47,31.072c0,11.233 -1.823,21.626 -5.47,31.181c-3.647,9.555 -8.789,17.834 -15.427,24.836c-6.637,7.002 -14.442,12.436 -23.413,16.302c-8.971,3.866 -18.782,5.799 -29.431,5.799Zm0,-35.448c7.148,0 13.275,-1.787 18.381,-5.361c5.106,-3.574 9.081,-8.57 11.926,-14.989c2.845,-6.419 4.267,-13.858 4.267,-22.319c0,-8.461 -1.422,-15.828 -4.267,-22.101c-2.845,-6.273 -6.82,-11.196 -11.926,-14.77c-5.106,-3.574 -11.233,-5.361 -18.381,-5.361c-7.002,0 -13.093,1.751 -18.271,5.252c-5.179,3.501 -9.19,8.424 -12.035,14.77c-2.845,6.346 -4.267,13.749 -4.267,22.21c0,8.461 1.422,15.901 4.267,22.319c2.845,6.419 6.856,11.415 12.035,14.989c5.179,3.574 11.269,5.361 18.271,5.361Z" style="fill-rule:nonzero;"/><path d="M1539.935,277.526c0,9.19 -1.568,17.469 -4.705,24.836c-3.136,7.367 -7.513,13.676 -13.129,18.928c-5.616,5.252 -12.181,9.263 -19.694,12.035c-7.513,2.772 -15.645,4.158 -24.398,4.158c-8.899,0 -17.068,-1.386 -24.507,-4.158c-7.44,-2.772 -13.895,-6.747 -19.365,-11.926c-5.47,-5.179 -9.737,-11.415 -12.801,-18.709c-3.063,-7.294 -4.595,-15.536 -4.595,-24.726l0,-92.778l38.293,0l0,90.59c0,7.877 2.188,14.223 6.565,19.037c4.376,4.814 9.993,7.221 16.849,7.221c6.856,0 12.436,-2.407 16.739,-7.221c4.303,-4.814 6.455,-11.16 6.455,-19.037l0,-90.59l38.293,0l0,92.341Z" style="fill-rule:nonzero;"/><path d="M1558.754,259.583c0,-11.233 1.787,-21.481 5.361,-30.744c3.574,-9.263 8.643,-17.323 15.208,-24.179c6.565,-6.856 14.442,-12.181 23.632,-15.974c9.19,-3.793 19.365,-5.835 30.525,-6.127c11.16,-0.292 23.085,1.459 35.777,5.252l0,36.98c-8.607,-4.085 -17.141,-6.419 -25.602,-7.002c-8.461,-0.584 -16.12,0.584 -22.976,3.501c-6.856,2.918 -12.327,7.549 -16.411,13.895c-4.085,6.346 -6.127,14.478 -6.127,24.398c0,9.92 2.042,18.052 6.127,24.398c4.085,6.346 9.555,10.977 16.411,13.895c6.856,2.918 14.515,4.085 22.976,3.501c8.461,-0.584 16.995,-2.918 25.602,-7.002l0,36.98c-12.691,3.793 -24.617,5.543 -35.777,5.252c-11.16,-0.292 -21.335,-2.334 -30.525,-6.127c-9.19,-3.793 -17.068,-9.117 -23.632,-15.974c-6.565,-6.856 -11.634,-14.916 -15.208,-24.179c-3.574,-9.263 -5.361,-19.511 -5.361,-30.744Z" style="fill-rule:nonzero;"/><path d="M1680.197,333.981c7.586,-24.507 15.208,-49.307 22.866,-74.398c7.659,-25.091 15.281,-49.89 22.866,-74.398l52.297,0c7.586,24.507 15.208,49.307 22.866,74.398c7.659,25.091 15.281,49.89 22.866,74.398l-38.512,0c-1.459,-4.668 -2.845,-9.373 -4.158,-14.114c-1.313,-4.741 -2.699,-9.446 -4.158,-14.114l-50.109,0c-1.459,4.668 -2.845,9.373 -4.158,14.114c-1.313,4.741 -2.699,9.446 -4.158,14.114l-38.512,0Zm56.455,-60.831l30.853,0c-2.48,-8.607 -5.033,-17.287 -7.659,-26.039c-2.626,-8.753 -5.179,-17.432 -7.659,-26.039c-2.48,8.607 -5.069,17.287 -7.768,26.039c-2.699,8.753 -5.288,17.432 -7.768,26.039Z" style="fill-rule:nonzero;"/><path d="M1838.183,333.981l0,-148.795l38.512,0c7.732,13.858 15.572,27.863 23.523,42.013c7.95,14.15 15.791,28.154 23.523,42.013l0,-84.026l37.637,0l0,148.795l-38.512,0c-7.732,-13.858 -15.572,-27.863 -23.523,-42.013c-7.95,-14.15 -15.791,-28.154 -23.523,-42.013l0,84.026l-37.637,0Z" style="fill-rule:nonzero;"/><path d="M159.743,192.139l-44.178,0.182c-0.441,0.643 -1.583,2.254 -2.033,2.544c-1.044,0.884 -2.195,1.51 -3.223,1.763c-1.319,0.328 -2.167,-0.528 -3.108,-0.401c-1.513,0.202 -3.17,1.659 -4.68,1.364c-1.513,-0.295 -2.069,-2.931 -3.391,-3.905c-0.999,-0.738 -1.597,-1.704 -3.167,-1.586c-1.23,0.008 -1.833,-0.595 -3.327,1.623c-0.96,1.426 -2.305,4.632 -4.2,4.495c-2.03,-0.146 -2.894,-0.904 -4.015,-0.957c-1.286,-0.065 -3.226,1.741 -4.495,1.494c-5.256,-1.673 -1.665,-3.142 -4.385,-6.322c-3.871,-0.505 -16.042,-0.452 -20.463,-0.393c-1.8,9.017 -4.152,18.111 -6.213,27.078c-1.423,6.185 -6.193,18.4 -14.548,14.815c-0.825,-3.571 6.168,-26.185 7.583,-31.387l-1.968,1.002c-4.172,11.297 -7.103,23.195 -12.645,33.81c-2.389,4.582 -11.407,9.571 -14.733,4.253c0.561,-6.23 16.334,-39.68 19.66,-49.925c-8.493,10.331 -12.664,30.329 -22.555,40.146c-2.426,2.409 -7.628,1.482 -9.658,-1.451c-0.25,-6.547 18.894,-38.498 22.92,-45.924c30.871,-5.065 63.496,-28.439 63.038,-62.623c-0.093,-6.522 -2.833,-12.869 -7.591,-17.302c-4.568,-4.245 -17.566,-7.381 -21.62,-0.564c1.696,0.626 11.533,-2.1 15.084,1.056c22.075,14.689 4.854,45.969 -11.092,58.504c-9.585,7.541 -16.424,10.396 -27.847,14.523c13.546,-11.37 28.352,-26.407 33.361,-43.906c-4.394,5.202 -7.482,11.221 -11.443,16.398c-9.778,12.771 -23.086,26.109 -38.296,31.923c-1.847,-23.344 6.322,-48.965 20.862,-67.348c3.944,-4.992 16.112,-15.211 16.497,-21.334c0.323,-8.052 -0.359,-16.595 -0.837,-24.604c-1.606,-1.915 -8.355,-10.747 -8.327,-14.663c-0.8,-2.51 2.355,-4.029 2.384,-6.342c-1.867,-12.779 -2.159,-16.654 5.348,-26.191c-7.232,-2.013 -8.518,-7.934 -6.443,-14.057c1.03,-2.948 3.714,-5.3 6.536,-6.634c8.49,-4.079 15.129,2.128 14.632,9.837c13.069,-1.67 20.621,-0.901 31.438,5.907c2.041,1.28 6.277,1.042 7.878,2.103c4.127,2.76 7.479,10.882 8.703,15.438c30.935,-1.94 75.287,9.127 79.361,46.129c0.393,3.565 0.615,7.372 -0.938,10.679l-1.454,1.266c-2.15,-0.949 -4.503,-1.659 -6.634,-2.608c-21.129,-9.368 -43.81,-2.384 -66.126,-2.072c1.378,7.852 2.894,10.278 5.477,17.799c3.742,10.573 4.413,21.991 1.94,32.928c-4.192,17.928 -14.75,27.667 -29.666,37.002c8.897,0.272 14.043,0.75 18.15,9.175l44.447,0.581l0,6.682Zm-98.808,-133.008c0.89,-0.786 2.673,-2.01 2.701,-3.167c0.084,-3.161 -3.97,-9.542 -6.047,-11.76c-1.423,1.378 -2.51,1.861 -2.664,3.619c-0.25,2.869 4.2,8.995 6.011,11.308Zm14.015,-26.384c0.671,2.069 4.686,10.873 6.221,11.617c1.783,-0.957 3.916,-1.62 4.486,-3.108c-0.755,-2.555 -3.88,-10.177 -6.047,-11.46c-1.645,0.809 -3.669,1.541 -4.66,2.951Zm9.152,-4.731c-0.761,3.276 2.878,8.925 4.542,11.875c0.255,0.093 0.91,0.385 1.12,0.351c2.611,-1.162 2.639,-0.646 3.529,-2.664c-0.626,-5.194 -1.701,-6.19 -4.778,-10.584c-1.075,-0.474 -0.736,-0.463 -1.847,-0.519l-2.566,1.541Zm27.058,162.525c2.013,-12.51 -13.521,-10.621 -21.286,-10.508c4.163,6.466 6.508,0.82 10.893,5.941c1.101,1.291 1.072,5.329 2.911,6.836c3.714,-1.693 0.286,-6.749 2.426,-8.015c0.764,0.78 1.738,1.707 2.336,2.583l0.679,4.405l0.901,0.533c1.168,-0.853 0.91,-0.354 1.14,-1.774Zm-33.776,-145.288c-0.328,-2.709 -3.832,-10.497 -6.331,-11.157c-2.381,1.682 -2.482,1.159 -3.088,3.389c0.643,3.818 3.153,8.099 5.606,11.05l0.533,0.121c2.49,-1.659 2.591,-1.126 3.279,-3.403Zm33.187,-10.643c-2.313,-6.002 -3.234,-11.752 -10.539,-11.954c2.591,5.699 3.658,13.024 10.539,11.954Zm-87.786,136.877c11.598,-9.453 23.866,-22.061 30.365,-35.742c-0.008,-0.469 -0.008,-1.443 -0.109,-1.844c-5.404,5.941 -9.705,12.897 -15.101,18.81c-4.155,4.554 -9.714,8.265 -13.998,12.735c-1.727,1.735 -1.569,3.768 -1.157,6.042Zm50.116,-156.689c-15.587,3.473 -24.728,16.21 -22.594,28.793c4.43,-3.9 8.827,-6.727 13.616,-10.143c9.658,-5.904 19.63,-11.047 30.713,-13.768c-7.951,-4.079 -12.49,-5.722 -21.735,-4.882Zm16.497,175.055c0.323,-1.634 -0.073,-3.324 -1.084,-4.649c-3.989,-5.278 -14.026,-5.604 -19.607,-4.582c-1.488,1.491 -2.238,1.853 -2.81,3.675c2.583,0.89 5.542,-1.384 8.42,-0.281c4.992,1.915 4.826,4.82 4.961,9.453c0.008,0.328 0.795,1.359 1.126,1.359c0.331,0 1.345,-0.722 1.477,-1.028c1.348,-3.142 -0.255,-6.555 1.362,-8.313l0.601,0.174c2.249,3.405 1.084,5.657 2.03,7.681c0.18,0.382 0.539,0.677 1.028,0.632c1.488,-0.946 2.159,-2.316 2.499,-4.121Zm-21.892,-136.495c0.946,-0.682 2.675,-1.592 2.757,-2.459c0.295,-2.993 -4.391,-10.104 -6.165,-12.263c-1.095,0.994 -2.757,2.035 -2.951,3.535c-0.348,2.675 4.054,10.236 6.359,11.188Zm21.553,45.699c8.464,11.129 5.166,18.319 16.634,28.145c6.903,4.046 17.094,6.056 17.066,-5.427c-0.028,-12.254 -7.866,-22.232 -7.499,-34.473c-7.83,-2.869 -9.107,-2.99 -13.796,-10.129c-5.623,-8.551 8.933,-34.186 -7.066,-33.467c-15.724,5.938 -27.269,19.453 -22.563,37.957c1.856,7.313 13.125,11.452 17.224,17.395Zm-1.323,-47.331c3.271,-1.353 7.021,0.174 8.42,3.428c1.387,3.254 -0.101,7.021 -3.338,8.45c-2.122,0.938 -4.593,0.663 -6.46,-0.724c-1.867,-1.39 -2.85,-3.672 -2.563,-5.98c0.292,-2.308 1.791,-4.284 3.942,-5.174Zm6.774,3.958c0,-1.188 -0.963,-2.15 -2.15,-2.15c-1.188,0 -2.15,0.963 -2.15,2.15c0,1.188 0.963,2.15 2.15,2.15c1.188,0 2.15,-0.963 2.15,-2.15Zm80.637,26.286c1.828,0.438 2.987,1.123 4.281,0.416c-2.507,-3.22 -15.761,-7.277 -19.888,-8.172c-16.78,-3.641 -32.864,-3.97 -50.003,-2.976l-2.114,0.505c8.998,12.984 18.712,11.721 32.58,10.067c10.539,-1.255 24.739,-2.229 35.144,0.16Zm-132.666,49.464c-4.172,3.543 -18.187,18.187 -17.131,23.594c4.503,-4.877 14.972,-16.255 17.252,-22.431l-0.121,-1.162Zm12.434,-66.918c0,0 3.108,-1.802 2.768,-2.984c-0.727,-2.602 -4.978,-9.374 -6.707,-11.404c-3.158,4.11 -3.804,4.767 3.939,14.388Zm105.582,-18.007c-14.936,-6.129 -29.888,-7.822 -45.916,-7.047c-2.114,0.674 -5.11,1.797 -5.755,3.942c-3.06,10.202 0.764,12.496 -3.638,23.821c23.15,-1.713 38.159,-1.71 60.767,4.293c-1.92,-3.992 -3.153,-6.682 -1.524,-11.014c1.516,-4.037 5.761,-3.652 8.841,-2.089c0.303,0.152 0.598,0.312 0.893,0.477c7.204,5.649 8.987,8.186 14.492,15.702c-6.064,-14.385 -13.344,-22.005 -28.159,-28.086Zm-58.471,-10.556c0.505,-3.164 -2.923,-10.851 -6.508,-11.906c-0.331,-0.098 -1.626,-0.067 -2.058,-0.065l-1.544,1.519c0.46,3.105 3.254,8.914 5.562,11.415c0.421,0.463 1.836,0.345 2.535,0.351l2.013,-1.314Z"/></g></svg>